<?xml version="1.0" encoding="UTF-8"?>
<svg width="40px" height="39px" viewBox="0 0 40 39" version="1.1" xmlns="http://www.w3.org/2000/svg" xmlns:xlink="http://www.w3.org/1999/xlink">
    <!-- Generator: Sketch 61.2 (89653) - https://sketch.com -->
    <title>AVATAR</title>
    <desc>Created with Sketch.</desc>
    <g id="Page-1" stroke="none" stroke-width="1" fill="none" fill-rule="evenodd">
        <g id="Desktop-Copy" transform="translate(-1362.000000, -23.000000)">
            <g id="MENU-CABECERA" transform="translate(339.000000, 23.000000)">
                <g id="AVATAR" transform="translate(1023.000000, 0.000000)">
                    <path d="M39.5571429,19.5 C39.5571429,30.2698068 30.8267771,39 20.0567576,39 C9.28750857,39 0.557142857,30.2698068 0.557142857,19.5 C0.557142857,8.73019323 9.28750857,0 20.0567576,0 C30.8267771,0 39.5571429,8.73019323 39.5571429,19.5" id="Fill-1" fill="#33CCBD"></path>
                    <path d="M30.8022847,18.5363887 C30.4313364,16.1842987 29.0398984,12.1855901 27.5263376,10.64242 C25.4510114,8.52756129 21.9979861,12.311595 19.0632198,12.311595 C16.1284536,12.311595 12.6754283,8.52756129 10.6001021,10.64242 C9.08654124,12.1855901 7.85538964,15.5900537 7.32415497,18.5363887 C6.93794127,20.6839153 5.81059414,25.7217747 7.32415497,27.2657226 C8.09810893,28.0536417 9.97116908,28.4643241 11.1466021,27.1498293 C12.839531,25.255868 15.1102538,22.8143301 19.0632198,22.8143301 C23.0161858,22.8143301 25.2869087,25.255868 26.9798376,27.1498293 C28.1552706,28.4643241 30.0283308,28.0536417 30.8022847,27.2657226 C32.3166088,25.7217747 31.1411758,20.6916934 30.8022847,18.5363887" id="Fill-3" fill="#262626"></path>
                    <path d="M23.8864673,11.1925666 C23.1901069,13.2007763 23.6768991,16.6738684 24.6108802,19.4355319 C25.2907392,21.4489947 26.6760344,26.2736509 28.8839261,26.9070325 C29.3071878,27.0286057 29.8525601,27.0338589 30.3954573,26.9055316 C30.5233434,26.828235 30.6421537,26.7449348 30.7411623,26.6548806 C32.3781043,25.1652333 31.1074941,20.3113094 30.7411623,18.2325573 C30.3393524,15.9624398 28.8360719,12.1051163 27.1999549,10.615469 C26.5200959,9.99859741 25.7041001,9.90704226 24.8097224,10.0728922 C24.3856356,10.326545 24.0638577,10.6830097 23.8864673,11.1925666" id="Fill-5" fill="#404040"></path>
                    <path d="M9.92750336,10.6153362 C8.29137345,12.1042944 6.95969737,15.3899088 6.38626808,18.2319877 C5.96877855,20.3040712 4.75013817,25.1656998 6.38626808,26.6554085 C6.48692761,26.7462169 6.60573886,26.8310215 6.7361012,26.9090717 C7.27240198,27.0336519 7.81200307,27.027648 8.23031767,26.9068203 C10.4382267,26.2734127 11.8235329,21.4493082 12.5033972,19.4357624 C13.4373857,16.6739851 13.9241818,13.1999995 13.2278158,11.1924576 C13.050424,10.6806282 12.7269934,10.3233983 12.3012531,10.0697351 C11.413469,9.90838124 10.6015922,10.0021916 9.92750336,10.6153362" id="Fill-7" fill="#404040"></path>
                    <path d="M27.5402491,13.9839237 C26.9786687,13.9839237 26.5241728,14.4400545 26.5241728,14.9991826 C26.5241728,15.5615804 26.9786687,16.0168937 27.5402491,16.0168937 C28.1018295,16.0168937 28.5571429,15.5615804 28.5571429,14.9991826 C28.5571429,14.4400545 28.1018295,13.9839237 27.5402491,13.9839237 M23.5724017,13.9839237 C23.0124562,13.9839237 22.5571429,14.4400545 22.5571429,14.9991826 C22.5571429,15.5615804 23.0124562,16.0168937 23.5724017,16.0168937 C24.135617,16.0168937 24.5901129,15.5615804 24.5901129,14.9991826 C24.5901129,14.4400545 24.135617,13.9839237 23.5724017,13.9839237 M26.5732192,16.9822888 C26.5732192,16.4215259 26.1179058,15.96703 25.5571429,15.96703 C24.9955625,15.96703 24.5402491,16.4215259 24.5402491,16.9822888 C24.5402491,17.5446866 24.9955625,18 25.5571429,18 C26.1179058,18 26.5732192,17.5446866 26.5732192,16.9822888 M25.5571429,14.03297 C24.9955625,14.03297 24.5402491,13.5784741 24.5402491,13.0160763 C24.5402491,12.4544959 24.9955625,12 25.5571429,12 C26.1179058,12 26.5732192,12.4544959 26.5732192,13.0160763 C26.5732192,13.5784741 26.1179058,14.03297 25.5571429,14.03297" id="Fill-9" fill="#E62E2E"></path>
                    <path d="M20.5571429,16 C20.5571429,15.447295 20.1092901,15 19.5571429,15 C19.0044379,15 18.5571429,15.447295 18.5571429,16 C18.5571429,16.5521472 19.0044379,17 19.5571429,17 C20.1092901,17 20.5571429,16.5521472 20.5571429,16" id="Fill-11" fill="#666666"></path>
                    <path d="M18.5571429,20.0003666 C18.5571429,18.8960587 17.6616533,18 16.5571429,18 C15.4526324,18 14.5571429,18.8960587 14.5571429,20.0003666 C14.5571429,21.1039413 15.4526324,22 16.5571429,22 C17.6616533,22 18.5571429,21.1039413 18.5571429,20.0003666" id="Fill-13" fill="#666666"></path>
                    <polygon id="Fill-15" fill="#C7E62E" points="17.5571429 18.9937343 16.5634085 18.9937343 16.5634085 18 15.5515038 18 15.5515038 18.9937343 14.5571429 18.9937343 14.5571429 20.0062657 15.5515038 20.0062657 15.5515038 21 16.5634085 21 16.5634085 20.0062657 17.5571429 20.0062657"></polygon>
                    <path d="M24.5571429,20.0003666 C24.5571429,18.8953254 23.6616533,18 22.5564095,18 C21.4526324,18 20.5571429,18.8953254 20.5571429,20.0003666 C20.5571429,21.1039413 21.4526324,22 22.5564095,22 C23.6616533,22 24.5571429,21.1039413 24.5571429,20.0003666" id="Fill-17" fill="#666666"></path>
                    <path d="M23.5571429,20.5003624 C23.5571429,19.6711766 22.8859662,19 22.0575053,19 C21.2283195,19 20.5571429,19.6711766 20.5571429,20.5003624 C20.5571429,21.3280986 21.2283195,22 22.0575053,22 C22.8859662,22 23.5571429,21.3280986 23.5571429,20.5003624" id="Fill-19" fill="#C7E62E"></path>
                    <path d="M14.5571429,13.9996334 C14.5571429,12.8953254 13.6616533,12 12.5564095,12 C11.4526324,12 10.5571429,12.8953254 10.5571429,13.9996334 C10.5571429,15.1039413 11.4526324,16 12.5564095,16 C13.6616533,16 14.5571429,15.1039413 14.5571429,13.9996334" id="Fill-21" fill="#666666"></path>
                    <path d="M14.5571429,13.5 C14.5571429,12.6713388 13.8859662,12 13.0575053,12 C12.2290443,12 11.5571429,12.6713388 11.5571429,13.5 C11.5571429,14.3286612 12.2290443,15 13.0575053,15 C13.8859662,15 14.5571429,14.3286612 14.5571429,13.5" id="Fill-23" fill="#E62E2E"></path>
                </g>
            </g>
        </g>
    </g>
</svg>