<?xml version="1.0" encoding="UTF-8"?>
<svg width="20px" height="26px" viewBox="0 0 20 26" version="1.1" xmlns="http://www.w3.org/2000/svg" xmlns:xlink="http://www.w3.org/1999/xlink">
    <!-- Generator: Sketch 61.2 (89653) - https://sketch.com -->
    <title>bell (1)</title>
    <desc>Created with Sketch.</desc>
    <g id="Page-1" stroke="none" stroke-width="1" fill="none" fill-rule="evenodd">
        <g id="Desktop-Copy" transform="translate(-341.000000, -114.000000)" fill="#74E789" fill-rule="nonzero">
            <g id="MENU" transform="translate(315.000000, 105.000000)">
                <g id="bell-(1)" transform="translate(26.000000, 9.000000)">
                    <path d="M19.2252043,21.1460276 L10.7747709,21.1460276 L10.7747709,19.5776961 L19.2252538,19.5776961 C19.6531363,19.5776961 20,19.2222333 20,18.7838562 C20,13.4636144 15.9281458,9.0884538 10.7747709,8.68664611 L10.7747709,7.89468025 C10.7747709,7.45625249 10.4278578,7.10084034 10.0000247,7.10084034 C9.57214216,7.10084034 9.22527849,7.45630314 9.22527849,7.89468025 L9.22527849,8.68664611 C4.07190365,9.0884538 0,13.4636144 0,18.7838562 C0,19.222284 0.346962533,19.5776961 0.774795661,19.5776961 L9.22527849,19.5776961 L9.22527849,21.1460276 L0.774746229,21.1460276 C0.346863669,21.1460276 0,21.5014904 0,21.9398675 L0,24.7691853 C0,25.2076131 0.346913101,25.5630252 0.774746229,25.5630252 L19.2252538,25.5630252 C19.6531363,25.5630252 20,25.2075624 20,24.7691853 L20,21.9398675 C20,21.5014398 19.6531363,21.1460276 19.2252043,21.1460276 Z M1.58572604,17.9899657 C1.98310912,13.6518304 5.60513301,10.2441891 9.99997528,10.2441891 C14.3948176,10.2441891 18.0168414,13.651881 18.4142245,17.9899657 L10.0249384,17.9899657 C10.0165844,17.9897124 10.0084281,17.9886994 9.99997528,17.9886994 C9.99157186,17.9886994 9.9834156,17.9897124 9.97501217,17.9899657 L1.58572604,17.9899657 Z M18.4505075,23.9753454 L18.4505075,23.9753454 L1.54954189,23.9753454 L1.54954189,22.7337581 L18.4505075,22.7337581 L18.4505075,23.9753454 Z" id="Shape"></path>
                    <path d="M10,0 C9.60550902,0 9.28571429,0.380593907 9.28571429,0.849964135 L9.28571429,3.41054007 C9.28571429,3.87996453 9.60555459,4.2605042 10,4.2605042 C10.394491,4.2605042 10.7142857,3.8799103 10.7142857,3.41054007 L10.7142857,0.849964135 C10.7143313,0.380593907 10.394491,0 10,0 Z" id="Path"></path>
                    <path d="M5.50990105,4.2093463 L4.02726609,2.37820704 C3.75715396,2.04463443 3.32203664,2.04803487 3.05538861,2.38594031 C2.78869673,2.72379091 2.79141539,3.26802653 3.06152752,3.60159915 L4.54416248,5.4327384 C4.81418692,5.76620132 5.24934808,5.76296542 5.51603996,5.42500513 C5.78273184,5.08715454 5.78001318,4.54291891 5.50990105,4.2093463 Z" id="Path"></path>
                    <path d="M16.944596,2.38590359 C16.6779056,2.04804717 16.2427908,2.04464667 15.9726803,2.37817019 L14.4900978,4.209341 C14.2199872,4.54291936 14.2172686,5.08721921 14.4839589,5.42502078 C14.7506492,5.7628772 15.185764,5.7662777 15.4558746,5.43275418 L16.9384571,3.60158337 C17.2085677,3.26800501 17.2113301,2.72376 16.944596,2.38590359 Z" id="Path"></path>
                </g>
            </g>
        </g>
    </g>
</svg>