<?xml version="1.0" encoding="UTF-8"?>
<svg width="26px" height="26px" viewBox="0 0 26 26" version="1.1" xmlns="http://www.w3.org/2000/svg" xmlns:xlink="http://www.w3.org/1999/xlink">
    <!-- Generator: Sketch 61.2 (89653) - https://sketch.com -->
    <title>calendar</title>
    <desc>Created with Sketch.</desc>
    <g id="Page-1" stroke="none" stroke-width="1" fill="none" fill-rule="evenodd">
        <g id="Desktop-Copy" transform="translate(-534.000000, -115.000000)" fill="#74E789" fill-rule="nonzero">
            <g id="MENU" transform="translate(315.000000, 105.000000)">
                <g id="calendar" transform="translate(219.000000, 10.000000)">
                    <circle id="Oval" cx="19.8611111" cy="10.4722222" r="1.08333333"></circle>
                    <path d="M21.9375,2.03125 L20.6171875,2.03125 L20.6171875,1.015625 C20.6171875,0.454695313 20.1624922,0 19.6015625,0 C19.0406328,0 18.5859375,0.454695313 18.5859375,1.015625 L18.5859375,2.03125 L13.9648438,2.03125 L13.9648438,1.015625 C13.9648438,0.454695313 13.5101484,0 12.9492188,0 C12.3882891,0 11.9335938,0.454695313 11.9335938,1.015625 L11.9335938,2.03125 L7.36328125,2.03125 L7.36328125,1.015625 C7.36328125,0.454695313 6.90858594,0 6.34765625,0 C5.78672656,0 5.33203125,0.454695313 5.33203125,1.015625 L5.33203125,2.03125 L4.0625,2.03125 C1.8224375,2.03125 0,3.8536875 0,6.09375 L0,21.9375 C0,24.1775625 1.8224375,26 4.0625,26 L11.8320312,26 C12.3929609,26 12.8476562,25.5453047 12.8476562,24.984375 C12.8476562,24.4234453 12.3929609,23.96875 11.8320312,23.96875 L4.0625,23.96875 C2.94246875,23.96875 2.03125,23.0575313 2.03125,21.9375 L2.03125,6.09375 C2.03125,4.97371875 2.94246875,4.0625 4.0625,4.0625 L5.33203125,4.0625 L5.33203125,5.078125 C5.33203125,5.63905469 5.78672656,6.09375 6.34765625,6.09375 C6.90858594,6.09375 7.36328125,5.63905469 7.36328125,5.078125 L7.36328125,4.0625 L11.9335938,4.0625 L11.9335938,5.078125 C11.9335938,5.63905469 12.3882891,6.09375 12.9492188,6.09375 C13.5101484,6.09375 13.9648438,5.63905469 13.9648438,5.078125 L13.9648438,4.0625 L18.5859375,4.0625 L18.5859375,5.078125 C18.5859375,5.63905469 19.0406328,6.09375 19.6015625,6.09375 C20.1624922,6.09375 20.6171875,5.63905469 20.6171875,5.078125 L20.6171875,4.0625 L21.9375,4.0625 C23.0575313,4.0625 23.96875,4.97371875 23.96875,6.09375 L23.96875,11.8828125 C23.96875,12.4437422 24.4234453,12.8984375 24.984375,12.8984375 C25.5453047,12.8984375 26,12.4437422 26,11.8828125 L26,6.09375 C26,3.8536875 24.1775625,2.03125 21.9375,2.03125 Z" id="Path"></path>
                    <path d="M19.8611111,13.7222222 C16.4760973,13.7222222 13.7222222,16.4760973 13.7222222,19.8611111 C13.7222222,23.2461249 16.4760973,26 19.8611111,26 C23.2461249,26 26,23.2461249 26,19.8611111 C26,16.4760973 23.2461249,13.7222222 19.8611111,13.7222222 Z M19.8611111,23.9706152 C17.5951508,23.9706152 15.751607,22.1271221 15.751607,19.8611111 C15.751607,17.5951001 17.5951508,15.751607 19.8611111,15.751607 C22.1270714,15.751607 23.9706152,17.5951001 23.9706152,19.8611111 C23.9706152,22.1271221 22.1270714,23.9706152 19.8611111,23.9706152 Z" id="Shape"></path>
                    <path d="M21.34219,18.8045267 L20.8711755,18.8045267 L20.8711755,17.68107 C20.8711755,17.0901317 20.4025684,16.6111111 19.8244767,16.6111111 C19.2463849,16.6111111 18.7777778,17.0901317 18.7777778,17.68107 L18.7777778,19.8744856 C18.7777778,20.4654239 19.2463849,20.9444444 19.8244767,20.9444444 L21.34219,20.9444444 C21.9202818,20.9444444 22.3888889,20.4654239 22.3888889,19.8744856 C22.3888889,19.2835473 21.9202818,18.8045267 21.34219,18.8045267 Z" id="Path"></path>
                    <circle id="Oval" cx="15.5277778" cy="10.4722222" r="1.08333333"></circle>
                    <circle id="Oval" cx="10.4722222" cy="14.8055556" r="1.08333333"></circle>
                    <circle id="Oval" cx="6.13888889" cy="10.4722222" r="1.08333333"></circle>
                    <circle id="Oval" cx="6.13888889" cy="14.8055556" r="1.08333333"></circle>
                    <circle id="Oval" cx="6.13888889" cy="19.8611111" r="1.08333333"></circle>
                    <circle id="Oval" cx="10.4722222" cy="19.8611111" r="1.08333333"></circle>
                    <circle id="Oval" cx="10.4722222" cy="10.4722222" r="1.08333333"></circle>
                </g>
            </g>
        </g>
    </g>
</svg>