<?xml version="1.0" encoding="UTF-8"?>
<svg width="30px" height="33px" viewBox="0 0 30 33" version="1.1" xmlns="http://www.w3.org/2000/svg" xmlns:xlink="http://www.w3.org/1999/xlink">
    <!-- Generator: Sketch 61.2 (89653) - https://sketch.com -->
    <title>MENSAJES</title>
    <desc>Created with Sketch.</desc>
    <defs>
        <polygon id="path-1" points="0 0.0111058594 22.4650812 0.0111058594 22.4650812 22.75 0 22.75"></polygon>
    </defs>
    <g id="Page-1" stroke="none" stroke-width="1" fill="none" fill-rule="evenodd">
        <g id="Desktop-Copy" transform="translate(-1165.000000, -25.000000)">
            <g id="MENU-CABECERA" transform="translate(339.000000, 23.000000)">
                <g id="MENSAJES" transform="translate(826.000000, 2.000000)">
                    <g id="Group-7" transform="translate(0.000000, 9.000000)">
                        <g id="Group-6" transform="translate(-0.000000, 0.708333)">
                            <mask id="mask-2" fill="white">
                                <use xlink:href="#path-1"></use>
                            </mask>
                            <g id="Clip-5"></g>
                            <path d="M22.13693,8.6351332 L22.1361778,8.63528555 C22.0438101,8.24472695 21.6976568,7.9540043 21.2836568,7.9540043 C20.799002,7.9540043 20.4061132,8.35187539 20.4061132,8.84267617 C20.4061132,8.9130082 20.415039,8.98105508 20.4302331,9.04666445 L20.428127,9.04854336 C20.6121102,9.79365664 20.709994,10.5729965 20.709994,11.3750355 C20.709994,16.667102 16.4583704,20.9726918 11.232523,20.9726918 C9.4529649,20.9726918 7.7182367,20.4698051 6.21598234,19.5185199 C5.99985589,19.3817152 5.73142783,19.3447465 5.48175414,19.4261488 L2.23740022,20.484227 L3.28222871,17.1987309 C3.36140821,16.9494965 3.32801141,16.6773598 3.19086388,16.4551918 C2.2516415,14.9338871 1.75505211,13.1771605 1.75505211,11.3750355 C1.75505211,6.25379727 5.73664295,2.05682852 10.7294649,1.79109023 C10.7298661,1.79109023 10.7302171,1.79114102 10.7306182,1.79114102 C11.2153232,1.79114102 11.6082621,1.39321914 11.6082621,0.902367578 C11.6082621,0.411516016 11.2153232,0.0135433594 10.7306182,0.0135433594 L10.730518,0.0135433594 L10.7304678,0.0111058594 C4.75595036,0.276641016 -3.51017442e-05,5.25787539 -3.51017442e-05,11.3750355 C-3.51017442e-05,13.3701801 0.513854433,15.3188598 1.48958263,17.0375004 L0.042337718,21.5888207 C-0.0586550145,21.906102 0.0243355378,22.2539535 0.257060102,22.4896801 C0.487628416,22.7230707 0.830221439,22.8102113 1.14663859,22.7071254 L5.64096562,21.2415277 C7.33808481,22.2296801 9.26236243,22.7500355 11.232523,22.7500355 C17.4404671,22.7500355 22.4650812,17.662516 22.4650812,11.3750355 C22.4650812,10.4301488 22.3508501,9.5126332 22.13693,8.6351332" id="Fill-4" fill="#EEEDFF" mask="url(#mask-2)"></path>
                        </g>
                    </g>
                    <text id="12" font-family="Raleway-SemiBold, Raleway" font-size="10" font-weight="500" fill="#EEEDFF">
                        <tspan x="17.375" y="11">12</tspan>
                    </text>
                    <circle id="Oval-Copy" stroke="#74E789" stroke-width="2" cx="22" cy="8" r="7"></circle>
                </g>
            </g>
        </g>
    </g>
</svg>