<?xml version="1.0" encoding="UTF-8"?>
<svg width="31px" height="31px" viewBox="0 0 31 31" version="1.1" xmlns="http://www.w3.org/2000/svg" xmlns:xlink="http://www.w3.org/1999/xlink">
    <!-- Generator: Sketch 61.2 (89653) - https://sketch.com -->
    <title>delete</title>
    <desc>Created with Sketch.</desc>
    <g id="Page-1" stroke="none" stroke-width="1" fill="none" fill-rule="evenodd">
        <g id="modal-1" transform="translate(-1291.000000, -100.000000)" fill="#24206D" fill-rule="nonzero">
            <g id="delete" transform="translate(1291.000000, 100.000000)">
                <path d="M24.5337578,0 L6.46624217,0 C2.90071316,0 0,2.91451296 0,6.49700456 L0,24.5029954 C0,28.085487 2.90071316,31 6.46624217,31 L24.5337578,31 C28.0992079,31 31,28.085487 31,24.5029954 L31,6.49700456 C31,2.91451296 28.0992079,0 24.5337578,0 Z M28.6312974,24.5029954 C28.6312974,26.7731708 26.7931053,28.6200286 24.5336789,28.6200286 L6.46624217,28.6200286 C4.20681575,28.6200286 2.36870256,26.7731708 2.36870256,24.5029954 L2.36870256,6.49700456 C2.36870256,4.22690852 4.20681575,2.37997139 6.46624217,2.37997139 L24.5337578,2.37997139 C26.7931053,2.37997139 28.6312974,4.22682919 28.6312974,6.49700456 L28.6312974,24.5029954 L28.6312974,24.5029954 Z" id="Shape"></path>
                <path d="M22.6689557,8.37542406 C22.2253812,7.92774886 21.5039173,7.92538747 21.05738,8.37016805 L16.002575,13.4057332 L10.9452631,8.33467091 C10.5003212,7.88844303 9.77878137,7.88844303 9.33376344,8.33467091 C8.88874552,8.7808988 8.88874552,9.50432424 9.33376344,9.95055213 L14.3857576,15.0163584 L9.37433012,20.0087328 C8.92786881,20.4535134 8.92558978,21.1769388 9.36908835,21.624614 C9.59190119,21.84948 9.88460417,21.9619129 10.177535,21.9619129 C10.467883,21.9619129 10.758383,21.8513082 10.980664,21.62987 L15.9973333,16.6322396 L21.0167374,21.665291 C21.2392464,21.8884049 21.5308858,22 21.8224493,22 C22.1140127,22 22.4057281,21.8884049 22.6281611,21.665291 C23.073179,21.2190631 23.073179,20.4956377 22.6281611,20.0494098 L17.6139988,15.0216144 L22.663562,9.9912291 C23.1100993,9.54652469 23.1123783,8.82309925 22.6689557,8.37542406 Z" id="Path"></path>
            </g>
        </g>
    </g>
</svg>