<?xml version="1.0" encoding="UTF-8"?>
<svg width="21px" height="26px" viewBox="0 0 21 26" version="1.1" xmlns="http://www.w3.org/2000/svg" xmlns:xlink="http://www.w3.org/1999/xlink">
    <!-- Generator: Sketch 61.2 (89653) - https://sketch.com -->
    <title>contacts</title>
    <desc>Created with Sketch.</desc>
    <g id="Page-1" stroke="none" stroke-width="1" fill="none" fill-rule="evenodd">
        <g id="Desktop-Copy" transform="translate(-1057.000000, -115.000000)" fill="#74E789" fill-rule="nonzero">
            <g id="MENU" transform="translate(315.000000, 105.000000)">
                <g id="contacts" transform="translate(742.000000, 10.000000)">
                    <path d="M14.3126901,11.0336336 C14.015218,10.7145562 13.5324511,10.7144029 13.2348361,11.0336336 L11.8088278,12.5632636 C10.9373227,12.1705097 9.48278179,10.6137492 9.11428793,9.67302009 L10.5403439,8.14339011 C10.8379589,7.82415943 10.8379589,7.30653363 10.5403439,6.98730295 L7.57629291,3.80797383 C7.27891609,3.48894752 6.79605387,3.48874315 6.49848651,3.80797383 L4.88180071,5.54213012 C4.08007889,6.40202967 3.98200122,7.83335622 4.60562086,9.57241747 C6.40231418,14.5831334 13.1355676,19.8109445 15.6600553,17.1032062 L17.2767888,15.3690499 C17.5744037,15.0498192 17.5744037,14.5321934 17.2767888,14.2129627 L14.3126901,11.0336336 Z M14.5821537,15.947119 C14.2473368,16.3061513 13.4302293,16.2779989 12.4497384,15.8734425 C9.91629556,14.8283299 7.00549899,11.7109258 6.02819956,8.9855092 C5.65103639,7.93375447 5.62474262,7.0573518 5.95951185,6.69821729 L7.03731826,5.54213012 L8.9235152,7.56532098 L7.84575642,8.72140815 C7.5584303,9.02955159 7.33278974,9.62264214 7.88972228,10.6978487 C8.70682976,12.2754552 11.498828,15.2079017 12.6959567,13.9239281 L13.7737631,12.767841 L15.6599601,14.7910318 L14.5821537,15.947119 Z" id="Shape"></path>
                    <path d="M16.7222222,0 L4.27777778,0 C1.91902083,0 0,1.98113769 0,4.41624532 L0,17.2635044 C0,19.6986121 1.91902083,21.6797498 4.27777778,21.6797498 L7.72629861,21.6797498 L9.83305556,25.304634 C10.1339583,25.8223886 10.8641944,25.8255001 11.1668958,25.304634 L13.2737014,21.6797498 L16.7222222,21.6797498 C19.0809792,21.6797498 21,19.6986121 21,17.2635044 L21,4.41624532 C21,1.98113769 19.0810278,0 16.7222222,0 Z M19.4444444,17.2635044 C19.4444444,18.8131549 18.2232361,20.0738424 16.7222222,20.0738424 L12.8333333,20.0738424 C12.5601389,20.0738424 12.3069722,20.2218368 12.1663889,20.4637266 L10.5,23.3309237 L8.83361111,20.4637266 C8.69302778,20.221887 8.43986111,20.0738424 8.16666667,20.0738424 L4.27777778,20.0738424 C2.77676389,20.0738424 1.55555556,18.8131549 1.55555556,17.2635044 L1.55555556,4.41624532 C1.55555556,2.86659488 2.77676389,1.60590739 4.27777778,1.60590739 L16.7222222,1.60590739 C18.2232361,1.60590739 19.4444444,2.86659488 19.4444444,4.41624532 L19.4444444,17.2635044 Z" id="Shape"></path>
                </g>
            </g>
        </g>
    </g>
</svg>