<?xml version="1.0" encoding="UTF-8"?>
<svg width="14px" height="10px" viewBox="0 0 14 10" version="1.1" xmlns="http://www.w3.org/2000/svg" xmlns:xlink="http://www.w3.org/1999/xlink">
    <!-- Generator: Sketch 61.2 (89653) - https://sketch.com -->
    <title>eye 2</title>
    <desc>Created with Sketch.</desc>
    <g id="Symbols" stroke="none" stroke-width="1" fill="none" fill-rule="evenodd">
        <g id="SEGUIDORES" transform="translate(-73.000000, -38.000000)" fill="#000000" fill-rule="nonzero">
            <g id="Group-14">
                <g transform="translate(35.000000, 30.000000)">
                    <g id="eye-2" transform="translate(37.907692, 8.620690)">
                        <g id="eye" transform="translate(-0.000000, 0.000000)">
                            <path d="M13.3629081,4.04859651 C13.2427655,3.88414634 10.3801726,0.021945963 6.72412383,0.021945963 C3.06807505,0.021945963 0.205350844,3.88414634 0.0853395872,4.04843881 C-0.0284465291,4.20445227 -0.0284465291,4.41605341 0.0853395872,4.57206686 C0.205350844,4.73651703 3.06807505,8.59871741 6.72412383,8.59871741 C10.3801726,8.59871741 13.2427655,4.73649075 13.3629081,4.57219828 C13.4768518,4.4162111 13.4768518,4.20445227 13.3629081,4.04859651 Z M6.72412383,7.71146972 C4.03105441,7.71146972 1.69857036,5.14804983 1.00810507,4.31002944 C1.6976773,3.47127313 4.0252758,0.90919365 6.72412383,0.90919365 C9.41706191,0.90919365 11.7493884,3.47216674 12.4401426,4.31063394 C11.7505704,5.14936396 9.42297186,7.71146972 6.72412383,7.71146972 Z" id="Shape"></path>
                            <path d="M6.72412383,1.64857548 C5.2573546,1.64857548 4.0639925,2.84267241 4.0639925,4.31034483 C4.0639925,5.77801724 5.2573546,6.97211417 6.72412383,6.97211417 C8.19089306,6.97211417 9.38425516,5.77801724 9.38425516,4.31034483 C9.38425516,2.84267241 8.19089306,1.64857548 6.72412383,1.64857548 Z M6.72412383,6.0848402 C5.74622514,6.0848402 4.95072045,5.28881939 4.95072045,4.31034483 C4.95072045,3.33187027 5.74625141,2.53584945 6.72412383,2.53584945 C7.70199625,2.53584945 8.4975272,3.33187027 8.4975272,4.31034483 C8.4975272,5.28881939 7.70202251,6.0848402 6.72412383,6.0848402 Z" id="Shape"></path>
                        </g>
                    </g>
                </g>
            </g>
        </g>
    </g>
</svg>