<?xml version="1.0" encoding="UTF-8"?>
<svg width="46px" height="46px" viewBox="0 0 46 46" version="1.1" xmlns="http://www.w3.org/2000/svg" xmlns:xlink="http://www.w3.org/1999/xlink">
    <!-- Generator: Sketch 61.2 (89653) - https://sketch.com -->
    <title>Group 131</title>
    <desc>Created with Sketch.</desc>
    <defs>
        <polygon id="path-1" points="0.339498039 0.344012138 23.1663216 0.344012138 23.1663216 22.8979292 0.339498039 22.8979292"></polygon>
        <polygon id="path-3" points="0.0629568627 0.344012138 22.8888784 0.344012138 22.8888784 22.8980183 0.0629568627 22.8980183"></polygon>
        <polygon id="path-5" points="0.0625960784 0.0694638655 22.8885176 0.0694638655 22.8885176 22.624183 0.0625960784 22.624183"></polygon>
        <polygon id="path-7" points="0.339227451 0.0698203548 23.166051 0.0698203548 23.166051 22.624183 0.339227451 22.624183"></polygon>
        <path d="M0.276701016,0.341461538 L0.276701016,22.7284231 L23.0851567,22.7284231 C23.0851567,10.3641538 12.8742583,0.341461538 0.276701016,0.341461538 Z" id="path-9"></path>
        <path d="M0.276701016,0.341461538 L0.276701016,22.7284231 L23.0851567,22.7284231" id="path-11"></path>
        <path d="M0.276701016,0.341461538 L0.276701016,22.7284231 L23.0851567,22.7284231" id="path-13"></path>
        <path d="M0.276701016,0.341461538 L0.276701016,22.7284231 L23.0851567,22.7284231" id="path-15"></path>
        <path d="M0.276701016,0.341461538 L0.276701016,22.7284231 L23.0851567,22.7284231 C23.0851567,10.3641538 12.8742583,0.341461538 0.276701016,0.341461538 Z" id="path-17"></path>
        <path d="M0.276701016,0.341461538 L0.276701016,22.7284231 L23.0851567,22.7284231 C23.0851567,10.3641538 12.8742583,0.341461538 0.276701016,0.341461538 Z" id="path-19"></path>
        <path d="M0.276701016,0.341461538 L0.276701016,22.7284231 L23.0851567,22.7284231 C23.0851567,10.3641538 12.8742583,0.341461538 0.276701016,0.341461538 Z" id="path-21"></path>
        <path d="M22.5002872,0.341461538 C10.0734284,0.341461538 0.000889093419,10.3641538 0.000889093419,22.7284231 L0.000889093419,22.7284231 L22.5002872,22.7284231" id="path-23"></path>
        <path d="M22.5002872,0.341461538 C10.0734284,0.341461538 0.000889093419,10.3641538 0.000889093419,22.7284231 L0.000889093419,22.7284231 L22.5002872,22.7284231" id="path-25"></path>
        <path d="M22.5002872,0.341461538 C10.0734284,0.341461538 0.000889093419,10.3641538 0.000889093419,22.7284231 L0.000889093419,22.7284231 L22.5002872,22.7284231" id="path-27"></path>
        <path d="M22.5002872,0.341461538 C10.0734284,0.341461538 0.000889093419,10.3641538 0.000889093419,22.7284231 L0.000889093419,22.7284231 L22.5002872,22.7284231" id="path-29"></path>
        <path d="M22.5002872,0.341461538 C10.0734284,0.341461538 0.000889093419,10.3641538 0.000889093419,22.7284231 L0.000889093419,22.7284231 L22.5002872,22.7284231" id="path-31"></path>
        <path d="M0.000889093419,0.0708253968 C0.000889093419,12.5432346 10.0734284,22.6552028 22.5002872,22.6552028 L22.5002872,22.6552028 L22.5002872,0.0708253968 L0.000889093419,0.0708253968 Z" id="path-33"></path>
        <path d="M0.000889093419,0.0708253968 C0.000889093419,12.5432346 10.0734284,22.6552028 22.5002872,22.6552028 L22.5002872,22.6552028 L22.5002872,0.0708253968" id="path-35"></path>
        <path d="M0.000889093419,0.0708253968 C0.000889093419,12.5432346 10.0734284,22.6552028 22.5002872,22.6552028 L22.5002872,22.6552028 L22.5002872,0.0708253968" id="path-37"></path>
        <path d="M0.000889093419,0.0708253968 C0.000889093419,12.5432346 10.0734284,22.6552028 22.5002872,22.6552028 L22.5002872,22.6552028 L22.5002872,0.0708253968 L0.000889093419,0.0708253968 Z" id="path-39"></path>
        <path d="M0.000889093419,0.0708253968 C0.000889093419,12.5432346 10.0734284,22.6552028 22.5002872,22.6552028 L22.5002872,22.6552028 L22.5002872,0.0708253968" id="path-41"></path>
        <path d="M0.000889093419,0.0708253968 C0.000889093419,12.5432346 10.0734284,22.6552028 22.5002872,22.6552028 L22.5002872,22.6552028 L22.5002872,0.0708253968" id="path-43"></path>
        <path d="M0.000889093419,0.0708253968 C0.000889093419,12.5432346 10.0734284,22.6552028 22.5002872,22.6552028 L22.5002872,22.6552028 L22.5002872,0.0708253968 L0.000889093419,0.0708253968 Z" id="path-45"></path>
        <path d="M0.000889093419,0.0708253968 C0.000889093419,12.5432346 10.0734284,22.6552028 22.5002872,22.6552028 L22.5002872,22.6552028 L22.5002872,0.0708253968" id="path-47"></path>
        <path d="M0.000889093419,0.0708253968 C0.000889093419,12.5432346 10.0734284,22.6552028 22.5002872,22.6552028 L22.5002872,22.6552028 L22.5002872,0.0708253968" id="path-49"></path>
        <path d="M0.000889093419,0.0708253968 C0.000889093419,12.5432346 10.0734284,22.6552028 22.5002872,22.6552028 L22.5002872,22.6552028 L22.5002872,0.0708253968 L0.000889093419,0.0708253968 Z" id="path-51"></path>
        <path d="M0.000889093419,0.0708253968 C0.000889093419,12.5432346 10.0734284,22.6552028 22.5002872,22.6552028 L22.5002872,22.6552028 L22.5002872,0.0708253968" id="path-53"></path>
        <path d="M0.000889093419,0.0708253968 C0.000889093419,12.5432346 10.0734284,22.6552028 22.5002872,22.6552028 L22.5002872,22.6552028 L22.5002872,0.0708253968" id="path-55"></path>
        <path d="M0.000889093419,0.0708253968 C0.000889093419,12.5432346 10.0734284,22.6552028 22.5002872,22.6552028 L22.5002872,22.6552028 L22.5002872,0.0708253968 L0.000889093419,0.0708253968 Z" id="path-57"></path>
        <path d="M0.000889093419,0.0708253968 C0.000889093419,12.5432346 10.0734284,22.6552028 22.5002872,22.6552028 L22.5002872,22.6552028 L22.5002872,0.0708253968" id="path-59"></path>
        <path d="M0.000889093419,0.0708253968 C0.000889093419,12.5432346 10.0734284,22.6552028 22.5002872,22.6552028 L22.5002872,22.6552028 L22.5002872,0.0708253968" id="path-61"></path>
        <path d="M0.000889093419,0.0708253968 C0.000889093419,12.5432346 10.0734284,22.6552028 22.5002872,22.6552028 L22.5002872,22.6552028 L22.5002872,0.0708253968 L0.000889093419,0.0708253968 Z" id="path-63"></path>
        <path d="M0.000889093419,0.0708253968 C0.000889093419,12.5432346 10.0734284,22.6552028 22.5002872,22.6552028 L22.5002872,22.6552028 L22.5002872,0.0708253968" id="path-65"></path>
        <path d="M0.000889093419,0.0708253968 C0.000889093419,12.5432346 10.0734284,22.6552028 22.5002872,22.6552028 L22.5002872,22.6552028 L22.5002872,0.0708253968" id="path-67"></path>
        <path d="M0.000889093419,0.0708253968 C0.000889093419,12.5432346 10.0734284,22.6552028 22.5002872,22.6552028 L22.5002872,22.6552028 L22.5002872,0.0708253968 L0.000889093419,0.0708253968 Z" id="path-69"></path>
        <path d="M0.276701016,0.0708253968 L0.276701016,22.6552028 C12.8742583,22.6552028 23.0851567,12.5432346 23.0851567,0.0708253968 L23.0851567,0.0708253968" id="path-71"></path>
        <path d="M0.276701016,0.0708253968 L0.276701016,22.6552028 C12.8742583,22.6552028 23.0851567,12.5432346 23.0851567,0.0708253968 L23.0851567,0.0708253968" id="path-73"></path>
        <path d="M0.276701016,0.0708253968 L0.276701016,22.6552028 C12.8742583,22.6552028 23.0851567,12.5432346 23.0851567,0.0708253968 L23.0851567,0.0708253968" id="path-75"></path>
        <path d="M0.276701016,0.0708253968 L0.276701016,22.6552028 C12.8742583,22.6552028 23.0851567,12.5432346 23.0851567,0.0708253968 L23.0851567,0.0708253968" id="path-77"></path>
        <path d="M0.276701016,0.0708253968 L0.276701016,22.6552028 C12.8742583,22.6552028 23.0851567,12.5432346 23.0851567,0.0708253968 L23.0851567,0.0708253968" id="path-79"></path>
        <path d="M0.276701016,0.0708253968 L0.276701016,22.6552028 C12.8742583,22.6552028 23.0851567,12.5432346 23.0851567,0.0708253968 L23.0851567,0.0708253968" id="path-81"></path>
        <path d="M0.276701016,0.0708253968 L0.276701016,22.6552028 C12.8742583,22.6552028 23.0851567,12.5432346 23.0851567,0.0708253968 L23.0851567,0.0708253968" id="path-83"></path>
    </defs>
    <g id="Symbols" stroke="none" stroke-width="1" fill="none" fill-rule="evenodd">
        <g id="SEGUIDORES">
            <g id="Group-131">
                <g>
                    <g id="Group-13">
                        <g id="Group-3" transform="translate(22.549020, 0.000000)">
                            <mask id="mask-2" fill="white">
                                <use xlink:href="#path-1"></use>
                            </mask>
                            <g id="Clip-2"></g>
                            <path d="M0.339498039,0.343744771 C12.9462039,0.343744771 23.1663216,10.4421944 23.1663216,22.8979292 L0.339498039,22.8979292 L0.339498039,0.343744771 Z" id="Fill-1" fill="#87B23D" mask="url(#mask-2)"></path>
                        </g>
                        <g id="Group-6">
                            <mask id="mask-4" fill="white">
                                <use xlink:href="#path-3"></use>
                            </mask>
                            <g id="Clip-5"></g>
                            <path d="M0.0629568627,22.8980183 C0.0629568627,10.4413923 10.2821725,0.343833894 22.8888784,0.343833894 L22.8888784,22.8980183 L0.0629568627,22.8980183 Z" id="Fill-4" fill="#E8E821" mask="url(#mask-4)"></path>
                        </g>
                        <g id="Group-9" transform="translate(0.000000, 22.828198)">
                            <mask id="mask-6" fill="white">
                                <use xlink:href="#path-5"></use>
                            </mask>
                            <g id="Clip-8"></g>
                            <path d="M22.8885176,22.6245395 C10.2818118,22.6245395 0.0625960784,12.5260899 0.0625960784,0.0694638655 L22.8885176,0.0694638655 L22.8885176,22.6245395 Z" id="Fill-7" fill="#364FCC" mask="url(#mask-6)"></path>
                        </g>
                        <g id="Group-12" transform="translate(22.549020, 22.828198)">
                            <mask id="mask-8" fill="white">
                                <use xlink:href="#path-7"></use>
                            </mask>
                            <g id="Clip-11"></g>
                            <path d="M23.166051,0.0698203548 C23.166051,12.5264464 12.9459333,22.624896 0.339227451,22.624896 L0.339227451,0.0698203548 L23.166051,0.0698203548 Z" id="Fill-10" fill="#C9003E" mask="url(#mask-8)"></path>
                        </g>
                    </g>
                    <g id="Group-34" transform="translate(22.566038, 0.000000)">
                        <g id="Group-16">
                            <mask id="mask-10" fill="white">
                                <use xlink:href="#path-9"></use>
                            </mask>
                            <g id="Clip-15"></g>
                            <polygon id="Fill-14" fill="#470500" mask="url(#mask-10)" points="15.1624045 11.6281808 3.45623904 11.6281808 5.00378186 28.4854115 13.6130591 28.4854115"></polygon>
                        </g>
                        <g id="Group-19">
                            <mask id="mask-12" fill="white">
                                <use xlink:href="#path-11"></use>
                            </mask>
                            <g id="Clip-18"></g>
                            <path d="M12.4189184,19.0585077 C12.4189184,17.3573923 11.0128807,15.9782769 9.2796688,15.9782769 C7.54645689,15.9782769 6.13951785,17.3573923 6.13951785,19.0585077 C6.13951785,20.7605077 7.54645689,22.1396231 9.2796688,22.1396231 C11.0128807,22.1396231 12.4189184,20.7605077 12.4189184,19.0585077" id="Fill-17" fill="#FF9500" mask="url(#mask-12)"></path>
                        </g>
                        <g id="Group-22">
                            <mask id="mask-14" fill="white">
                                <use xlink:href="#path-13"></use>
                            </mask>
                            <g id="Clip-21"></g>
                            <path d="M11.7402348,19.0585077 C11.7402348,17.7245077 10.6388386,16.6435077 9.2796688,16.6435077 C7.92049898,16.6435077 6.81820145,17.7245077 6.81820145,19.0585077 C6.81820145,20.3925077 7.92049898,21.4735077 9.2796688,21.4735077 C10.6388386,21.4735077 11.7402348,20.3925077 11.7402348,19.0585077" id="Fill-20" fill="#470500" mask="url(#mask-14)"></path>
                        </g>
                        <g id="Group-25">
                            <mask id="mask-16" fill="white">
                                <use xlink:href="#path-15"></use>
                            </mask>
                            <g id="Clip-24"></g>
                            <path d="M11.3098611,19.0585077 C11.3098611,17.9580462 10.4004431,17.0654692 9.27921814,17.0654692 C8.15799318,17.0654692 7.24857518,17.9580462 7.24857518,19.0585077 C7.24857518,20.1589692 8.15799318,21.0515462 9.27921814,21.0515462 C10.4004431,21.0515462 11.3098611,20.1589692 11.3098611,19.0585077" id="Fill-23" fill="#FF9500" mask="url(#mask-16)"></path>
                        </g>
                        <g id="Group-28">
                            <mask id="mask-18" fill="white">
                                <use xlink:href="#path-17"></use>
                            </mask>
                            <g id="Clip-27"></g>
                            <polygon id="Fill-26" fill="#B99C62" mask="url(#mask-18)" points="15.3578077 9.85470385 3.26047533 9.85470385 2.74402685 11.1506654 15.8733549 11.1506654"></polygon>
                        </g>
                        <g id="Group-31">
                            <mask id="mask-20" fill="white">
                                <use xlink:href="#path-19"></use>
                            </mask>
                            <g id="Clip-30"></g>
                            <polygon id="Fill-29" fill="#FFFFFF" mask="url(#mask-20)" points="13.2181067 8.03965 5.40017634 8.03965 3.85083091 9.85488077 14.7665508 9.85488077"></polygon>
                        </g>
                        <mask id="mask-22" fill="white">
                            <use xlink:href="#path-21"></use>
                        </mask>
                        <g id="Clip-33"></g>
                        <polygon id="Fill-32" fill="#FFFFFF" mask="url(#mask-22)" points="2.7444775 11.9237308 15.8738055 11.9237308 15.8738055 11.1505769 2.7444775 11.1505769"></polygon>
                    </g>
                    <g id="Group-50">
                        <g id="Group-37">
                            <mask id="mask-24" fill="white">
                                <use xlink:href="#path-23"></use>
                            </mask>
                            <g id="Clip-36"></g>
                            <path d="M13.4748331,8.13377308 C9.6695133,8.13377308 6.58347004,11.2033885 6.58347004,14.9904269 L6.58347004,26.3975423 C6.58347004,26.3975423 9.16806461,24.7981577 10.0295961,24.7981577 C10.8911277,24.7981577 12.6133016,26.3975423 13.4748331,26.3975423 C14.3363647,26.3975423 16.0594277,24.7981577 16.9200701,24.7981577 C17.7816017,24.7981577 20.3661962,26.3975423 20.3661962,26.3975423 L20.3661962,14.9904269 C20.3661962,11.2033885 17.280153,8.13377308 13.4748331,8.13377308" id="Fill-35" fill="#E62E2E" mask="url(#mask-24)"></path>
                        </g>
                        <g id="Group-40">
                            <mask id="mask-26" fill="white">
                                <use xlink:href="#path-25"></use>
                            </mask>
                            <g id="Clip-39"></g>
                            <path d="M19.7705925,15.6534462 C19.7705925,14.1319077 18.6921222,12.8978692 17.3620385,12.8978692 C16.0319547,12.8978692 14.9534844,14.1319077 14.9534844,15.6534462 C14.9534844,17.1732154 16.0319547,18.4072538 17.3620385,18.4072538 C18.6921222,18.4072538 19.7705925,17.1732154 19.7705925,15.6534462" id="Fill-38" fill="#FFFFFF" mask="url(#mask-26)"></path>
                        </g>
                        <g id="Group-43">
                            <mask id="mask-28" fill="white">
                                <use xlink:href="#path-27"></use>
                            </mask>
                            <g id="Clip-42"></g>
                            <path d="M19.3781467,15.6534462 C19.3781467,14.7511385 18.7388885,14.0195615 17.9511518,14.0195615 C17.1616368,14.0195615 16.5223786,14.7511385 16.5223786,15.6534462 C16.5223786,16.5539846 17.1616368,17.2864462 17.9511518,17.2864462 C18.7388885,17.2864462 19.3781467,16.5539846 19.3781467,15.6534462" id="Fill-41" fill="#262626" mask="url(#mask-28)"></path>
                        </g>
                        <g id="Group-46">
                            <mask id="mask-30" fill="white">
                                <use xlink:href="#path-29"></use>
                            </mask>
                            <g id="Clip-45"></g>
                            <path d="M13.9193798,15.6534462 C13.9193798,14.1319077 12.8409095,12.8978692 11.5099367,12.8978692 C10.1798529,12.8978692 9.1013826,14.1319077 9.1013826,15.6534462 C9.1013826,17.1732154 10.1798529,18.4072538 11.5099367,18.4072538 C12.8409095,18.4072538 13.9193798,17.1732154 13.9193798,15.6534462" id="Fill-44" fill="#FFFFFF" mask="url(#mask-30)"></path>
                        </g>
                        <g id="Group-49">
                            <mask id="mask-32" fill="white">
                                <use xlink:href="#path-31"></use>
                            </mask>
                            <g id="Clip-48"></g>
                            <path d="M13.5260449,15.6534462 C13.5260449,14.7511385 12.8867867,14.0195615 12.09905,14.0195615 C11.309535,14.0195615 10.6702769,14.7511385 10.6702769,15.6534462 C10.6702769,16.5539846 11.309535,17.2864462 12.09905,17.2864462 C12.8867867,17.2864462 13.5260449,16.5539846 13.5260449,15.6534462" id="Fill-47" fill="#262626" mask="url(#mask-32)"></path>
                        </g>
                    </g>
                    <g id="Group-108" transform="translate(0.000000, 22.148148)">
                        <g id="Group-53">
                            <mask id="mask-34" fill="white">
                                <use xlink:href="#path-33"></use>
                            </mask>
                            <g id="Clip-52"></g>
                            <path d="M27.1533576,14.7292974 C27.1533576,14.8899323 27.0235499,15.0193326 26.8644022,15.0193326 C26.8644022,15.0193326 24.6381123,15.8314314 22.4340497,15.8314314 L8.78113116,15.8314314 C8.62109434,15.8314314 8.4912867,15.702031 8.4912867,15.5413961 L8.4912867,14.4919146 C8.4912867,14.3321721 8.62109434,14.2018794 8.78113116,14.2018794 L22.389595,14.2018794 C24.3909443,14.2018794 26.5941178,13.3897806 26.5941178,13.3897806 C26.7541546,13.3897806 26.8830732,13.5200734 26.8830732,13.6798159 L27.1533576,14.7292974 Z" id="Fill-51" fill="#D8C191" mask="url(#mask-34)"></path>
                        </g>
                        <g id="Group-56">
                            <mask id="mask-36" fill="white">
                                <use xlink:href="#path-35"></use>
                            </mask>
                            <g id="Clip-55"></g>
                            <path d="M22.749589,11.9039076 C18.2232144,11.0177383 16.4085747,7.59978413 15.7221946,4.6833679 L15.7221946,4.68693757 C15.7213055,4.68158307 15.7204164,4.67712099 15.7195273,4.67176649 C15.5612687,3.99888466 15.4625793,3.35277531 15.4056773,2.77181235 C15.2349714,2.39253545 14.8846686,2.27027443 14.0089116,2.36397813 C13.4523391,2.4005672 14.0080225,4.06849312 14.3796635,4.68693757 C12.7463989,4.5236254 10.8366262,4.99839083 9.74570861,4.15059541 C9.15623967,3.69367831 9.0175411,3.81236966 9.01576291,4.04082822 C9.03354478,4.1550575 9.05310483,4.27196402 9.07177579,4.39065538 C9.09489222,4.47900459 9.11623046,4.55218272 9.11889775,4.5843097 C9.11978684,4.59144903 9.11534137,4.59680353 9.10556134,4.59858836 C9.38740396,6.32898342 9.71547943,8.44311746 9.12156503,9.46671887 C8.17645872,11.0918088 8.78104225,13.79583 8.78104225,13.79583 L22.3895061,13.79583 C24.8451821,13.79583 26.3210772,12.9828388 26.5940289,12.9828388 C27.1097031,12.3010328 24.4584265,11.5433714 22.749589,11.9039076" id="Fill-54" fill="#9FB1D5" mask="url(#mask-36)"></path>
                        </g>
                        <g id="Group-59">
                            <mask id="mask-38" fill="white">
                                <use xlink:href="#path-37"></use>
                            </mask>
                            <g id="Clip-58"></g>
                            <path d="M22.749589,11.9039076 C18.2232144,11.0177383 16.4085747,7.59978413 15.7221946,4.6833679 L15.7221946,4.68693757 C15.7213055,4.68158307 15.7204164,4.67712099 15.7195273,4.67176649 C15.5612687,3.99888466 15.4625793,3.35277531 15.4056773,2.77181235 C15.2349714,2.39253545 14.8846686,2.27027443 14.0089116,2.36397813 C13.4523391,2.4005672 14.0080225,4.06849312 14.3796635,4.68693757 C12.7463989,4.5236254 10.8366262,4.99839083 9.74570861,4.15059541 C9.15623967,3.69367831 9.0175411,3.81236966 9.01576291,4.04082822 C9.03354478,4.1550575 9.05310483,4.27196402 9.07177579,4.39065538 C9.09489222,4.47900459 9.11623046,4.55218272 9.11889775,4.5843097 C9.11978684,4.59144903 9.11534137,4.59680353 9.10556134,4.59858836 C9.38740396,6.32898342 9.71547943,8.44311746 9.12156503,9.46671887 C8.17645872,11.0918088 8.78104225,13.79583 8.78104225,13.79583 L22.3895061,13.79583 C23.12123,13.79583 23.7640445,13.7226519 24.3152825,13.6218088 C24.3126152,13.6075302 24.0040998,12.2358864 22.749589,11.9039076" id="Fill-57" fill="#FF6B00" mask="url(#mask-38)"></path>
                        </g>
                        <g id="Group-62">
                            <mask id="mask-40" fill="white">
                                <use xlink:href="#path-39"></use>
                            </mask>
                            <g id="Clip-61"></g>
                            <path d="M27.1533576,14.3222663 C27.1533576,14.4829012 27.0235499,14.613194 26.8644022,14.613194 C26.8644022,14.613194 24.6381123,15.4252928 22.4340497,15.4252928 L8.78113116,15.4252928 C8.62109434,15.4252928 8.4912867,15.2958924 8.4912867,15.1352575 L8.4912867,14.085776 C8.4912867,13.9260335 8.62109434,13.7957407 8.78113116,13.7957407 L22.389595,13.7957407 C24.3909443,13.7957407 26.5941178,12.9827496 26.5941178,12.9827496 C26.7541546,12.9827496 26.8830732,13.1139347 26.8830732,13.2736772 L27.1533576,14.3222663 Z" id="Fill-60" fill="#FFFFFF" mask="url(#mask-40)"></path>
                        </g>
                        <g id="Group-65">
                            <mask id="mask-42" fill="white">
                                <use xlink:href="#path-41"></use>
                            </mask>
                            <g id="Clip-64"></g>
                            <path d="M21.3099689,12.5112861 C21.3642036,12.3006758 21.2379523,12.0838187 21.0281263,12.0302737 C20.8174111,11.9749439 20.6031396,12.1025594 20.5489049,12.3131697 C20.4937811,12.5246723 20.6209215,12.7397446 20.8298584,12.794182 C21.0396845,12.8495118 21.2548451,12.7218963 21.3099689,12.5112861" id="Fill-63" fill="#FFFFFF" mask="url(#mask-42)"></path>
                        </g>
                        <g id="Group-68">
                            <mask id="mask-44" fill="white">
                                <use xlink:href="#path-43"></use>
                            </mask>
                            <g id="Clip-67"></g>
                            <path d="M21.1406855,12.4668437 C21.1709147,12.3499372 21.1006763,12.2303534 20.983316,12.2000113 C20.8668447,12.1696691 20.7477062,12.24017 20.7165879,12.3570765 C20.6863588,12.4748755 20.7565971,12.5944593 20.8739575,12.6248014 C20.9904287,12.6551436 21.1104563,12.5846427 21.1406855,12.4668437" id="Fill-66" fill="#590600" mask="url(#mask-44)"></path>
                        </g>
                        <g id="Group-71">
                            <mask id="mask-46" fill="white">
                                <use xlink:href="#path-45"></use>
                            </mask>
                            <g id="Clip-70"></g>
                            <path d="M21.4411102,11.3017051 C21.4713393,11.1839062 21.4019901,11.0643224 21.2846297,11.0330878 C21.1681585,11.0036381 21.04902,11.074139 21.0179017,11.1910455 L20.7725119,12.1450384 C20.7422827,12.261945 20.811632,12.3824212 20.9289924,12.4118709 C21.0463527,12.4422131 21.1646021,12.3717122 21.1957204,12.2548056 L21.4411102,11.3017051 Z" id="Fill-69" fill="#FFFFFF" mask="url(#mask-46)"></path>
                        </g>
                        <g id="Group-74">
                            <mask id="mask-48" fill="white">
                                <use xlink:href="#path-47"></use>
                            </mask>
                            <g id="Clip-73"></g>
                            <path d="M19.6221139,11.8498272 C19.7314724,11.6606349 19.6674577,11.4196825 19.479859,11.3108078 C19.2922603,11.2001481 19.0504269,11.2644021 18.9419575,11.4527019 C18.832599,11.6418942 18.8975028,11.8828466 19.0851015,11.9926138 C19.2718111,12.102381 19.5127555,12.0372346 19.6221139,11.8498272" id="Fill-72" fill="#FFFFFF" mask="url(#mask-48)"></path>
                        </g>
                        <g id="Group-77">
                            <mask id="mask-50" fill="white">
                                <use xlink:href="#path-49"></use>
                            </mask>
                            <g id="Clip-76"></g>
                            <path d="M19.471057,11.7618349 C19.5315153,11.6565298 19.4959516,11.521775 19.3919277,11.4619831 C19.2879037,11.4012988 19.1536506,11.4369954 19.0931923,11.5414081 C19.0327339,11.6458208 19.0682977,11.7805757 19.1723216,11.8403675 C19.2763455,11.9010519 19.4105986,11.8662476 19.471057,11.7618349" id="Fill-75" fill="#590600" mask="url(#mask-50)"></path>
                        </g>
                        <g id="Group-80">
                            <mask id="mask-52" fill="white">
                                <use xlink:href="#path-51"></use>
                            </mask>
                            <g id="Clip-79"></g>
                            <path d="M20.0735956,10.7203852 C20.1340539,10.6150801 20.0993793,10.4803252 19.9944663,10.4196409 C19.8904423,10.359849 19.7570783,10.3946533 19.6957309,10.499066 L19.2031731,11.3513235 C19.1418257,11.4557362 19.1773894,11.590491 19.2814133,11.6511753 C19.3872155,11.7118596 19.5205795,11.676163 19.5801487,11.5717503 L20.0735956,10.7203852 Z" id="Fill-78" fill="#FFFFFF" mask="url(#mask-52)"></path>
                        </g>
                        <g id="Group-83">
                            <mask id="mask-54" fill="white">
                                <use xlink:href="#path-53"></use>
                            </mask>
                            <g id="Clip-82"></g>
                            <path d="M17.9958732,10.8414861 C18.1532427,10.6915601 18.1594664,10.4416836 18.0100987,10.2837259 C17.8598419,10.1248758 17.6100066,10.1195213 17.4535262,10.2694473 C17.2961566,10.4202656 17.289933,10.6701422 17.4401898,10.8272074 C17.5895575,10.9860575 17.8385036,10.991412 17.9958732,10.8414861" id="Fill-81" fill="#FFFFFF" mask="url(#mask-54)"></path>
                        </g>
                        <g id="Group-86">
                            <mask id="mask-56" fill="white">
                                <use xlink:href="#path-55"></use>
                            </mask>
                            <g id="Clip-85"></g>
                            <path d="M17.8751343,10.7143168 C17.9631545,10.631322 17.9667109,10.4921051 17.8831361,10.4046483 C17.7995613,10.3171915 17.6617519,10.3136219 17.5737316,10.397509 C17.4866005,10.4805037 17.4830441,10.6197206 17.5657298,10.7071774 C17.6493046,10.7946342 17.787114,10.7990963 17.8751343,10.7143168" id="Fill-84" fill="#590600" mask="url(#mask-56)"></path>
                        </g>
                        <g id="Group-89">
                            <mask id="mask-58" fill="white">
                                <use xlink:href="#path-57"></use>
                            </mask>
                            <g id="Clip-88"></g>
                            <path d="M18.744312,9.88463739 C18.8323323,9.79985785 18.8358886,9.66153333 18.7523139,9.57318413 C18.6687391,9.48661975 18.5309296,9.48215767 18.4429093,9.5660448 L17.7316346,10.246066 C17.6445035,10.3290607 17.6418362,10.4673852 17.725411,10.5557344 C17.8072075,10.6440836 17.9467952,10.6467608 18.0330373,10.5637661 L18.744312,9.88463739 Z" id="Fill-87" fill="#FFFFFF" mask="url(#mask-58)"></path>
                        </g>
                        <g id="Group-92">
                            <mask id="mask-60" fill="white">
                                <use xlink:href="#path-59"></use>
                            </mask>
                            <g id="Clip-91"></g>
                            <path d="M16.6726354,9.35998589 C16.858456,9.24754145 16.9180252,9.00480423 16.8059994,8.81828924 C16.6939737,8.63177425 16.4521403,8.57108995 16.2663197,8.68442681 C16.0804992,8.79597884 16.02093,9.03960847 16.1329557,9.22612346 C16.2458706,9.41263845 16.4868149,9.47243034 16.6726354,9.35998589" id="Fill-90" fill="#FFFFFF" mask="url(#mask-60)"></path>
                        </g>
                        <g id="Group-95">
                            <mask id="mask-62" fill="white">
                                <use xlink:href="#path-61"></use>
                            </mask>
                            <g id="Clip-94"></g>
                            <path d="M16.5823035,9.21005996 C16.6854384,9.14669841 16.7183348,9.01283598 16.6560983,8.90842328 C16.5947509,8.804903 16.4596087,8.7718836 16.3564738,8.83435273 C16.253339,8.89682187 16.2204425,9.03157672 16.2826791,9.13598942 C16.3449156,9.23861728 16.4791687,9.27163668 16.5823035,9.21005996" id="Fill-93" fill="#590600" mask="url(#mask-62)"></path>
                        </g>
                        <g id="Group-98">
                            <mask id="mask-64" fill="white">
                                <use xlink:href="#path-63"></use>
                            </mask>
                            <g id="Clip-97"></g>
                            <path d="M17.6103623,8.58697496 C17.7134971,8.52539824 17.7463936,8.38975097 17.684157,8.28623069 C17.6219205,8.18271041 17.4876674,8.14969101 17.3845325,8.21126772 L16.5443393,8.72083739 C16.4403153,8.78330653 16.4065298,8.91806138 16.4696554,9.02247407 C16.5318919,9.12599436 16.6661451,9.15990617 16.770169,9.09654462 L17.6103623,8.58697496 Z" id="Fill-96" fill="#FFFFFF" mask="url(#mask-64)"></path>
                        </g>
                        <g id="Group-101">
                            <mask id="mask-66" fill="white">
                                <use xlink:href="#path-65"></use>
                            </mask>
                            <g id="Clip-100"></g>
                            <path d="M15.6567573,7.50277848 C15.8568033,7.41799894 15.9501581,7.18686314 15.8648052,6.98606949 C15.7803413,6.78527584 15.5500661,6.69157213 15.349131,6.77724409 C15.149974,6.86113122 15.0566192,7.09315944 15.1410831,7.29395309 C15.2264361,7.49385432 15.4567113,7.58845044 15.6567573,7.50277848" id="Fill-99" fill="#FFFFFF" mask="url(#mask-66)"></path>
                        </g>
                        <g id="Group-104">
                            <mask id="mask-68" fill="white">
                                <use xlink:href="#path-67"></use>
                            </mask>
                            <g id="Clip-103"></g>
                            <path d="M15.5890973,7.34160811 C15.700234,7.29431005 15.7518014,7.16580212 15.7046794,7.05425009 C15.6566684,6.94269806 15.529528,6.8900455 15.4183913,6.93734356 C15.3072547,6.98553404 15.2547982,7.11314956 15.3019201,7.225594 C15.3490421,7.33714603 15.4779606,7.38979859 15.5890973,7.34160811" id="Fill-102" fill="#590600" mask="url(#mask-68)"></path>
                        </g>
                        <g id="Group-107">
                            <mask id="mask-70" fill="white">
                                <use xlink:href="#path-69"></use>
                            </mask>
                            <g id="Clip-106"></g>
                            <path d="M16.6934402,6.8709478 C16.8045769,6.82364974 16.8570334,6.69603422 16.8099115,6.58448219 C16.7619004,6.47293016 16.6347601,6.4202776 16.5227343,6.46757566 L15.6194154,6.85220705 C15.5082787,6.89950511 15.4558222,7.02801305 15.5029441,7.13956508 C15.5500661,7.25111711 15.6780955,7.30287725 15.7892322,7.2564716 L16.6934402,6.8709478 Z" id="Fill-105" fill="#FFFFFF" mask="url(#mask-70)"></path>
                        </g>
                    </g>
                    <g id="Group-130" transform="translate(22.566038, 22.148148)">
                        <g id="Group-111">
                            <mask id="mask-72" fill="white">
                                <use xlink:href="#path-71"></use>
                            </mask>
                            <g id="Clip-110"></g>
                            <path d="M9.56006517,6.9241358 C10.6677705,7.2757478 11.7213975,7.57470723 12.6461377,7.86206526 L12.6461377,12.0608836 C11.505084,12.2152716 10.1504208,12.1313845 8.69571248,11.6708977 C4.96881118,10.490231 2.58665878,5.4882381 2.65966459,5.26334921 C2.86155718,4.63687302 5.83406517,5.74436155 9.56006517,6.9241358" id="Fill-109" fill="#A0C000" mask="url(#mask-72)"></path>
                        </g>
                        <g id="Group-114">
                            <mask id="mask-74" fill="white">
                                <use xlink:href="#path-73"></use>
                            </mask>
                            <g id="Clip-113"></g>
                            <path d="M4.96547634,6.24000952 C8.77710044,7.11725467 11.5612354,10.4629231 11.507157,10.6931665 C11.4107173,11.1045704 10.0785866,10.9010995 8.19665922,10.5191453 C5.0610148,9.88285256 3.23677097,6.72012945 2.76538781,5.60103951 C3.45398578,5.78844691 4.19215559,6.06241869 4.96547634,6.24000952" id="Fill-112" fill="#809900" mask="url(#mask-74)"></path>
                        </g>
                        <g id="Group-117">
                            <mask id="mask-76" fill="white">
                                <use xlink:href="#path-75"></use>
                            </mask>
                            <g id="Clip-116"></g>
                            <path d="M25.61278,11.5596134 C25.61278,10.0782025 22.4834447,3.32528889 18.6231501,3.32528889 C14.7637567,3.32528889 11.6344215,10.0782025 11.6344215,11.5596134 C11.6344215,13.0401319 14.7637567,10.8608515 18.6231501,10.8608515 C22.4834447,10.8608515 25.61278,13.0401319 25.61278,11.5596134" id="Fill-115" fill="#607300" mask="url(#mask-76)"></path>
                        </g>
                        <g id="Group-120">
                            <mask id="mask-78" fill="white">
                                <use xlink:href="#path-77"></use>
                            </mask>
                            <g id="Clip-119"></g>
                            <path d="M11.6346919,10.860673 C11.6346919,11.8851668 11.8609197,12.3742109 12.2647049,13.2496713 L13.4138704,13.7324684 C13.3201345,13.2532409 13.259747,12.7597347 13.259747,12.2555196 C13.259747,11.1453538 12.8559618,9.74961481 13.6382956,9.11867654 C14.7982768,8.18163951 16.9695235,9.02408042 18.6234205,9.02408042 C20.2773174,9.02408042 22.4485642,8.18163951 23.6085453,9.11867654 C24.3899778,9.74961481 23.9870939,11.1453538 23.9870939,12.2555196 C23.9870939,12.7597347 23.9267064,13.2532409 23.8329705,13.7324684 L24.982136,13.2496713 C25.3859212,12.3742109 25.6130504,11.8851668 25.6130504,10.860673 C25.6130504,10.2957735 25.5598733,9.27931146 25.6022347,9.23469065 C26.7360779,8.05313157 22.3593348,3.32600282 18.6234205,3.32600282 C14.8866048,3.32600282 10.5116643,8.05313157 11.6437049,9.23469065 C11.6869676,9.27931146 11.6346919,10.2957735 11.6346919,10.860673" id="Fill-118" fill="#C7E62E" mask="url(#mask-78)"></path>
                        </g>
                        <g id="Group-123">
                            <mask id="mask-80" fill="white">
                                <use xlink:href="#path-79"></use>
                            </mask>
                            <g id="Clip-122"></g>
                            <path d="M11.8784952,10.860673 C11.8784952,11.8851668 11.8604691,12.3742109 12.2651556,13.2496713 L13.4134197,13.7324684 C13.3205852,13.2532409 13.2592964,12.7597347 13.2592964,12.2555196 C13.2592964,11.1453538 12.8564125,9.74961481 13.637845,9.11867654 C14.7978261,8.18163951 16.9690729,8.47613686 18.6229698,8.47613686 C20.2768668,8.47613686 22.4490148,8.18163951 23.6089959,9.11867654 C24.3904284,9.74961481 23.9875446,11.1453538 23.9875446,12.2555196 C23.9875446,12.7597347 23.9262557,13.2532409 23.8334212,13.7324684 L24.9816853,13.2496713 C25.3854705,12.3742109 25.369247,11.8851668 25.369247,10.860673 C25.369247,10.2957735 25.31607,9.27931146 25.3593327,9.23469065 C26.4922746,8.05313157 22.3597855,3.8088 18.6229698,3.8088 C14.8870554,3.8088 10.7545663,8.05313157 11.8884096,9.23469065 C11.930771,9.27931146 11.8784952,10.2957735 11.8784952,10.860673" id="Fill-121" fill="#A0C000" mask="url(#mask-80)"></path>
                        </g>
                        <g id="Group-126">
                            <mask id="mask-82" fill="white">
                                <use xlink:href="#path-81"></use>
                            </mask>
                            <g id="Clip-125"></g>
                            <path d="M12.7155383,6.88924233 C12.4866065,7.01864268 12.2693917,7.14179612 12.0629926,7.26227231 C11.8665078,7.55052275 11.7123845,7.8280642 11.6096356,8.08329524 C12.017026,7.82538695 12.5100405,7.53981376 13.0643438,7.22746808 C15.0796646,6.09409947 17.1274324,6.44035697 18.1026457,7.17838519 C17.3644759,6.2333164 15.0192771,5.59345397 12.7155383,6.88924233" id="Fill-124" fill="#C7E62E" mask="url(#mask-82)"></path>
                        </g>
                        <g id="Group-129">
                            <mask id="mask-84" fill="white">
                                <use xlink:href="#path-83"></use>
                            </mask>
                            <g id="Clip-128"></g>
                            <path d="M24.5047141,6.88924233 C24.7327446,7.01864268 24.9508607,7.14179612 25.1572598,7.26227231 C25.3537446,7.55052275 25.5078679,7.8280642 25.6106168,8.08329524 C25.2032264,7.82538695 24.7102119,7.53981376 24.1550073,7.22746808 C22.1405878,6.09409947 20.0919187,6.44035697 19.1167054,7.17838519 C19.8557765,6.2333164 22.200074,5.59345397 24.5047141,6.88924233" id="Fill-127" fill="#C7E62E" mask="url(#mask-84)"></path>
                        </g>
                    </g>
                </g>
            </g>
        </g>
    </g>
</svg>