<?xml version="1.0" encoding="UTF-8"?>
<svg width="28px" height="26px" viewBox="0 0 28 26" version="1.1" xmlns="http://www.w3.org/2000/svg" xmlns:xlink="http://www.w3.org/1999/xlink">
    <!-- Generator: Sketch 61.2 (89653) - https://sketch.com -->
    <title>handshake</title>
    <desc>Created with Sketch.</desc>
    <g id="Page-1" stroke="none" stroke-width="1" fill="none" fill-rule="evenodd">
        <g id="Desktop-Copy" transform="translate(-1240.000000, -115.000000)" fill="#74E789" fill-rule="nonzero">
            <g id="MENU" transform="translate(315.000000, 105.000000)">
                <g id="handshake" transform="translate(925.000000, 10.000000)">
                    <path d="M25.4377095,2.54834855 C23.8570456,0.967568465 21.756,0.0971286307 19.5218091,0.0971286307 C17.4434191,0.0971286307 15.4807469,0.851618257 13.9443485,2.22942739 C12.4086473,0.852547718 10.4469046,0.0987551867 8.36874689,0.0987551867 C8.36851452,0.0987551867 8.36816598,0.0987551867 8.36781743,0.0987551867 C6.13281328,0.0989875519 4.03165145,0.969892116 2.45180083,2.55078838 C0.870788382,4.13110373 0,6.23226556 0,8.46703734 C0,10.7020415 0.870672199,12.8034357 2.45156846,14.3842158 L2.65105394,14.5838174 C2.65070539,14.6029876 2.64965975,14.6221577 2.64965975,14.641444 C2.64965975,15.3750207 2.93570124,16.0642158 3.45387552,16.5806473 C3.91941909,17.0464232 4.52252282,17.3238672 5.17117012,17.3762656 C5.17093776,17.3913693 5.17012448,17.4063568 5.17012448,17.4215768 C5.17047303,18.1546888 5.45639834,18.8435353 5.97492116,19.3610124 C6.49309544,19.8789544 7.18194191,20.1641826 7.91447303,20.1641826 C7.91458921,20.1641826 7.91458921,20.1641826 7.91458921,20.1641826 C7.93015768,20.1641826 7.94549378,20.1632531 7.96106224,20.1630207 C8.01136929,20.7895934 8.27382573,21.4017593 8.7513361,21.8795021 C9.21746058,22.3466722 9.82114523,22.6246971 10.4703734,22.6768631 C10.4701411,22.6909212 10.4693278,22.7048631 10.4693278,22.7189212 C10.4693278,23.4520332 10.7551369,24.1412282 11.273195,24.6588216 C11.7907884,25.1779253 12.4802158,25.4638506 13.2142573,25.4638506 C13.2143734,25.4638506 13.2142573,25.4638506 13.2143734,25.4638506 C13.9472531,25.4638506 14.636332,25.1787386 15.1550871,24.6605643 L16.9614938,22.8520664 C17.2366141,22.5772946 17.4453942,22.2539585 17.5815602,21.9015768 C17.9351037,21.7648299 18.2577427,21.5568631 18.5318174,21.2826722 C19.0283817,20.7864564 19.3115187,20.1331618 19.3351037,19.434556 C20.0335934,19.4115519 20.6867718,19.1284149 21.1824066,18.6321992 C21.6545726,18.1603817 21.9338755,17.5470539 21.9805809,16.8877178 C21.9860415,16.8877178 21.9913859,16.887834 21.9968465,16.887834 C22.6991701,16.8877178 23.4023071,16.621195 23.938722,16.0876846 C24.1534274,15.8727469 24.3275851,15.6282988 24.458639,15.3638672 L25.4377095,14.385029 C28.7004647,11.1234357 28.7005809,5.81342739 25.4377095,2.54834855 Z M4.68529461,15.3476017 C4.49649793,15.1592697 4.39239834,14.9084315 4.39239834,14.6413278 C4.39239834,14.3734108 4.49684647,14.1211784 4.6859917,13.9318008 L6.49146888,12.1272531 C6.68119502,11.937527 6.93319502,11.8330788 7.20111203,11.8330788 C7.46833195,11.8330788 7.71928631,11.9371784 7.90889627,12.1270207 C8.29938589,12.5170456 8.29961826,13.1533776 7.91121992,13.543751 L7.8100249,13.6448299 C7.80026556,13.6543568 7.79004149,13.6633029 7.78039834,13.6730622 L6.10179253,15.3519004 C5.9133444,15.5398838 5.66320332,15.6434025 5.39691286,15.6434025 C5.39691286,15.6434025 5.39679668,15.6434025 5.39679668,15.6434025 C5.12876349,15.6434025 4.87641494,15.538722 4.68529461,15.3476017 Z M7.91458921,18.421444 C7.64736929,18.421444 7.39606639,18.3173444 7.20645643,18.1279668 C7.01719502,17.9390539 6.91297925,17.6879834 6.91286297,17.4207635 C6.91274689,17.1529627 7.01719502,16.9010788 7.20703734,16.7112365 L7.33053942,16.5877344 C7.33228216,16.5859917 7.33414108,16.5843651 7.33588382,16.5826224 L9.02773444,14.8915851 C9.21548548,14.7112697 9.46051452,14.6115851 9.72099585,14.6115851 C9.98914523,14.6115851 10.2417261,14.7162656 10.4311037,14.9049461 C10.8214772,15.295668 10.8214772,15.932 10.4322656,16.3219087 L8.62283817,18.1273859 C8.43357676,18.317112 8.18204149,18.421444 7.91458921,18.421444 L7.91458921,18.421444 Z M9.98449793,20.648083 C9.59458921,20.2580581 9.59505394,19.6225394 9.98507884,19.2320498 L11.7917178,17.4273859 C11.9819087,17.2370788 12.2341411,17.1322822 12.5015934,17.1322822 C12.768,17.1322822 13.0188382,17.2363817 13.2086805,17.4264564 C13.3979419,17.6152531 13.5021577,17.866556 13.502274,18.1340083 C13.50239,18.4018091 13.3981743,18.6536929 13.2097261,18.8423734 L11.4004149,20.6495934 C11.2115021,20.8395519 10.9605477,20.944 10.6937925,20.944 C10.4266888,20.9438838 10.1750373,20.8390871 9.98449793,20.648083 Z M13.9228548,23.428332 C13.7337095,23.6172448 13.4821743,23.7212282 13.2143734,23.7212282 C12.9466888,23.7212282 12.6955021,23.6172448 12.5061245,23.4272863 C12.3165145,23.2379087 12.2121826,22.9863734 12.2121826,22.7190373 C12.2121826,22.4515851 12.3166307,22.2000498 12.506473,22.0102075 L14.3121826,20.2043817 C14.5016763,20.014888 14.7532116,19.910556 15.0204315,19.910556 C15.2881162,19.910556 15.5401162,20.0151203 15.7294938,20.2040332 C15.918639,20.3932946 16.0228548,20.6448299 16.0228548,20.9123983 C16.0228548,21.1795021 15.9188714,21.4304564 15.7293776,21.6197178 L13.9228548,23.428332 Z M21.2872033,14.8530124 L21.1844979,14.7504232 C21.1842656,14.7501909 21.1841494,14.7499585 21.1840332,14.7498423 L17.4208797,10.9877344 C17.0804647,10.6473195 16.5289461,10.6474357 16.1885311,10.9878506 C15.8483485,11.3282656 15.8483485,11.8799004 16.1886473,12.2201992 L19.9504066,15.981029 C19.9507552,15.9813776 19.9511037,15.9818423 19.9514523,15.9821909 C20.1407137,16.1715685 20.2448133,16.4232199 20.2445809,16.6909046 C20.2443485,16.9585892 20.1399004,17.2102407 19.9498257,17.400083 C19.7609129,17.5893444 19.5094938,17.693444 19.2420415,17.693444 C18.9743568,17.693444 18.7227054,17.589112 18.5332116,17.3996183 L14.7715685,13.6379751 C14.4312697,13.2977925 13.8795187,13.2977925 13.5393361,13.6379751 C13.1990373,13.97839 13.1990373,14.5300249 13.5393361,14.8703237 L17.3009793,18.6319668 C17.4900083,18.8209959 17.5941079,19.0727635 17.5938755,19.3406805 C17.5937593,19.4832365 17.5633195,19.6207967 17.5070871,19.7473195 C17.3734772,19.4627884 17.1901411,19.2004481 16.9611452,18.9713361 C16.4952531,18.5061411 15.8921494,18.2293942 15.2437344,18.1774606 C15.2439668,18.1627054 15.2447801,18.1479502 15.2447801,18.133195 C15.2445477,17.3997344 14.9585062,16.7105394 14.440332,16.193527 C13.9221577,15.674888 13.2335436,15.3893112 12.5014772,15.3893112 C12.4857925,15.3893112 12.4702241,15.3902407 12.4545394,15.390473 C12.4037676,14.763668 12.1408465,14.1506888 11.6625228,13.6717842 C11.1953527,13.2063568 10.5908548,12.9294938 9.94151037,12.8782573 C9.9526639,12.1604813 9.68707054,11.4398008 9.14147718,10.8947884 C8.62353527,10.375917 7.93445643,10.0901079 7.20111203,10.0901079 C6.46776763,10.0901079 5.77810788,10.3758008 5.2593527,10.894556 L3.45341079,12.6995685 C3.42076349,12.7322158 3.38916183,12.7655602 3.35837344,12.7994855 C2.31412448,11.5959502 1.74273859,10.0757012 1.74273859,8.46715353 C1.74273859,6.69780913 2.43204979,5.03442324 3.68414938,3.78313693 C4.93520332,2.53115353 6.59858921,1.84149378 8.36804979,1.84149378 C8.36839834,1.84149378 8.36839834,1.84149378 8.36874689,1.84149378 C9.9760166,1.84149378 11.4951037,2.41218257 12.6988714,3.45585062 L9.35281328,6.80248963 C8.28300415,7.87322822 8.2826556,9.6146888 9.35258091,10.6848465 C10.422971,11.7539585 12.164083,11.7538423 13.2343568,10.6842656 L16.5940083,7.32298755 L22.7074191,13.4373278 C22.8958672,13.6250788 22.9999668,13.8756846 23.0003158,14.1432531 C23.0003158,14.273029 22.9756846,14.398971 22.929444,14.5159668 C22.9252614,14.52561 22.9210788,14.5351369 22.9172448,14.5448963 C22.8678672,14.6591037 22.7976929,14.7641328 22.7077676,14.8540581 C22.3151867,15.2444315 21.6780415,15.244083 21.2872033,14.8530124 Z M24.4453942,12.899751 C24.3157344,12.6455436 24.1461079,12.4105062 23.9384896,12.2038174 L17.210473,5.47487137 C17.2103568,5.47475519 17.2101245,5.47452282 17.2100083,5.47429046 C16.8915519,5.15606639 16.3884813,5.13573444 16.0464398,5.41282988 C16.0456266,5.41352697 16.0448133,5.4139917 16.0441162,5.4146888 C16.0292448,5.42677178 16.0153029,5.44036515 16.0011286,5.45349378 C15.9935768,5.46058091 15.985444,5.46708714 15.9780083,5.47452282 C15.9780083,5.47452282 15.9778921,5.474639 15.9778921,5.474639 L15.9777759,5.47475519 L12.0022407,9.4520332 C11.6114025,9.84229046 10.9753029,9.84229046 10.5846971,9.45226556 C10.1943237,9.06177593 10.1947884,8.42567635 10.5857427,8.03425726 L14.5522158,4.06720332 C14.5555851,4.06395021 14.5593029,4.06104564 14.562556,4.05779253 C14.5656929,4.0546556 14.5683651,4.05105394 14.5715021,4.04791701 L14.837444,3.78185892 C16.0895436,2.52975934 17.753278,1.84009959 19.5221577,1.8399834 C21.290805,1.83986722 22.9540747,2.52917842 24.205361,3.78046473 C26.7060747,6.28303734 26.7860083,10.3026058 24.4453942,12.899751 Z" id="Shape"></path>
                </g>
            </g>
        </g>
    </g>
</svg>