<?xml version="1.0" encoding="UTF-8"?>
<svg width="89px" height="136px" viewBox="0 0 89 136" version="1.1" xmlns="http://www.w3.org/2000/svg" xmlns:xlink="http://www.w3.org/1999/xlink">
    <!-- Generator: Sketch 61.2 (89653) - https://sketch.com -->
    <title>ILUSTRACIÓN</title>
    <desc>Created with Sketch.</desc>
    <defs>
        <polygon id="path-1" points="0 146 89 146 89 0 0 0"></polygon>
    </defs>
    <g id="Page-1" stroke="none" stroke-width="1" fill="none" fill-rule="evenodd">
        <g id="Desktop-Copy-2" transform="translate(-750.000000, -456.000000)">
            <g id="SALADE-PRENSA" transform="translate(732.000000, 416.000000)">
                <g id="ILUSTRACIÓN" transform="translate(18.000000, 30.000000)">
                    <path d="M32.1418929,136.07586 C32.1418929,136.07586 30.7898864,137.298246 29.5762167,139.176767 C28.3621985,141.054928 25.1410779,141.154876 25.0030896,143.719011 C24.8651013,146.282787 29.3831725,146.361164 31.7551075,145.526705 C34.1273911,144.692246 34.4859516,142.187792 35.9205419,141.561858 C37.3544354,140.935925 38.0994328,140.428634 37.9893209,139.206607 C37.8785122,137.98458 37.0857764,136 37.0857764,136 C37.0857764,136 36.1937309,136.293373 35.6703511,136.353054 C35.1462743,136.412735 33.3830906,136.433947 32.1418929,136.07586" id="Fill-1" fill="#4039B3"></path>
                    <path d="M48,67.4432002 C48,67.4432002 47.0242585,72.9939401 46.2384315,76.66009 L46.2384315,76.6604477 C45.9191659,78.1472275 45.6316773,79.3242019 45.4533522,79.6948236 C45.2282961,80.1609627 43.3968181,82.0423329 41.1567251,84.249607 C37.2253468,88.1228901 32.0299909,93 32.0299909,93 L30,89.3113123 C30,89.3113123 34.6136496,84.135487 37.7420038,80.6818364 C39.1899144,79.0834408 40.3189333,77.854236 40.525297,77.6771532 C41.1795298,77.1172855 41.9384398,71.6016044 43.0057739,67.05648 C44.0719864,62.5120711 46.2100191,60 46.2100191,60 L48,67.4432002 Z" id="Fill-3" fill="#74E789"></path>
                    <path d="M43,85.4755184 C38.7712103,89.2486496 33.1837555,94 33.1837555,94 L31,90.4063426 C31,90.4063426 35.9626055,85.3646977 39.3268999,82 C40.358263,82.4384039 42.2509047,83.4838822 43,85.4755184" id="Fill-5" fill="#EEA886"></path>
                    <mask id="mask-2" fill="white">
                        <use xlink:href="#path-1"></use>
                    </mask>
                    <g id="Clip-8"></g>
                    <polygon id="Fill-7" fill="#807066" mask="url(#mask-2)" points="23 137 24 137 24 101 23 101"></polygon>
                    <polygon id="Fill-9" fill="#807066" mask="url(#mask-2)" points="82 137 83 137 83 101 82 101"></polygon>
                    <polygon id="Fill-10" fill="#E6A16F" mask="url(#mask-2)" points="17 101 89 101 89 99 17 99"></polygon>
                    <path d="M68.0232747,134.129269 C68.0232747,134.129269 69.3623774,135.571306 70.1559336,136.446242 C70.947989,137.320083 73.9833884,138.88299 74,141.479315 C74.0175319,144.295104 71.7603054,144.047887 69.7522142,143.945276 C67.7452487,143.842664 66.1123614,142.492648 65.2677775,140.898337 C64.4216927,139.304391 62.1719703,138.884816 62.0143846,137.599434 C61.8560486,136.313322 63.0570762,134 63.0570762,134 L68.0232747,134.129269 Z" id="Fill-11" fill="#4039B3" mask="url(#mask-2)"></path>
                    <path d="M62.1563917,132 L62,134.228433 C62,134.228433 64.531505,135.881085 65,134.348953 L64.8909791,132.364616 L62.1563917,132 Z" id="Fill-12" fill="#5F8CC9" mask="url(#mask-2)"></path>
                    <path d="M32.2117048,133 L32,134.651878 C32,134.651878 34.3535156,135.481991 36.9480329,134.5785 L37,133.109198 L32.2117048,133 Z" id="Fill-13" fill="#5F8CC9" mask="url(#mask-2)"></path>
                    <path d="M66.5164806,91.7783095 C66.6549535,92.2771131 41,91.7783095 41,91.7783095 C41,91.7783095 48.0960206,86.5466557 48.5564072,85.149283 C49.0157231,83.7515487 46.7487653,75.3662277 46.4532613,72.6376278 C46.216644,70.4544587 45.6238517,60.686223 47.0446261,59.1945113 C48.5303543,57.6344852 53.8786903,56 53.8786903,56 L61.6759974,56.2931374 C61.6759974,56.2931374 62.9632954,56.5656721 63.8829979,56.9979685 C64.8034142,57.4309878 70.0639556,59.3289714 70.9179905,61.9910641 C71.7723824,64.6527954 65.6692265,73.2116133 65.6692265,73.2116133 C65.6692265,73.2116133 65.6570923,73.5961981 65.638891,74.2265701 L65.638891,74.2269315 C65.6146225,75.0676685 65.5800043,76.3450392 65.5482412,77.7304841 C65.5079128,79.5254539 65.4715101,81.5007882 65.4715101,82.9447882 C65.4715101,86.3384595 66.3780077,91.2791446 66.5164806,91.7783095" id="Fill-14" fill="#74E789" mask="url(#mask-2)"></path>
                    <path d="M67.4688855,91.3402026 C67.4688855,91.3402026 70.9495518,96.5126425 70.9986806,100.043776 C71.0478093,103.575269 69.7092285,113.366203 69.6106149,115.305733 C69.5120014,117.245263 67.7102573,133.410173 67.7102573,133.410173 C67.7102573,133.410173 66.3164956,134.719761 62.1384144,133.078454 C62.1384144,133.078454 61.216004,117.749144 61.1177465,116.108198 C61.019489,114.466891 61.019489,106.907226 60.0853304,105.813382 C59.1515278,104.719177 53.4981597,101.286731 52.7608722,100.640582 C52.0228727,99.9937115 39.1771244,103.096239 37.8314234,103.449568 C34.3461291,104.363687 35.9346258,110.499228 36.7053778,113.249867 C37.995186,117.851794 39.1230115,134.471242 39.1230115,134.471242 C39.1230115,134.471242 36.6405848,135.541315 32.482084,134.636921 C32.482084,134.636921 24.3167407,104.629134 24.0550766,101.644743 C23.7923445,98.6607124 23.6641825,93.7400332 43.7863283,90 L67.4688855,91.3402026 Z" id="Fill-15" fill="#FCE9E1" mask="url(#mask-2)"></path>
                    <path d="M55.7301701,40.1110247 C55.7301701,40.1110247 48.6161828,38.5161232 50.2413691,47.4161734 C51.8658051,56.3169694 53.5768828,57.0165335 57.8684546,55.1747708 C62.1604015,53.3326353 61.7763279,47.6302191 61.9919942,44.8338276 C62.2080356,42.037436 57.9989796,40.2083521 55.7301701,40.1110247" id="Fill-16" fill="#EEA886" mask="url(#mask-2)"></path>
                    <path d="M55,59.5260872 C55,59.5260872 58.100263,62.6436385 63,59.8106784 C63,59.8106784 61.9040742,53.0554004 62.4813824,49.764924 C63.0583214,46.4747976 56.087436,54.8634121 56.087436,54.8634121 C56.1793476,54.9089187 56.2395146,55.2229142 56.2535413,55.6695788 C56.2664606,56.0479836 56.2446823,56.5219522 56.1804549,57.0085227 C56.0372353,58.1024311 55.6780787,59.2575983 55,59.5260872" id="Fill-17" fill="#EEA886" mask="url(#mask-2)"></path>
                    <path d="M60.0701943,46.534695 C60.1714698,45.9223899 61.8503829,45.6974318 61.9863584,46.6158895 C62.1215268,47.5349292 61.2229593,49.1474686 60.5850449,48.9891539 C59.948341,48.8302572 59.931798,47.3798158 60.0701943,46.534695" id="Fill-18" fill="#EEA886" mask="url(#mask-2)"></path>
                    <path d="M61.1798093,50 C61.1798093,50 61.0094353,47.0723091 60.0542975,46.9812202 C59.0991597,46.8897421 58.9524294,48.0684481 58.9524294,48.0684481 L57.9879037,48.2728142 C57.9879037,48.2728142 58.292143,45.7067541 57.3387438,45.2583164 C56.3849968,44.810268 51.1604244,46.670973 50.3944365,45.9181271 C49.6291441,45.1648919 49.9890158,39.9599784 51.3735658,39.2476164 C52.757768,38.5356437 56.5817962,36.9392522 59.3832324,39.0619352 C59.3832324,39.0619352 61.5664541,38.783608 61.8905125,40.7564224 C62.2142232,42.7288475 61.7733369,48.5328458 61.1798093,50" id="Fill-19" fill="#3A3F47" mask="url(#mask-2)"></path>
                    <path d="M56,56 C60.6442621,54.9943642 60.9949132,53.030481 61,53 C59.4702252,54.8452929 56.067146,55.0893793 56.067146,55.0893793 C56.0786761,55.3468011 56.0590071,55.6689951 56,56" id="Fill-20" fill="#A77860" mask="url(#mask-2)"></path>
                    <path d="M63,56.6321885 C63,56.6321885 59.4800246,64.4829603 53.7925334,63.9765097 C48.1050423,63.4696658 52.8233819,55.5783936 53.0813777,55.5056503 C53.3653485,55.4258292 58.9145399,53.8765935 63,56.6321885" id="Fill-21" fill="#EEA886" mask="url(#mask-2)"></path>
                    <path d="M39,92.0083017 C39,92.0083017 56.4366925,94.0006516 67,92.3374301 L46.8157096,90 C46.8157096,90 46.6955922,90.4766014 39,92.0083017" id="Fill-22" fill="#5F8CC9" mask="url(#mask-2)"></path>
                    <path d="M52.0538615,90 L51,90.5897974 C51,90.5897974 51.2405244,92.4394878 51.8173269,93 L53,92.6665267 C53,92.6665267 52.753491,90.6376614 52.0538615,90" id="Fill-23" fill="#EEA886" mask="url(#mask-2)"></path>
                    <path d="M71.5650729,83.9130901 C71.3130422,84.2119819 67.9893026,85.5808855 64.2343862,87.0617428 L64.233705,87.0620915 C59.1038591,89.0863251 53.3173711,91 53.3173711,91 L52,88.1087361 C52,88.1087361 58.0596347,84.7365249 62.1547925,82.3718965 C64.0886171,81.2551501 65.5844532,80.3626598 65.7959546,80.1568883 C66.4542996,79.5144627 66.6252717,78.4849077 66.1406235,76.6891154 C65.6566565,74.8933232 64.5415911,66.6394447 64.4165975,65.6761551 C64.2909228,64.7128655 64.729933,62.1445582 67.0816516,62.0162126 C69.4330296,61.8875182 70.6294941,62.5672617 70.6294941,62.5672617 C70.6294941,62.5672617 71.2200633,62.8187214 71.6587329,68.6622832 C72.0980837,74.5054962 72.1604102,83.2071892 71.5650729,83.9130901" id="Fill-24" fill="#74E789" mask="url(#mask-2)"></path>
                    <path d="M65,74.1125631 L65,74.1129641 C64.9838568,75.0454196 64.9608291,76.4627519 64.9397005,78 C63.3398653,71.3757562 64.2638241,66.0886334 64.2799673,66 C64.1069031,67.7979346 64.9874178,74.0239297 65,74.1125631" id="Fill-25" fill="#5075A8" mask="url(#mask-2)"></path>
                    <path d="M47,76.9943309 L47,76.9946852 C46.7321389,78.4672257 46.4909385,79.6329278 46.3410116,80 C45.6189786,76.0532656 46.2679301,71 46.2679301,71 C46.3673586,73.4143144 47,76.9943309 47,76.9943309" id="Fill-26" fill="#5075A8" mask="url(#mask-2)"></path>
                    <path d="M64,88.8570454 L63.9992762,88.8574066 C58.5487723,90.9538066 52.2014921,93 52.2014921,93 L51,89.9413653 C51,89.9413653 57.4388397,86.4489304 61.7906297,84 C61.7906297,84 63.3735594,84.7697155 64,88.8570454" id="Fill-27" fill="#EEA886" mask="url(#mask-2)"></path>
                    <polygon id="Fill-28" fill="#5E5853" mask="url(#mask-2)" points="51 92.3442976 25 92 38.1273047 98"></polygon>
                    <polygon id="Fill-29" fill="#91887F" mask="url(#mask-2)" points="36.9524643 98 49 93.2382851 49 92 36 96.7852912"></polygon>
                    <path d="M50.7869971,89.4902444 C50.7869971,89.4902444 49.2124158,89.2761564 48.1237502,89.0555241 C47.2809008,88.8847523 45.1871756,89.1203426 44.6537402,89.5915234 C44.1195902,90.0630157 42.4235299,93.3481925 42.1023253,93.5485689 C41.7818353,93.7489454 42.2666792,94.2129587 42.8304843,93.9798613 C42.8304843,93.9798613 43.3481989,95.4173988 44.6244423,94.8795298 C45.9017576,94.3413492 46.7681882,93.166202 47.4366796,92.9592814 C48.1058856,92.7526724 52,91.7084087 52,91.7084087 C52,91.7084087 51.7899129,89.1405984 50.7869971,89.4902444" id="Fill-30" fill="#EEA886" mask="url(#mask-2)"></path>
                    <path d="M44.5909718,90 C44.5909718,90 43.6946466,90.4327286 43.4609878,90.6256851 C43.2260626,90.8183252 42.2781299,91.5275193 42.0482704,91.6945373 C41.818411,91.8615554 42.3949593,92.3360385 44.0904101,91.6024876 C45.7861776,90.8683041 44.5909718,90 44.5909718,90" id="Fill-31" fill="#EEA886" mask="url(#mask-2)"></path>
                    <polygon id="Fill-32" fill="#6E6760" mask="url(#mask-2)" points="40 98 32.1874922 79 7 79.3667045 14.445837 96.8750196"></polygon>
                    <path d="M22.7121975,86.6879466 C23.2000638,87.9935599 23.052877,89.4152488 22.3828582,89.8637371 C21.7137843,90.3122254 20.7758524,89.6173532 20.2877498,88.3117399 C19.7998835,87.0061266 19.9473065,85.5844377 20.6168529,85.1362657 C21.286163,84.6877774 22.2248036,85.3826496 22.7121975,86.6879466" id="Fill-33" fill="#807066" mask="url(#mask-2)"></path>
                    <polygon id="Fill-34" fill="#FFCA55" mask="url(#mask-2)" points="0.142970519 10 43 10.1982383 42.8573887 41.4227506 42.8275732 48 36.3141525 41.3927801 0 41.2248734"></polygon>
                    <path d="M19,25.9904531 C18.9947477,27.6474907 20.3337443,28.9947186 21.9907814,29 C23.6471601,29.0049249 24.9953752,27.6665863 25,26.0095487 C25.0052523,24.3525111 23.6662557,23.0052832 22.0095478,23 C20.3525107,22.9947477 19.0056125,24.334074 19,25.9904531" id="Fill-35" fill="#FFFFFF" mask="url(#mask-2)"></path>
                    <path d="M8,25.9904541 C7.99442019,27.647162 9.33348938,28.9947186 10.9902871,29 C12.6467555,29.0049249 13.9947145,27.6662576 14,26.0095497 C14.0055798,24.3521834 12.6661814,23.004956 11.0093837,23 C9.35192751,22.9944205 8.00528552,24.3337463 8,25.9904541" id="Fill-36" fill="#FFFFFF" mask="url(#mask-2)"></path>
                    <path d="M28,25.9907824 C27.9940934,27.6471605 29.3337483,28.9947168 30.9901268,29 C32.6468346,29.0052523 33.9940619,27.6662561 34,26.0092196 C34.0045974,24.352183 32.6662594,23.0056145 31.0088932,23 C29.3521855,22.9944205 28.0046289,24.3337459 28,25.9907824" id="Fill-37" fill="#FFFFFF" mask="url(#mask-2)"></path>
                </g>
            </g>
        </g>
    </g>
</svg>