<?xml version="1.0" encoding="UTF-8"?>
<svg width="214px" height="157px" viewBox="0 0 214 157" version="1.1" xmlns="http://www.w3.org/2000/svg" xmlns:xlink="http://www.w3.org/1999/xlink">
    <!-- Generator: Sketch 61.2 (89653) - https://sketch.com -->
    <title>ILUSTRACIÓN</title>
    <desc>Created with Sketch.</desc>
    <defs>
        <polygon id="path-1" points="0 0 150 0 150 150 0 150"></polygon>
        <polygon id="path-3" points="0.248650995 0.162534483 12.6295028 0.162534483 12.6295028 11 0.248650995 11"></polygon>
        <polygon id="path-5" points="0 132 194 132 194 0 0 0"></polygon>
    </defs>
    <g id="Page-1" stroke="none" stroke-width="1" fill="none" fill-rule="evenodd">
        <g id="Desktop-Copy-2" transform="translate(-1128.000000, -383.000000)">
            <g id="CAFETERIA" transform="translate(1080.000000, 211.000000)">
                <g id="ILUSTRACIÓN" transform="translate(47.497076, 172.000000)">
                    <g id="Group-3" transform="translate(0.502924, 0.000000)">
                        <mask id="mask-2" fill="white">
                            <use xlink:href="#path-1"></use>
                        </mask>
                        <g id="Clip-2"></g>
                        <path d="M150,75 C150,116.421475 116.421475,150 75,150 C33.5785251,150 0,116.421475 0,75 C0,33.5790195 33.5785251,0 75,0 C116.421475,0 150,33.5790195 150,75" id="Fill-1" fill="#E3E1FF" mask="url(#mask-2)"></path>
                    </g>
                    <g id="Group-95" transform="translate(20.502924, 25.000000)">
                        <path d="M96.4676103,35.0124982 L93.2844075,37.053512 L93.5450183,39.1365364 L91.0236967,41.6163273 L94.3295858,45.8333333 L102.056872,40.0642699 C102.056872,40.0642699 99.9669062,32.8431188 99.4953061,33.0026034 C99.0233154,33.162866 96.4676103,35.0124982 96.4676103,35.0124982" id="Fill-1" fill="#EEA886"></path>
                        <polygon id="Fill-3" fill="#FFE8CE" points="100.218009 33 98.9872113 42.9521039 94.049707 43.0833333 92.8625592 33"></polygon>
                        <polyline id="Fill-5" fill="#54443C" points="102.056872 32.8862275 91.943128 32.8862275 91.943128 31.8637725 92.8893065 31.8637725 92.8893065 30.25 101.125112 31.4318862 101.148884 32 102.056872 32 102.056872 33"></polyline>
                        <path d="M101.321703,39.4124932 C103.219696,39.5740481 100.843228,34.9915736 100.843228,34.9915736 C100.843228,34.9915736 95.685396,34.6840645 95.6392587,34.9263969 C95.5931214,35.1683826 95.6050535,35.5882174 96.0218801,35.6769687 C96.4387067,35.7653732 99.6567832,36.1449926 99.6567832,36.1449926 C99.6567832,36.1449926 96.2979084,36.2853998 96.3643302,36.6057362 C96.4617753,37.0775737 96.8622948,37.1181358 97.8610082,37.2516093 C98.7157414,37.3656684 100.577938,37.4128175 100.577938,37.4128175 C100.577938,37.4128175 97.0361051,37.4779942 97.1124703,37.6780311 C97.1888355,37.878068 96.958149,38.5090336 98.1716395,38.3616927 C100.919991,38.0281823 101.321703,39.4124932 101.321703,39.4124932" id="Fill-7" fill="#EEA886"></path>
                        <path d="M93.3856644,35.9962493 C93.3856644,35.9962493 92.3252793,33.8136208 91.0236967,33.9204652 C91.0236967,33.9204652 92.5855278,35.8859132 92.7940668,37.2015658 C93.0022656,38.5172184 93.0890151,39.4166667 93.0890151,39.4166667 L93.7819905,39.4166667 L93.3856644,35.9962493 Z" id="Fill-9" fill="#EEA886"></path>
                        <path d="M79.4165428,59.5833333 C79.4165428,59.5833333 84.4733533,94.7370001 82.1282158,102.200504 C79.7830783,109.664008 78.8799533,116.416667 78.8799533,116.416667 L67.1561808,113.040526 C67.1561808,113.040526 71.041763,95.4478459 71.6243131,92.0717054 C72.2072462,88.6951876 66.1990521,61.2314091 66.1990521,61.2314091 L79.4165428,59.5833333 Z" id="Fill-11" fill="#2E2891"></path>
                        <path d="M73.5545024,62.5242741 L68.0878488,119.166667 L57.0047393,119.166667 C57.0047393,119.166667 60.5795699,59.2035606 59.9440444,58.7065316 C59.3081407,58.2095026 73.5545024,62.5242741 73.5545024,62.5242741" id="Fill-13" fill="#4039B3"></path>
                        <path d="M78.1843162,28.4166667 C78.1843162,28.4166667 79.3679696,47.1510803 81.9412123,46.4895365 C84.5144549,45.8283658 91.4219018,40.9341355 91.4219018,40.9341355 L95.6208531,45.4313649 C95.6208531,45.4313649 82.8467186,59.3196808 77.5859942,53.6321949 C72.3248878,47.944709 78.1843162,28.4166667 78.1843162,28.4166667" id="Fill-15" fill="#4039B3"></path>
                        <g id="Group-19" transform="translate(66.199052, 121.000000)">
                            <mask id="mask-4" fill="white">
                                <use xlink:href="#path-3"></use>
                            </mask>
                            <g id="Clip-18"></g>
                            <path d="M8.61841782,7.24918966 L9.3491818,3.40184483 L1.48473441,0.162534483 L0.248650995,5.87912069 L0.681887014,5.95005172 C2.44020739,6.79363793 11.010778,10.8772931 12.3586643,10.9967759 C13.8617505,11.1295345 8.61841782,7.24918966 8.61841782,7.24918966" id="Fill-17" fill="#4039B3" mask="url(#mask-4)"></path>
                        </g>
                        <path d="M55.4195842,72.4166667 L56.3231244,73.6883646 C56.3231244,73.6883646 56.7435989,74.5437395 57.7976651,75.8559711 C58.0710695,76.1961513 58.4043771,76.4851907 58.7776203,76.7155131 C59.2303503,76.9950821 59.8470463,77.342081 60.2444811,77.4284519 C60.7363786,77.5356579 60.8400573,78.1769997 60.4215028,78.3588332 C60.0033322,78.5406667 58.640534,78.2781446 57.348007,77.3110178 C56.0558638,76.3446486 56.6602719,78.7906877 56.8645573,79.6854599 C57.0684586,80.5809898 57.5680361,83.3800889 57.3387911,83.6600367 C57.0024115,84.0706773 56.4947701,83.7907295 56.3119885,82.8921691 C56.1272869,81.982244 55.3892486,79.3361881 54.9153988,79.4649868 C54.4480769,79.5922703 55.5497585,84.1358343 55.5497585,84.1358343 C55.5497585,84.1358343 55.9445053,85.069625 55.4015364,85.2366845 C54.4227332,85.538225 53.6121198,80.6230388 53.5468407,80.1533023 C53.5011453,79.8271385 52.9808321,79.9491185 53.0487992,80.296875 C53.1186863,80.6552385 54.2545434,84.8036935 53.2607644,85.1203868 C52.4985344,85.3632103 52.5557496,81.0833048 51.835375,80.3518039 C51.1153845,79.6206818 52.1264432,83.6016985 51.3884049,83.804367 C51.1134645,83.8797521 50.8980433,83.8983143 50.6519025,81.5291756 C50.3996178,79.1028352 50.8016606,72.420076 50.8016606,72.420076 L55.4944632,72.472732" id="Fill-20" fill="#EEA886"></path>
                        <path d="M71.4958896,22 C71.3875181,21.2402162 71.8085297,18.076973 71.8085297,18.076973 C71.8085297,18.076973 74.8027793,17.8635676 75.0791656,14.9965946 C75.355162,12.1296216 75.3933649,5.49891892 75.3933649,5.49891892 L70.0426202,2.75 L63.9180718,6.96059459 L62.521327,10.1045405 L64.3558458,17.5835676 L64.3484391,21.3522162 L71.4958896,22 Z" id="Fill-22" fill="#EEA886"></path>
                        <path d="M71.7156398,17.7227382 C71.7156398,17.7227382 69.8250304,17.687568 68.0379147,16.5 C68.0379147,16.5 68.814118,18.3561297 71.6321056,18.3331212 L71.7156398,17.7227382 Z" id="Fill-24" fill="#FF957E"></path>
                        <path d="M62.9657492,13.0356242 C63.7250699,14.7569708 64.1938228,17.2630874 64.1938228,17.2630874 C64.6122994,18.0463654 64.7524078,15.5786667 64.7524078,15.5786667 C64.7524078,15.5786667 65.1109964,13.2068264 64.7856789,12.2821853 C64.7856789,12.2821853 63.3550212,12.7495412 63.0330308,10.159502 C62.8736992,8.87977492 64.7897453,8.26620716 65.310623,9.81523265 L66.5057952,9.92638352 C66.5057952,9.92638352 66.6030208,5.08908242 69.3578686,5.98052737 C69.3578686,5.98052737 71.3552441,7.22482042 72.5463498,6.46317581 C73.7374555,5.7019042 73.65169,5.4385736 73.65169,5.4385736 C73.65169,5.4385736 74.2246924,6.71084086 75.7603389,5.87534433 C77.2967248,5.0398478 77.4989392,3.54938167 76.9662318,2.83734467 C76.6582892,2.42556424 76.3599582,1.96716012 75.8568251,1.8754047 C75.3540617,1.78364928 74.8084155,1.98618259 74.4842071,2.38490838 C74.8609099,1.82840802 74.5947411,0.996268395 74.0354168,0.627381758 C73.4764621,0.258868111 72.7308196,0.287215315 72.1093893,0.534880357 C71.4879589,0.78217241 70.9630147,1.22006211 70.4491609,1.651238 C70.0972265,0.629992685 69.0133277,-0.0812983328 67.9453252,0.00747317338 C66.8769529,0.0962446795 65.9235508,0.97687294 65.7416687,2.042504 C65.1645998,1.31778536 64.0574113,1.15217802 63.2267426,1.55388773 C62.3960739,1.95522446 61.848949,2.82951189 61.6903567,3.74482818 C61.5313948,4.66051746 61.7225188,5.6094028 62.0703867,6.46951664 C61.4289937,6.09652711 60.5376976,6.36433359 60.1055429,6.97118754 C59.6733882,7.57804149 59.6696914,8.42920358 59.9850276,9.10543359 C60.3007334,9.78166359 60.8951772,10.2941512 61.5539452,10.6361826 C61.0652296,11.0356544 60.9166186,11.7999099 61.2186463,12.3560373 C61.5214134,12.9121646 62.2404391,13.1963827 62.8363616,12.9953413" id="Fill-26" fill="#3E322C"></path>
                        <path d="M65.2774751,11.7251954 C65.2687259,11.7190132 65.2451934,11.7528526 65.1890776,11.7853905 C65.1344702,11.8163014 65.0394353,11.8420063 64.9353494,11.8075162 C64.7247641,11.7391867 64.5310738,11.3975392 64.5006023,11.019124 C64.4846123,10.8278014 64.5117652,10.642661 64.5660708,10.4877808 C64.6170578,10.3299722 64.7033435,10.2164151 64.8062226,10.1897341 C64.9075932,10.1571962 64.9851296,10.2193435 65.0122824,10.2769355 C65.0418489,10.3342021 65.0318928,10.3768267 65.0424522,10.3797551 C65.0478828,10.3846358 65.0822764,10.3420112 65.0614592,10.2557859 C65.0512015,10.2147882 65.0255571,10.1666322 64.9772854,10.1292137 C64.9284103,10.0911444 64.8581147,10.0745501 64.7863105,10.0878906 C64.6363665,10.1090402 64.5093516,10.2671742 64.4496153,10.4373471 C64.3814315,10.6088216 64.347038,10.8170639 64.3648381,11.0318137 C64.4010419,11.4548059 64.6246003,11.8387525 64.9115152,11.9080582 C65.0512015,11.9376676 65.1631315,11.8856071 65.2195491,11.832245 C65.2768717,11.7762799 65.2844142,11.7284492 65.2774751,11.7251954" id="Fill-28" fill="#FF957E"></path>
                        <path d="M53.3270142,29.2674337 C53.3270142,29.2674337 55.3285299,20.1983916 65.0619909,21.1538559 L73.9470665,22.0257639 C73.9470665,22.0257639 80.0492391,24.5504377 79.2008537,31.6789506 C78.3520855,38.8074635 77.9321041,45.3117397 78.1491775,46.569955 C78.3662508,47.8277956 80.5147791,59.0543135 79.8704503,59.8194343 C73.4478362,67.4481608 57.0800475,55.2811664 57.0800475,55.2811664 L53.3270142,29.2674337 Z" id="Fill-30" fill="#ED701D"></path>
                        <path d="M65.2796209,21.1708296 L62.969606,74.25 L56.0853081,70.6809144 L56.808263,23.5862486 C56.808263,23.5862486 58.6588554,20.5335733 65.2796209,21.1708296" id="Fill-32" fill="#4039B3"></path>
                        <path d="M50.5687204,73.6468395 L52.831099,29.4609394 C53.5359588,26.7521392 55.0484627,24.6640746 57.0047393,22.9166667 L57.0047393,74.25 L50.5687204,73.6468395 Z" id="Fill-34" fill="#4039B3"></path>
                        <path d="M71.7156398,22.0953741 C71.7156398,22.0953741 77.875759,25.0537363 77.5818283,35.063785 C77.2882859,45.0738336 81.2860538,73.3333333 81.2860538,73.3333333 L86.4265403,72.3291256 C86.4265403,72.3291256 80.4737645,45.533546 80.2217685,40.8316681 C79.9655013,36.0419926 80.4027086,29.2748003 77.0793894,24.6030675 C74.6929984,21.2482975 71.7156398,22.0953741 71.7156398,22.0953741" id="Fill-36" fill="#4039B3"></path>
                        <path d="M64.3601896,21.0833333 C64.3601896,21.0833333 62.7365398,25.4747213 62.901488,27.0833021 C63.0658136,28.6915062 63.6250811,32.065382 63.6250811,32.065382 C63.6250811,32.065382 62.436521,32.9359745 62.5261532,33.6976959 C62.6160966,34.4594173 63.7483254,42.1666667 63.7483254,42.1666667 L64.3601896,21.0833333 Z" id="Fill-38" fill="#002665"></path>
                        <path d="M57.8886086,32.0833333 C57.9222227,32.0855868 57.9314443,32.6773101 57.9186531,33.7446592 C57.9058619,34.825865 57.8874187,36.3654692 57.864811,38.2623544 C57.82495,42.0902052 57.7705129,47.3546702 57.7095315,53.1700372 C57.6426007,58.9947669 57.5477077,64.2685947 57.4108714,68.0844612 C57.3451305,69.9922072 57.2695731,71.5351819 57.2008574,72.6002839 C57.1294646,73.6653859 57.0741351,74.2522406 57.0402235,74.25 C57.0063119,74.247372 56.9976853,73.6560232 57.010179,72.5890487 C57.0232677,71.5082173 57.0414134,69.9682386 57.0640211,68.0713534 C57.1038822,64.2438772 57.1586167,58.9782886 57.2193006,53.161049 C57.2865289,47.3381919 57.3811244,42.0651131 57.5182582,38.2492466 C57.5839991,36.3418752 57.6592591,34.7985259 57.7279747,33.7334239 C57.7993675,32.6683219 57.8549945,32.0810927 57.8886086,32.0833333" id="Fill-40" fill="#002665"></path>
                        <path d="M74.3569151,123.75 C74.265478,123.712193 76.3127962,115.717622 76.3127962,115.717622 L69.4863377,113.666667 L68.0379147,121.157015 L74.3569151,123.75 Z" id="Fill-42" fill="#EEA886"></path>
                        <mask id="mask-6" fill="white">
                            <use xlink:href="#path-5"></use>
                        </mask>
                        <g id="Clip-45"></g>
                        <polygon id="Fill-44" fill="#EEA886" mask="url(#mask-6)" points="58.8436019 125.583333 67.1184834 125.583333 67.1184834 119.166667 58.8436019 119.166667"></polygon>
                        <path d="M67.4206102,128.74926 L66.6914913,124.666667 L57.9241706,124.666667 L58.8436599,130.660526 L59.3066408,130.687457 C61.3116224,130.804826 71.0715347,131.35027 72.4113619,130.921391 C73.9061507,130.443072 67.4206102,128.74926 67.4206102,128.74926" id="Fill-46" fill="#4039B3" mask="url(#mask-6)"></path>
                        <path d="M150.99436,34.8428 C150.536428,35.839982 150.73815,36.9922137 150.872245,38.0787012 C151.005953,39.1648087 151.025661,40.3808843 150.308428,41.2169363 C149.600083,42.0423476 148.390912,42.24148 147.509055,42.8856201 C146.646907,43.5149392 146.142603,44.590026 146.21564,45.6434515 C146.265877,46.3704367 146.546046,47.1893876 146.094684,47.7674036 C145.860888,48.0664821 145.482176,48.2139313 145.119309,48.337059 C144.333676,48.6030755 143.52563,48.820449 142.781732,49.1852717 C142.037448,49.5497144 141.34688,50.0847876 140.983239,50.8201333 C140.47082,51.8568378 140.686067,53.0862142 140.96585,54.2057638 C141.242927,55.3131527 141.634005,56.4961662 142.590058,57.1414463 C143.305745,57.6244564 144.215812,57.7168021 145.083757,57.7415036 C147.618804,57.8133281 150.165832,57.4291242 152.562534,56.6135935 C154.070424,56.1005616 155.567493,55.3811769 156.581899,54.1704216 C158.174419,52.2695434 158.267551,49.5740359 158.062738,47.1190832 C157.947579,45.7411176 157.736969,44.3034882 156.912305,43.1831786 C156.096916,42.0757897 154.757128,41.4183488 153.385652,41.1929948 C152.014562,40.9680208 152.35347,34.5539821 150.99436,34.8428" id="Fill-47" fill="#F98A3E" mask="url(#mask-6)"></path>
                        <path d="M160.851984,44 C162.199456,42.2661016 162.874969,40.0506713 162.716652,37.8828187 C162.55794,35.7153498 161.567372,33.6150267 159.981043,32.0833333" id="Fill-48" fill="#F98A3E" mask="url(#mask-6)"></path>
                        <polygon id="Fill-49" fill="#B79380" mask="url(#mask-6)" points="129.126971 99 124.123223 124.666667 126.446524 124.666667 134.236967 101.779778"></polygon>
                        <polygon id="Fill-50" fill="#B79380" mask="url(#mask-6)" points="167.336493 99.2881384 174.193406 123.75 176.530806 123.75 173.517667 95.3333333"></polygon>
                        <path d="M124.263673,94.3737405 C130.87008,101.626536 141.050231,105.133183 150.80351,104.406021 C160.557164,103.678482 169.800818,98.9724494 176.866675,92.1715418 C183.932531,85.3710109 188.913455,76.5776558 192.09852,67.2778102 C193.184797,64.1070659 194.079731,60.8071571 193.994357,57.4541515 C193.908608,54.1015225 192.732463,50.6570097 190.235261,48.433723 C185.772201,44.4601252 178.724317,45.5487976 173.432975,48.3083242 C166.202735,52.0785726 160.405138,58.5503554 157.427892,66.1736983 C155.949566,69.9597628 155.147496,73.9970014 153.506285,77.714153 C151.8647,81.4316812 149.143952,84.9564041 145.290495,86.1915633 C142.585099,87.0591874 139.655034,86.7014431 136.856026,86.2224423 C134.056643,85.743065 131.21008,85.1484563 128.400962,85.5683351 C125.592218,85.9882139 118.998168,87.2418253 124.263673,94.3737405" id="Fill-51" fill="#FFE8CE" mask="url(#mask-6)"></path>
                        <path d="M146.80558,78.4314926 C146.80558,78.4314926 117.518233,70.2547443 111.745927,79.7816442 C105.973621,89.3089176 102.976303,118.021868 102.976303,118.021868 L109.458183,120.083333 C109.458183,120.083333 119.053821,87.8709725 122.575689,86.8002657 C126.097179,85.7295588 148.947867,89.3018194 148.947867,89.3018194 L146.80558,78.4314926 Z" id="Fill-52" fill="#FF957E" mask="url(#mask-6)"></path>
                        <path d="M103.001157,118.377893 C103.001157,118.377893 96.3447242,117.913121 97.6227207,118.755586 C98.9010888,119.597702 109.132493,121.916667 109.132493,121.916667 L109.412322,120.119478 L103.001157,118.377893 Z" id="Fill-53" fill="#74E789" mask="url(#mask-6)"></path>
                        <path d="M126.881517,80.1370478 L128.248648,75.1666667 C135.58182,75.7809956 143.149626,77.9896114 150.78673,80.6666667 L126.881517,80.1370478 Z" id="Fill-54" fill="#4039B3" mask="url(#mask-6)"></path>
                        <path d="M151.554747,51.3515615 C151.554747,51.3515615 146.146062,50.5359169 144.277165,59.8167611 C141.582929,73.1959402 126.320332,64.6834407 126.320332,64.6834407 L121.364929,67.7765589 C121.364929,67.7765589 129.434537,77.3754672 141.582929,73.1959402 C153.730947,69.0167857 151.554747,51.3515615 151.554747,51.3515615" id="Fill-55" fill="#EEA886" mask="url(#mask-6)"></path>
                        <path d="M165.623674,62.9728858 L165.80518,69.9643937 L166.417062,83.0407117 C161.533612,85.3059736 154.79169,84.711764 148.028436,85.25 C150.202767,78.9894848 151.272343,72.6381515 149.529136,66.0558809 C149.529136,66.0558809 147.148599,64.5798094 148.406792,63.1018845 C149.980094,61.2536443 150.423942,59.5833333 150.423942,59.5833333 L165.072045,60.9407853" id="Fill-56" fill="#74E789" mask="url(#mask-6)"></path>
                        <path d="M154.177017,51.3333333 C154.319246,50.5755791 154.026285,47.3864803 154.026285,47.3864803 C154.026285,47.3864803 150.998889,47.0539888 150.840427,44.1673237 C150.681965,41.2806586 150.924682,34.6289719 150.924682,34.6289719 L156.466598,32.0833333 L161.819905,36.5341189 L161.451578,50.9663309 L154.177017,51.3333333 Z" id="Fill-57" fill="#EEA886" mask="url(#mask-6)"></path>
                        <path d="M156.303424,42.6293963 C156.312882,42.882815 156.924088,43.067665 157.668614,43.0825215 C158.413591,43.0962353 159.035607,42.9350987 159.06083,42.6825371 C159.086503,42.4314039 158.476649,42.1819851 157.697441,42.1674142 C156.918232,42.1519862 156.293965,42.3776917 156.303424,42.6293963" id="Fill-58" fill="#FF957E" mask="url(#mask-6)"></path>
                        <path d="M155.36808,43.0841828 C155.394382,43.0585111 154.291735,43.6232875 153.545024,43.6179143 C153.545024,43.6179143 154.000019,44.1997056 154.755271,43.9274667 C155.539215,43.6450785 155.36808,43.0841828 155.36808,43.0841828" id="Fill-59" fill="#F4EFEA" mask="url(#mask-6)"></path>
                        <path d="M154.464455,47.0022598 C154.464455,47.0022598 156.328059,47.0377549 158.14218,45.8333333 C158.14218,45.8333333 157.293502,47.7938352 154.518921,47.6601255 L154.464455,47.0022598 Z" id="Fill-60" fill="#FF957E" mask="url(#mask-6)"></path>
                        <path d="M161.819905,41.1218971 C162.152269,41.2798673 162.563199,41.292452 162.906425,41.1556769 C163.250013,41.0185707 163.519018,40.7344231 163.619306,40.4042422 C163.681217,40.1992452 163.67651,39.9694101 163.560292,39.784946 C163.403885,39.5375587 163.072969,39.4176736 162.760518,39.4166667 C162.447704,39.4153553 162.146115,39.5127206 161.851766,39.6090924" id="Fill-61" fill="#EEA886" mask="url(#mask-6)"></path>
                        <path d="M166.409947,83.2998938 C166.409947,83.2998938 167.081195,97.6781824 155.383886,98.0833333 L158.185021,81.5833333 L166.409947,83.2998938 Z" id="Fill-62" fill="#4039B3" mask="url(#mask-6)"></path>
                        <path d="M152.908238,82.0504494 C152.908238,82.0504494 114.955339,75.9374025 111.184684,83.6414439 C107.414408,91.3454853 110.831683,123.75 110.831683,123.75 L118.218509,123.112091 C118.218509,123.112091 119.514743,92.7758687 121.261907,91.5374628 C123.008692,90.2994347 153.761133,97.5371371 156.277687,97.1879497 C159.090686,96.7968145 168.865391,85.7384578 152.908238,82.0504494" id="Fill-63" fill="#EEA886" mask="url(#mask-6)"></path>
                        <path d="M111.87287,123.670198 C111.87287,123.670198 105.386838,125.042852 106.876215,125.449516 C108.365592,125.856506 118.366701,125.205321 118.366701,125.205321 L118.606635,122.833333 L111.87287,123.670198 Z" id="Fill-64" fill="#74E789" mask="url(#mask-6)"></path>
                        <path d="M126.881517,65.6046408 L125.78431,64.7014666 C125.78431,64.7014666 125.030201,64.2585349 123.908794,63.219132 C123.618001,62.9493087 123.379512,62.6313161 123.199181,62.2835941 C122.980599,61.8613601 122.713616,61.2893498 122.668338,60.9322197 C122.612131,60.4907933 122.028204,60.3444038 121.823673,60.6970181 C121.618752,61.0496324 121.742485,62.2707991 122.523527,63.4900842 C123.304569,64.7093694 121.095324,63.9687666 120.285398,63.7128672 C119.474691,63.4565915 116.930156,62.7780819 116.651073,62.9560825 C116.242011,63.2164977 116.4563,63.6872773 117.271691,63.9247368 C118.09684,64.1648306 120.47978,65.0401569 120.318966,65.446209 C120.160103,65.8462399 116.054655,64.4888444 116.054655,64.4888444 C116.054655,64.4888444 115.225993,64.0617182 115.023414,64.5249713 C114.65924,65.3604074 119.133936,66.4931384 119.562514,66.5909823 C119.860723,66.6590966 119.701861,67.1061679 119.386477,67.0166031 C119.061336,66.9247804 115.323965,65.5707718 114.944178,66.4182502 C114.652994,67.0681593 118.615974,67.3831413 119.229566,68.079338 C119.842768,68.7755348 116.249428,67.5457126 115.997277,68.1775582 C115.903599,68.4127598 115.867689,68.6009211 118.03712,69.0201445 C120.258856,69.4491522 126.474407,69.6666667 126.474407,69.6666667 L126.836239,65.5342685" id="Fill-65" fill="#EEA886" mask="url(#mask-6)"></path>
                        <path d="M149.867299,59.7327297 L150.60466,51.3306348 L152.88176,50.8229338 L159.955465,50.4503437 C159.955465,50.4503437 164.274777,50.1296904 165.766035,51.4672512 C167.256917,52.8044357 165.72056,62.3333333 165.72056,62.3333333 L149.867299,59.7327297 Z" id="Fill-66" fill="#74E789" mask="url(#mask-6)"></path>
                        <path d="M162.809644,50.4919868 C162.809644,50.4919868 171.807256,48.5999859 170.957622,63.7811384 C170.092324,79.2413713 146.659147,81.5833333 146.659147,81.5833333 L146.189573,75.7853263 C146.189573,75.7853263 163.042006,71.2245259 164.309743,64.7970955 C165.57748,58.3696652 162.809644,50.4919868 162.809644,50.4919868" id="Fill-67" fill="#EEA886" mask="url(#mask-6)"></path>
                        <polygon id="Fill-68" fill="#AACCEA" mask="url(#mask-6)" points="127.62847 80.6666667 118.606635 61.1661111 119.770535 60.5 128.94293 79.4096875 145.111997 78.1168056 145.270142 79.2175694"></polygon>
                        <path d="M149.87362,35.9142473 C149.87362,35.9142473 149.426733,31.0763844 156.047977,30.3024506 C162.669992,29.5281283 162.739336,37.5833333 162.739336,37.5833333 L159.139201,36.8490287 L158.352911,34.7681105 L158.216149,36.7561722 L155.5225,36.5230596 L155.704337,35.0649405 L154.917662,36.2044725 L149.87362,35.9142473 Z" id="Fill-69" fill="#F98A3E" mask="url(#mask-6)"></path>
                        <path d="M146.919421,76.012211 C146.919421,76.012211 144.353326,76.0667237 142.96586,74.1247565 C141.578025,72.1824027 141.077845,74.2051725 142.595697,76.012211 C144.113917,77.8192496 144.847982,78.2259686 144.847982,78.2259686 C144.847982,78.2259686 136.389483,80.4644695 138.157793,80.580454 C139.926104,80.6968251 148.028436,81.5833333 148.028436,81.5833333 L146.919421,76.012211 Z" id="Fill-70" fill="#EEA886" mask="url(#mask-6)"></path>
                        <path d="M126.329697,93.0283603 L125.042654,79.8975323 C125.042654,79.8975323 157.158462,78.7796871 161.527813,82.6980172 C165.897163,86.6163472 163.47581,97.8586553 154.921297,97.1331202 C146.367541,96.4075851 126.329697,93.0283603 126.329697,93.0283603" id="Fill-71" fill="#4039B3" mask="url(#mask-6)"></path>
                        <path d="M161.818058,64.316758 C161.840483,64.3399339 161.659702,64.6298355 161.222928,64.8615941 C160.799955,65.0933526 160.086834,65.2193968 159.403039,64.850616 C158.722004,64.4741099 158.342846,63.7511858 158.21899,63.2205805 C158.087544,62.6781841 158.158269,62.3281066 158.187939,62.3333924 C158.233135,62.3321726 158.23693,62.6684258 158.403911,63.1441409 C158.562612,63.6133504 158.92797,64.2281206 159.51965,64.5546156 C160.113055,64.8758248 160.74717,64.8062973 161.153238,64.6465058 C161.568966,64.4887473 161.789423,64.2748789 161.818058,64.316758" id="Fill-72" fill="#C84652" mask="url(#mask-6)"></path>
                        <polygon id="Fill-73" fill="#002951" mask="url(#mask-6)" points="167.336493 98.6823284 168.122435 101.75 173.772512 97.9605704 173.429354 94.4166667"></polygon>
                        <polygon id="Fill-74" fill="#002951" mask="url(#mask-6)" points="128.695255 99 127.800948 102.123928 133.222988 104.5 134.236967 101.766422"></polygon>
                        <path d="M177.449206,75.1707421 C177.486382,75.2380733 176.514928,75.786503 175.060187,76.831077 C174.878814,76.9631064 174.689555,77.1015303 174.492786,77.2452204 C174.296017,77.3896628 174.101125,77.553665 173.893466,77.7150342 C173.474768,78.033635 173.054568,78.4071539 172.605454,78.7908289 C171.725249,79.5799958 170.796604,80.4899075 169.892742,81.5115363 C168.996766,82.5406882 168.214946,83.5803723 167.546532,84.5561106 C167.224341,85.0518789 166.908534,85.5171789 166.646801,85.9742036 C166.513493,86.2010233 166.376431,86.4158061 166.258519,86.6294604 C166.141359,86.843867 166.02908,87.0496222 165.921308,87.2463497 C165.073773,88.8258119 164.656202,89.8609822 164.584103,89.8327708 C164.555189,89.8218624 164.633296,89.5532898 164.800399,89.0748245 C164.88151,88.8348395 164.988907,88.544074 165.134606,88.2153172 C165.277677,87.8854319 165.429009,87.5036376 165.636668,87.1004027 C165.737682,86.8969045 165.842826,86.6840024 165.952476,86.4628251 C166.063628,86.2416477 166.194682,86.019718 166.322732,85.7857515 C166.573575,85.314433 166.881872,84.8348392 167.199181,84.3255294 C167.858208,83.3227082 168.643407,82.258198 169.553277,81.2128716 C170.471409,80.1746921 171.424463,79.258762 172.332079,78.4756136 C172.795463,78.0945716 173.231435,77.7270711 173.665529,77.417498 C173.880323,77.2602665 174.0831,77.1015303 174.287755,76.9627302 C174.493161,76.8250586 174.690306,76.6934054 174.878814,76.5670183 C175.250948,76.3093542 175.609939,76.1096175 175.918236,75.9249269 C176.225031,75.7383555 176.499156,75.5942893 176.726342,75.4829483 C177.178461,75.2553763 177.434561,75.143283 177.449206,75.1707421" id="Fill-75" fill="#DBBEA6" mask="url(#mask-6)"></path>
                        <path d="M181.120148,56.8343903 C181.243562,56.9022108 179.874241,59.3047237 179.190829,62.6313384 C178.475671,65.951512 178.75139,68.744277 178.612639,68.75 C178.561276,68.7560224 178.425022,68.0683452 178.381149,66.9354776 C178.357251,66.3694227 178.370092,65.6931121 178.425022,64.9448132 C178.487799,64.197651 178.596588,63.3785006 178.772078,62.5320704 C178.952562,61.6867768 179.182268,60.8968006 179.425172,60.1924524 C179.675566,59.4907565 179.934878,58.8727943 180.183488,58.3719076 C180.6775,57.3663455 181.076276,56.805595 181.120148,56.8343903" id="Fill-76" fill="#DBBEA6" mask="url(#mask-6)"></path>
                        <path d="M178.181849,46.314333 C178.17958,46.3067721 178.270343,46.2769064 178.451114,46.2258701 C178.63264,46.1823948 178.897367,46.0829686 179.260421,46.029664 C179.975561,45.8818478 181.065478,45.7536901 182.457183,45.8935673 C183.150011,45.9744692 183.919231,46.1041392 184.731941,46.3612108 C185.541626,46.6213068 186.399719,46.9827192 187.251004,47.501777 C188.102289,48.0178105 188.937312,48.7054771 189.668714,49.5719596 C190.402007,50.4380642 191.001423,51.4950822 191.431037,52.6757214 C192.286104,55.0456948 192.390104,57.8961654 191.743036,60.7644041 C191.106936,63.6454965 189.753048,66.5061743 188.214987,69.3955836 C186.675791,72.2899076 185.00877,75.3052064 183.108411,78.3314686 C181.208808,81.3554625 179.072087,84.3919319 176.590464,87.2650853 C174.110732,90.1386167 171.390477,92.6949671 168.494368,94.8090031 C165.601285,96.9249293 162.528565,98.5883339 159.428995,99.7160466 C158.660531,100.016594 157.870512,100.220739 157.105452,100.464201 C156.724245,100.592736 156.330181,100.662675 155.946327,100.760967 C155.561339,100.852454 155.17862,100.943564 154.798927,101.033917 C154.028572,101.162074 153.27448,101.316695 152.523791,101.4165 C152.147879,101.459975 151.774993,101.503072 151.404754,101.54617 C151.035271,101.591535 150.668435,101.633498 150.301978,101.647486 C147.379775,101.862217 144.643636,101.719693 142.178275,101.40478 C139.709132,101.097428 137.511524,100.589334 135.612299,100.059313 C133.706268,99.5432793 132.110345,98.9520146 130.81205,98.4632005 C129.524722,97.9441427 128.533132,97.5233769 127.877744,97.1993911 C127.551374,97.0421237 127.301397,96.9215269 127.129703,96.8387347 C126.962169,96.7551864 126.878212,96.7090648 126.881517,96.7018819 C126.884642,96.695077 126.975405,96.727211 127.149368,96.7967715 C127.325222,96.8701126 127.580872,96.9763436 127.915184,97.1154647 C128.581539,97.4118532 129.582206,97.8053996 130.874828,98.2976161 C132.178417,98.7595889 133.776231,99.3236343 135.678859,99.8135826 C137.575058,100.317897 139.764347,100.800662 142.217984,101.085709 C144.668218,101.377561 147.381666,101.500048 150.272858,101.27133 C150.635155,101.25583 150.998209,101.211977 151.36391,101.164721 C151.729611,101.120867 152.098337,101.07588 152.470089,101.030892 C153.211702,100.92882 153.95634,100.77193 154.71724,100.64226 C155.092017,100.551151 155.469441,100.459664 155.849891,100.367421 C156.228072,100.268751 156.617598,100.198434 156.993132,100.06952 C157.747981,99.8256801 158.527034,99.622291 159.28453,99.3225002 C162.340231,98.1985679 165.371729,96.5476389 168.231154,94.4491028 C171.093227,92.352457 173.786253,89.8184113 176.246319,86.9675627 C178.708277,84.1170921 180.834788,81.1014153 182.730986,78.0940554 C184.627563,75.0851834 186.298366,72.0823601 187.844748,69.1989995 C189.38886,66.3228217 190.735184,63.503351 191.375444,60.6808559 C192.024781,57.8757509 191.939312,55.0914385 191.127736,52.7830866 C190.720057,51.6334472 190.148247,50.6025144 189.446344,49.7568244 C188.745953,48.9100002 187.941562,48.2314068 187.116372,47.7176416 C186.291559,47.200852 185.456158,46.834903 184.66576,46.5672461 C183.872336,46.3033697 183.118244,46.1627364 182.43714,46.0693589 C181.070016,45.9049087 179.989932,46.0020666 179.275926,46.1200171 C178.913629,46.1581998 178.647389,46.2425042 178.462459,46.2708577 C178.27942,46.3067721 178.184118,46.3218939 178.181849,46.314333" id="Fill-77" fill="#DBBEA6" mask="url(#mask-6)"></path>
                        <path d="M9.17153058,10.6280148 C9.04006703,13.0768 8.82551555,15.736778 7.19699233,17.5478587 C6.29853495,18.5475543 5.00384052,19.2385258 4.48020199,20.48355 C4.02451091,21.5661472 4.2604806,22.8449322 3.82953125,23.9376576 C3.44991178,24.9020919 2.60832347,25.5870615 2.00492053,26.4258305 C0.69065428,28.2534165 0.601288607,30.8357446 1.5665856,32.8752735 C2.53225186,34.9148025 4.4454897,36.4074062 6.56921693,37.0912504 C8.69331344,37.7750947 11.0068504,37.6996955 13.1682442,37.1508946 C14.7642708,36.7457646 16.3167224,36.0750496 17.5885215,35.0153348 C18.8599513,33.95562 19.8355881,32.4821475 20.1265805,30.8376202 C20.4504387,29.0070332 19.9245845,27.147937 19.538318,25.3293539 C18.2783359,19.4020783 18.4932566,13.1570758 20.1576,7.33333333" id="Fill-78" fill="#000C38" mask="url(#mask-6)"></path>
                        <polyline id="Fill-79" fill="#EEA886" mask="url(#mask-6)" points="20.2274882 107.25 21.2137919 129.25 27.7549333 129.25 28.5023697 107.25 21.106848 107.25"></polyline>
                        <path d="M10.1159223,42.3222664 L10.5330444,40.8493402 C10.5330444,40.8493402 10.9247545,40.00077 11.2827026,38.3885988 C11.3756385,37.9701156 11.3945161,37.538157 11.346596,37.1118132 C11.2881481,36.5948853 11.1828692,35.9110134 11.0129709,35.5554149 C10.8024131,35.1152214 11.2206244,34.6398424 11.6039847,34.8460895 C11.987345,35.0523367 12.5961474,36.2508906 12.6368068,37.831245 C12.6778293,39.4115995 14.1499184,37.4408354 14.6988206,36.732633 C15.248086,36.0244305 17.0465396,33.9151702 17.3914187,33.9166667 C17.8971203,33.9189133 17.988241,34.4781387 17.4237284,35.1721172 C16.8526812,35.8747049 15.3094381,38.0711804 15.6862639,38.351916 C16.0572812,38.6289085 18.8046968,34.9838372 18.8046968,34.9838372 C18.8046968,34.9838372 19.269376,34.1068191 19.7151776,34.4163769 C20.5196534,34.9748536 17.3224428,38.6277856 17.0095105,38.9680372 C16.7924182,39.2042294 17.1910258,39.524268 17.4113853,39.2577563 C17.6379164,38.9837584 20.0694955,35.5565378 20.8935749,36.1172605 C21.5259743,36.5473474 18.2910085,39.1473337 18.1697563,40.1471268 C18.0485041,41.1469199 20.4281697,37.9184602 21.0159162,38.3545362 C21.2348237,38.5169886 21.3764056,38.6697088 19.7496655,40.3204343 C18.083718,42.010837 12.8477276,45.8333333 12.8477276,45.8333333 L10.1137441,42.2305595" id="Fill-80" fill="#EEA886" mask="url(#mask-6)"></path>
                        <path d="M19.049687,22 C18.9323135,21.3137949 19.2106454,18.4334183 19.2106454,18.4334183 C19.2106454,18.4334183 21.8360642,18.1550305 21.9954933,15.5472979 C22.1549224,12.9391824 21.9954933,6.92493166 21.9954933,6.92493166 L17.2130025,4.58333333 L11.9526066,8.57496391 L12.7493698,21.6147755 L19.049687,22 Z" id="Fill-81" fill="#EEA886" mask="url(#mask-6)"></path>
                        <path d="M13.2516769,11.3622439 C13.2516769,11.3622439 17.3900999,10.959442 18.1222087,7.08532291 L22.6132377,11.3622439 C22.6132377,11.3622439 23.9761318,8.49436984 21.4883619,5.82751672 C19.000592,3.16066361 17.2928293,3.71432633 16.3171754,3.71432633 C15.407474,3.71432633 10.8077525,4.72019128 9.43859471,10.1177378 C9.33948184,10.5091397 9.25731763,11.4781445 9.1943128,11.9166667 L13.2516769,11.3622439 Z" id="Fill-82" fill="#000C38" mask="url(#mask-6)"></path>
                        <path d="M32.5464791,66.8885741 L37.6966825,66.9166667 C37.169789,56.5763673 30.6949551,35.6815163 27.9197553,27.1290257 C27.1151901,24.6505152 24.984477,22.824126 22.3860464,22.3896282 C20.2367459,22.0307929 17.3485049,21.6974282 13.8829192,21.651731 C12.7506104,21.6367483 11.6232329,21.4914163 10.5212707,21.2359615 C9.95227127,21.1041139 9.39427252,21.02096 9.20498538,21.1423197 C8.09429853,21.8539972 7.69675761,24.5411416 3.67772512,28.1987893 L7.60495904,41.9000792 L5.23374884,56.7999839 L26.4134242,55.8478343 L23.7607489,45.9929739 L23.6587084,36.4313996 L23.7645423,36.3276445 C28.9997162,47.9197471 32.5464791,66.8885741 32.5464791,66.8885741" id="Fill-83" fill="#EEA886" mask="url(#mask-6)"></path>
                        <path d="M19.3080569,18.5978004 C19.3080569,18.5978004 17.4386281,18.61757 15.6303318,17.4166667 C15.6303318,17.4166667 16.4637701,19.3548579 19.2477396,19.245544 L19.3080569,18.5978004 Z" id="Fill-84" fill="#FF957E" mask="url(#mask-6)"></path>
                        <path d="M2.75829384,55.9166667 C2.75829384,55.9166667 3.95693122,87.9760399 5.18721324,97.7887621 C6.41672344,107.601109 7.46987264,129.25 7.46987264,129.25 L14.6261932,129.25 C14.6261932,129.25 14.7512281,97.9081638 15.0117175,93.3611344 C15.272207,88.8137296 15.6303318,64.3986975 15.6303318,64.3986975 C13.9813371,56.1693628 9.54221093,56.1524664 2.75829384,55.9166667" id="Fill-85" fill="#EEA886" mask="url(#mask-6)"></path>
                        <path d="M2.75829384,56.6118315 C2.75829384,56.6118315 14.3595338,58.0376736 14.8651001,64.1666667 L16.5265122,64.1666667 L26.6635071,55.8612174 L11.2227162,54.0833333 L2.75829384,56.6118315 Z" id="Fill-86" fill="#F98A3E" mask="url(#mask-6)"></path>
                        <path d="M25.2783856,41.25 C25.2783856,41.25 25.499839,37.9168244 26.4970293,36.6353883 C27.4937861,35.3539523 28.9512181,34.0197713 24.8246445,28.4166667 L24.8246445,40.1309728 L25.2783856,41.25 Z" id="Fill-87" fill="#FF957E" mask="url(#mask-6)"></path>
                        <path d="M32.1803052,65.152975 L32.0122393,66.5190887 C32.0122393,66.5190887 32.0463897,67.3606955 31.7762563,68.8207787 C31.7064206,69.1996515 31.5667494,69.5628004 31.3710562,69.8967476 C31.1331546,70.3018271 30.7947204,70.827457 30.5180639,71.058824 C30.1754089,71.3455993 30.3680324,71.8891995 30.7770696,71.8585003 C31.1853394,71.8278011 32.1492245,71.0603215 32.7551061,69.772079 C33.3613714,68.4838364 33.9327189,70.6440107 34.155272,71.4272142 C34.3782088,72.2107922 35.183237,74.6034566 35.4844511,74.7277508 C35.9261039,74.9096996 36.2073649,74.4814086 35.9660099,73.7038207 C35.721969,72.9172478 35.1705745,70.5455486 35.6003322,70.4508304 C36.0239505,70.3572354 37.1014144,74.3612325 37.1014144,74.3612325 C37.1014144,74.3612325 37.1896682,75.2533807 37.6900289,75.1597857 C38.5929038,74.9916889 37.125972,70.8177231 36.9763242,70.4238751 C36.8723382,70.1498287 37.3354788,70.0307758 37.4310232,70.3306544 C37.5292535,70.6391437 38.4106405,74.3485036 39.3315498,74.1856482 C40.0375803,74.0606052 38.1573904,70.7413495 38.4129427,69.8727873 C38.6681114,69.004225 39.5763582,72.5312617 40.2463197,72.384879 C40.4953489,72.3305939 40.6737751,72.2560922 39.852631,70.3040734 C39.0115338,68.3045082 35.8294084,63.25 35.8294084,63.25 L32.1450037,65.2274767" id="Fill-88" fill="#EEA886" mask="url(#mask-6)"></path>
                        <path d="M23.8280205,46.0314243 C26.1393401,49.8302672 26.6635071,55.2818485 26.6635071,55.2818485 C19.449422,57.2727993 16.051079,56.7790614 16.051079,56.7790614 L2.75829384,56.0561278 C3.05330052,46.0314243 6.92000848,46.3443359 6.66406321,42.7330167 C6.40848996,39.1220697 4.93010845,33.7906672 4.93010845,33.7906672 C8.25330474,33.3557165 9.01146818,21.0833333 9.01146818,21.0833333 L10.3425324,21.3311325 C10.3425324,21.3311325 11.0839552,34.1292517 17.8073546,34.2114793 C24.5311259,34.2937069 22.2648199,22.3792559 22.2648199,22.3792559 L23.9292081,22.7070503 L24.9600575,30.105306 C24.9600575,30.105306 26.273637,33.2258638 26.273637,34.0473961 C26.273637,34.8685563 24.7602862,36.5971972 24.7602862,36.5971972 L23.8280205,46.0314243 Z" id="Fill-89" fill="#F98A3E" mask="url(#mask-6)"></path>
                        <path d="M6.48387005,44.9166667 L23.9136082,45.6600217 C23.9136082,45.6600217 25.9093627,49.7161467 26.6208795,56.3375755 C27.1454693,61.2215193 33.0995261,108.035697 33.0995261,108.035697 C33.0995261,108.035697 28.3595626,108.714023 23.2811902,108.035697 C18.2024447,107.357372 11.8260298,113.306081 8.32739646,113.63833 C4.82876316,113.970578 0,111.271478 0,111.271478 L2.64533541,56.5005231 C2.64533541,56.5005231 2.54496937,48.1147005 6.48387005,44.9166667" id="Fill-90" fill="#5FBE71" mask="url(#mask-6)"></path>
                        <path d="M9.26496254,21.0833333 C9.26496254,21.0833333 3.27380291,22.5347734 3.69936892,29.2458347 C4.12455292,35.9572753 4.06686848,53.7644385 8.66175901,54.0731587 C13.2562675,54.3822581 26.6635071,47.5460399 26.6635071,47.5460399 L24.8875139,42.4214363 C24.8875139,42.4214363 13.1007869,46.5690581 12.0785117,45.3751377 C10.7311406,43.8004371 9.26496254,21.0833333 9.26496254,21.0833333" id="Fill-91" fill="#EEA886" mask="url(#mask-6)"></path>
                        <path d="M22.985782,43.9582014 L23.6718189,42.7487542 C23.6718189,42.7487542 24.2026184,42.0853619 24.8650891,40.7395908 C25.0371595,40.3902371 25.1456386,40.0127832 25.1927709,39.6254563 C25.2496289,39.1557275 25.3001278,38.5280301 25.2223221,38.1760183 C25.1265612,37.7400857 25.6023731,37.4127565 25.9031221,37.6797082 C26.2038711,37.94666 26.4967647,39.1412977 26.1990082,40.5470665 C25.9012517,41.9528354 27.639536,40.5371935 28.2825553,40.0325293 C28.9252006,39.5282449 30.9859297,38.0620986 31.2952822,38.1399437 C31.7486501,38.2538634 31.7119916,38.7684006 31.0584985,39.2567363 C30.3971499,39.7511477 28.547394,41.35058 28.8260731,41.682466 C29.1010116,42.0094155 32.338178,39.3957183 32.338178,39.3957183 C32.338178,39.3957183 32.9407982,38.7235922 33.2759612,39.0961096 C33.8797036,39.7678559 30.2366757,42.2885187 29.8839315,42.5197756 C29.6389183,42.6804024 29.9291935,43.0517805 30.1831842,42.865332 C30.4446563,42.6728077 33.3526447,40.1821438 33.9739682,40.8599659 C34.4501541,41.3801991 30.9964035,42.961784 30.6758291,43.8188397 C30.3552546,44.6758954 33.1749634,42.3492758 33.6103762,42.8649522 C33.7723467,43.0570968 33.8673594,43.2230398 32.0580026,44.3219849 C30.2048801,45.4475113 24.6956373,47.6666667 24.6956373,47.6666667 L23.002989,43.8769387" id="Fill-92" fill="#EEA886" mask="url(#mask-6)"></path>
                        <path d="M28.4219791,130.11154 L28.4837615,126.545171 L21.1469194,126.5 L21.4303916,131.720171 L21.859961,131.749234 C23.773035,131.863386 31.5943238,132.199889 32.8757635,131.833972 C34.3047541,131.426037 28.4219791,130.11154 28.4219791,130.11154" id="Fill-93" fill="#4039B3" mask="url(#mask-6)"></path>
                        <path d="M14.6303105,130.11154 L15.0242731,126.547271 L7.35545024,126.5 L7.6385654,131.720171 L8.0681445,131.749234 C9.98126157,131.863386 17.8027267,132.199889 19.0841953,131.833972 C20.5135816,131.426037 14.6303105,130.11154 14.6303105,130.11154" id="Fill-94" fill="#4039B3" mask="url(#mask-6)"></path>
                    </g>
                </g>
            </g>
        </g>
    </g>
</svg>