<?xml version="1.0" encoding="UTF-8"?>
<svg width="129px" height="106px" viewBox="0 0 129 106" version="1.1" xmlns="http://www.w3.org/2000/svg" xmlns:xlink="http://www.w3.org/1999/xlink">
    <!-- Generator: Sketch 61.2 (89653) - https://sketch.com -->
    <title>ILUSTRACIÓN</title>
    <desc>Created with Sketch.</desc>
    <defs>
        <polygon id="path-1" points="0 0 106 0 106 106 0 106"></polygon>
        <polygon id="path-3" points="0.0201274839 0.188363597 7.7151146 0.188363597 7.7151146 24.0705753 0.0201274839 24.0705753"></polygon>
        <polygon id="path-5" points="0 0.208422241 7.69501237 0.208422241 7.69501237 24.090634 0 24.090634"></polygon>
    </defs>
    <g id="Page-1" stroke="none" stroke-width="1" fill="none" fill-rule="evenodd">
        <g id="Desktop-Copy-2" transform="translate(-895.000000, -810.000000)">
            <g id="TALLER" transform="translate(732.000000, 622.000000)">
                <g id="ILUSTRACIÓN" transform="translate(163.000000, 188.000000)">
                    <g id="Group-3-Copy" transform="translate(12.000000, 0.000000)">
                        <mask id="mask-2" fill="white">
                            <use xlink:href="#path-1"></use>
                        </mask>
                        <g id="Clip-2"></g>
                        <path d="M106,53 C106,82.2711756 82.2711756,106 53,106 C23.7288244,106 0,82.2711756 0,53 C0,23.7291738 23.7288244,0 53,0 C82.2711756,0 106,23.7291738 106,53" id="Fill-1" fill="#D4FCD9" mask="url(#mask-2)"></path>
                    </g>
                    <g id="Group-239" transform="translate(0.000000, 29.000000)">
                        <path d="M89.1621709,66.2493132 L89.6366099,69.987773 C89.6366099,69.987773 85.2264292,71.3827207 86.2785503,71.631275 C87.3306713,71.8803632 94.5473064,70.8372894 94.5473064,70.8372894 C94.5473064,70.8372894 94.0595629,66.2589243 94.1125149,66.2589243 C94.1657329,66.2591913 89.1621709,66.2493132 89.1621709,66.2493132" id="Fill-1" fill="#695347"></path>
                        <g id="Group-5" transform="translate(120.442429, 47.579052)">
                            <mask id="mask-4" fill="white">
                                <use xlink:href="#path-3"></use>
                            </mask>
                            <g id="Clip-4"></g>
                            <polygon id="Fill-3" fill="#B79380" mask="url(#mask-4)" points="0.0201274839 0.268750324 6.92584954 24.0705753 7.71529138 24.0705753 2.41648501 0.188363597"></polygon>
                        </g>
                        <polygon id="Fill-6" fill="#B79380" points="107.540946 48.1885298 102.376064 71.6697115 103.292334 71.6697115 110.204822 48.1813187"></polygon>
                        <polygon id="Fill-8" fill="#B79380" points="114.420307 48.1813187 115.230633 71.6697115 116.341587 71.6697115 116.829156 48.2715875"></polygon>
                        <polygon id="Fill-10" fill="#B79380" points="107.761682 57.7356486 123.350382 57.2153159 123.453489 58.9351272 106.591549 59.6243819"></polygon>
                        <polygon id="Fill-12" fill="#000C38" points="107.441963 48.1892526 107.193761 49.3858516 109.870605 49.3858516 110.204822 48.1813187"></polygon>
                        <polygon id="Fill-14" fill="#000C38" points="114.420307 48.3730245 114.45965 49.3858516 116.800543 49.3858516 116.829156 48.1813187"></polygon>
                        <polyline id="Fill-16" fill="#000C38" points="114.220582 57.2153159 114.263869 59.0221154 113.509205 59.0221154 113.215883 57.259915 114.420307 57.2153159"></polyline>
                        <polygon id="Fill-18" fill="#000C38" points="116.226944 57.2477177 116.226944 59.0221154 117.16031 58.9913071 117.431368 57.2153159"></polygon>
                        <polygon id="Fill-20" fill="#000C38" points="120.442429 48.2853331 120.670997 49.3858516 122.851277 49.3858516 122.660102 48.1813187"></polygon>
                        <path d="M102.135746,46.9273717 C104.398178,45.8167003 113.541408,46.415284 113.541408,46.415284 C113.541408,46.415284 110.959739,14.3193569 114.297335,14.06242 C117.635441,13.8054832 125.106815,11.4244161 126.559561,16.252124 C128.012307,21.079832 126.074718,48.3572366 124.142734,48.3572366 C119.7394,48.3572366 106.327614,49.3148175 102.277658,48.3597882 C101.233831,48.1135677 102.135746,46.9273717 102.135746,46.9273717" id="Fill-22" fill="#053142"></path>
                        <path d="M123.642515,16.2616881 C123.657546,16.253723 123.725183,16.3423674 123.841134,16.5199131 C123.901793,16.6075298 123.9646,16.7221251 124.038142,16.8580465 C124.115442,16.9926833 124.190059,17.1540418 124.273532,17.3367263 C124.605279,18.0661798 124.947762,19.1882381 125.103705,20.604236 C125.2677,22.0204909 125.277899,23.707047 125.245154,25.5737182 C125.211603,27.4419311 125.093237,29.4928285 124.918506,31.6400786 C124.740286,33.7875855 124.525295,35.8282053 124.322382,37.6820296 C124.122421,39.5350829 123.925949,41.2105906 123.652983,42.6039778 C123.38619,43.9983928 123.054174,45.1055485 122.774229,45.8511892 C122.492137,46.59683 122.281171,46.9868653 122.254599,46.9767857 C122.217828,46.962456 122.368134,46.5503238 122.591178,45.7954332 C122.812074,45.0395148 123.088798,43.9354424 123.308889,42.5484787 C123.535154,41.1625428 123.694585,39.496028 123.870121,37.6393775 C124.048073,35.7834977 124.248839,33.7444196 124.426522,31.6028222 C124.600716,29.4619957 124.732503,27.420862 124.790478,25.5626698 C124.848185,23.7047345 124.873415,22.0279422 124.756391,20.6360966 C124.64715,19.2416816 124.364521,18.138637 124.094239,17.40276 C123.823688,16.6661121 123.605475,16.2812156 123.642515,16.2616881" id="Fill-24" fill="#004B61"></path>
                        <path d="M90.4281147,28.6256042 L89.6022952,28.1764135 C89.6022952,28.1764135 89.0672715,27.9828013 88.2019706,27.4482463 C87.9772302,27.309658 87.7757738,27.1332729 87.6029161,26.9304043 C87.393614,26.6845964 87.1273676,26.3472534 87.034485,26.1220153 C86.9190778,25.8432959 86.5414735,25.8204121 86.4835169,26.0736765 C86.4258133,26.3269408 86.725467,27.1011327 87.4199349,27.7935601 C88.1141497,28.4859874 86.6505536,28.2784906 86.1167953,28.2126676 C85.5827839,28.1465875 83.9288671,28.020341 83.7942254,28.1694712 C83.5968183,28.3882814 83.8121945,28.6662294 84.3459528,28.7197106 C84.8860382,28.773706 86.4789613,29.0470258 86.4571959,29.3293449 C86.4359367,29.6072929 83.7190588,29.2339529 83.7190588,29.2339529 C83.7190588,29.2339529 83.1422759,29.0593677 83.1063377,29.3838546 C83.0418008,29.9688053 85.9391289,30.1518756 86.2144865,30.1624175 C86.4058195,30.1696169 86.3934183,30.4781624 86.1871532,30.4591354 C85.9748141,30.4395942 83.4801457,30.023315 83.4085224,30.6177792 C83.3538558,31.073655 85.7923391,30.7908217 86.2891468,31.1654473 C86.7862077,31.5400728 84.4008724,31.1865312 84.3664527,31.6259513 C84.3532923,31.7897375 84.3664527,31.9157269 85.7470367,31.9201236 C87.1607749,31.9247261 90.9340336,31.3019786 90.9340336,31.3019786 L90.3878741,28.5854933" id="Fill-26" fill="#EEA886"></path>
                        <path d="M108.848513,16.2611951 C108.848513,16.2611951 101.598575,25.7863345 99.9355773,26.211609 C98.2723214,26.6366311 88.7689237,27.194662 88.7689237,27.194662 L87.9229729,31.2205099 C87.9229729,31.2205099 100.08887,31.8484523 102.76737,29.9146521 C106.977253,26.8751382 111.400043,19.8839786 111.400043,19.8839786 C111.511271,17.5781579 110.611641,16.4270143 108.848513,16.2611951" id="Fill-28" fill="#60C6CC"></path>
                        <path d="M99.9672157,63.2854579 L102.159631,66.1878083 C102.159631,66.1878083 99.2201238,69.5546597 100.202153,69.2398717 C101.18393,68.9248234 106.591549,64.4563442 106.591549,64.4563442 C106.591549,64.4563442 103.983183,60.8554197 104.026728,60.8291223 C104.070272,60.8028249 99.9672157,63.2854579 99.9672157,63.2854579" id="Fill-30" fill="#695347"></path>
                        <polygon id="Fill-32" fill="#ED701D" points="96.0355689 41.9654198 105.387125 61.6964991 99.4452461 65.0447802 89.7296093 47.3734531 90.3416944 41.5563874"></polygon>
                        <path d="M118.232212,34.3291896 C118.232212,34.3291896 122.19864,42.8486956 114.378061,45.7722527 L110.204822,36.656929 L118.232212,34.3291896 Z" id="Fill-34" fill="#F98A3E"></path>
                        <path d="M112.985981,36.7966584 C112.985981,36.7966584 90.2891004,30.6087611 87.7387718,35.8038732 C85.1884431,40.9992383 88.2231533,68.0561126 88.2231533,68.0561126 L95.3273309,67.3144958 C95.3273309,67.3144958 94.1460617,43.5569565 95.3273309,42.7217522 C96.508855,41.8868009 112.862401,45.989217 114.579268,45.9148529 C118.757791,45.7342545 121.713767,37.9953359 112.985981,36.7966584" id="Fill-36" fill="#F98A3E"></path>
                        <path d="M113.086615,13.3272567 C110.145745,13.3912803 107.756006,15.7732684 107.620548,18.7798085 C107.508211,21.2780162 107.403413,24.3421519 107.391601,27.2658983 C107.385067,28.855176 105.387125,34.6317029 105.387125,34.6317029 L106.143327,35.0405286 C107.176477,35.5989999 108.303869,35.9654002 109.468204,36.067221 C111.678004,36.2608346 113.610353,36.048451 115.972197,35.3940728 L118.231505,34.7682352 C118.231505,34.7682352 119.533811,27.8156274 120.271667,21.2883012 C120.888139,15.8336924 119.871074,13.716541 116.63868,13.2498626 L113.086615,13.3272567 Z" id="Fill-38" fill="#86D2DB"></path>
                        <path d="M116.226501,39.1448453 C116.210476,39.1718376 115.897115,38.975482 115.380354,38.6859765 C114.86384,38.3954125 114.136775,38.0225484 113.304188,37.6901728 C112.471108,37.359385 111.693254,37.1336554 111.125458,36.9923429 C110.557416,36.850501 110.20091,36.7798448 110.204822,36.7483538 C110.207813,36.7229493 110.571962,36.741738 111.152825,36.8478547 C111.732702,36.9534422 112.527321,37.1595892 113.371988,37.4948757 C114.21567,37.8314854 114.943228,38.2310771 115.447415,38.5571015 C115.952095,38.8828614 116.239815,39.1236749 116.226501,39.1448453" id="Fill-40" fill="#ED701D"></path>
                        <path d="M117.430937,37.7702476 C117.415417,37.859769 116.75113,37.6025415 115.92147,37.6525797 C115.091556,37.6897174 114.440245,38.0157474 114.420909,37.9277897 C114.397757,37.8589872 115.045507,37.3851882 115.914855,37.3449231 C116.783441,37.2941031 117.450781,37.6987086 117.430937,37.7702476" id="Fill-42" fill="#ED701D"></path>
                        <path d="M104.784,62.0334478 C104.777673,62.0361786 104.740727,61.9720881 104.67645,61.8477524 C104.610401,61.7159823 104.518794,61.5331962 104.402387,61.3009321 C104.28016,61.0620026 104.13212,60.7733389 103.961053,60.4390427 C103.785683,60.1037211 103.587032,59.722767 103.367377,59.3028459 C102.471548,57.6188033 101.239911,55.3038536 99.8797203,52.7466417 C98.5162394,50.1855844 97.2947246,47.8601239 96.4416634,46.1594177 C96.2318776,45.7338566 96.0415774,45.3480317 95.8737994,45.0080955 C95.7141193,44.6676467 95.5759492,44.373343 95.4618197,44.1300554 C95.3532575,43.8867677 95.2745562,43.6952653 95.2214138,43.565546 C95.1687776,43.4355705 95.1439779,43.3660963 95.1505574,43.3631868 C95.1566308,43.3604564 95.1935774,43.4242905 95.2578543,43.5486261 C95.3239027,43.6803963 95.4155099,43.8634388 95.5316639,44.0957029 C95.6541444,44.334376 95.8021838,44.623296 95.9732515,44.9573359 C96.1486213,45.2926575 96.3472725,45.6736115 96.5666744,46.0935327 C97.4625026,47.7775753 98.6943928,50.0927813 100.05509,52.6507623 C101.418065,55.2110505 102.639326,57.5362547 103.492388,59.2369609 C103.702427,59.662522 103.892727,60.0483469 104.060505,60.388283 C104.219932,60.7287319 104.358102,61.023292 104.472484,61.2665796 C104.580794,61.5096108 104.659748,61.7011133 104.713143,61.8310889 C104.76578,61.9610645 104.790073,62.0305386 104.784,62.0334478" id="Fill-44" fill="#E99A2D"></path>
                        <path d="M116.829156,44.8852252 C116.828139,44.8885286 116.784841,44.8809054 116.700762,44.8628639 C116.613913,44.8432978 116.490061,44.8150921 116.328951,44.778501 C115.999684,44.6999824 115.520131,44.5853809 114.903636,44.4382539 C113.665861,44.1424753 111.87377,43.7183735 109.651718,43.2315076 C107.429917,42.7436254 104.7774,42.1945038 101.820286,41.6494478 C100.341603,41.3765387 98.7871481,41.1038836 97.1727807,40.8391059 C96.769,40.7740549 96.3616951,40.7084957 95.9511176,40.6421742 C95.5428057,40.5786479 95.1297109,40.5219824 94.7251751,40.5667049 C94.3208909,40.6038043 93.9392628,40.7821863 93.6631111,41.0835552 C93.3826799,41.3826372 93.2112493,41.7803121 93.0921793,42.1894216 C92.9728576,42.6018346 92.9079103,43.0277152 92.8563049,43.456645 C92.8031892,43.8850666 92.7505768,44.310693 92.6982163,44.7332702 C92.6571837,45.1571179 92.6161511,45.5779164 92.5758737,45.9951573 C92.534086,46.4123983 92.5129403,46.8281146 92.4807184,47.2392571 C92.3732282,48.8848432 92.3198607,50.476305 92.3218746,51.9928057 C92.3206159,55.0255529 92.4683835,57.7556607 92.6229479,60.0451498 C92.7810366,62.3346389 92.9401322,64.1855422 93.0458603,65.4649626 C93.097214,66.1025129 93.1369879,66.5982724 93.1641751,66.9387735 C93.1755031,67.1049584 93.1840621,67.2325193 93.1901037,67.3224726 C93.1948866,67.4091225 93.1956418,67.4533368 93.1923693,67.4538462 C93.188845,67.4538462 93.1815447,67.410393 93.169965,67.3245054 C93.1593922,67.2350604 93.1440364,67.1080077 93.1244012,66.9425851 C93.0884033,66.6031004 93.0362945,66.1083573 92.9690816,65.4723316 C92.8394388,64.1949441 92.6589458,62.3455654 92.482984,60.055314 C92.3105465,57.7655708 92.1479266,55.0326678 92.139116,51.9928057 C92.1320674,50.4727475 92.1816589,48.876966 92.2868836,47.2260436 C92.318602,46.8136306 92.3392442,46.3963897 92.3805285,45.9778782 C92.4208059,45.5588585 92.461335,45.1365354 92.5018641,44.711163 C92.5542246,44.2870612 92.606837,43.8601643 92.6599528,43.4299639 C92.7113064,43.00078 92.7777641,42.5624483 92.901617,42.1332644 C93.0262251,41.7071297 93.2064664,41.2804868 93.5183643,40.9468465 C93.672677,40.7804075 93.8587081,40.643953 94.0616053,40.5448519 C94.2652578,40.4460049 94.485273,40.3926428 94.703526,40.3687569 C95.1422976,40.3212392 95.5697412,40.3824786 95.9813256,40.4465131 C96.3921548,40.5135969 96.7999632,40.5799184 97.2039956,40.6454776 C98.81937,40.9133046 100.37458,41.1900253 101.853263,41.4680166 C104.811133,42.0234909 107.462643,42.5876047 109.681926,43.0932743 C111.901713,43.5984358 113.689273,44.0433742 114.922012,44.3625305 C115.538508,44.5208381 116.015794,44.6504319 116.338769,44.7393687 C116.497864,44.7843454 116.619955,44.8186496 116.705796,44.8430437 C116.788113,44.8676919 116.829901,44.8816677 116.829156,44.8852252" id="Fill-46" fill="#ED701D"></path>
                        <path d="M95.1455167,42.7551396 C95.0983653,42.8116217 94.6465518,42.4478212 94.1369294,41.9429911 C94.0742762,41.8791419 94.0129148,41.8173975 93.9525223,41.7563548 L94.1278866,41.5637546 C94.5070354,42.025083 94.7615236,42.4032671 94.7166329,42.4485229 C94.6714193,42.4941295 94.3423285,42.1924242 93.9450943,41.7486368 L94.1204587,41.5563874 C94.182143,41.6160268 94.2444732,41.6763678 94.3080953,41.7388138 C94.8177177,42.2436439 95.1926681,42.6986576 95.1455167,42.7551396" id="Fill-48" fill="#ED701D"></path>
                        <path d="M95.7157851,42.7606606 C95.6370002,42.7725093 95.4542783,42.3775502 95.307805,41.8785851 C95.1613316,41.3798833 95.1069589,40.9659661 95.185374,40.9543807 C95.2641589,40.9425319 95.4465108,41.337491 95.5933541,41.8361928 C95.7394575,42.3351579 95.79457,42.7490751 95.7157851,42.7606606" id="Fill-50" fill="#ED701D"></path>
                        <polygon id="Fill-52" fill="#C65B16" points="88.7782811 27.3225208 87.9229729 31.2441016 89.4358091 31.3178571 90.3318214 27.1019918"></polygon>
                        <path d="M121.646605,46.9393884 C121.621063,47.1002703 119.617023,46.7051541 117.13162,46.4555097 C114.645971,46.1950782 112.617863,46.1765861 112.613671,46.0123139 C112.606811,45.8640683 114.65162,45.6273684 117.168459,45.8908819 C119.685298,46.1439165 121.672392,46.7942248 121.646605,46.9393884" id="Fill-54" fill="#004B61"></path>
                        <path d="M121.384829,26.0240665 C121.367883,26.0410871 121.306299,26.0151635 121.278194,25.8818794 C121.252155,25.7493809 121.304026,25.5425157 121.453232,25.4060894 C121.527009,25.3390546 121.631578,25.282494 121.761152,25.2976815 C121.828316,25.3089413 121.887833,25.3351268 121.939911,25.3741431 C121.994468,25.4123739 122.043859,25.4652686 122.084984,25.5265426 C122.248243,25.7760901 122.292881,26.1227858 122.204432,26.454032 C122.112263,26.7740185 121.910152,27.0191145 121.65989,27.0869349 C121.598099,27.1023843 121.535069,27.1068358 121.475138,27.0960998 C121.415621,27.0890297 121.34887,27.0591783 121.298239,27.0238279 C121.195324,26.9473663 121.131674,26.8413151 121.093235,26.7394537 C121.016152,26.5336358 121.039504,26.3267706 121.102535,26.2235998 C121.164739,26.1191198 121.225703,26.1154538 121.239135,26.1382352 C121.257528,26.1652062 121.238722,26.2209813 121.239135,26.295348 C121.237276,26.3665725 121.260214,26.4707907 121.323865,26.5645347 C121.35507,26.6103593 121.397228,26.6493756 121.43794,26.6661343 C121.460259,26.6718951 121.473692,26.6763467 121.50035,26.6737281 C121.525769,26.6737281 121.551395,26.6663962 121.577434,26.6556601 C121.680969,26.6150727 121.797937,26.4694814 121.846295,26.2927295 C121.895066,26.1246188 121.87192,25.9143494 121.811163,25.8027993 C121.743379,25.6860121 121.684689,25.6590411 121.589833,25.6991048 C121.50097,25.7412634 121.446413,25.821391 121.42616,25.8813557 C121.403635,25.943939 121.408388,26.0054749 121.384829,26.0240665" id="Fill-56" fill="#004B61"></path>
                        <polygon id="Fill-58" fill="#AACCEA" points="81.9008514 19.2794114 86.4761143 32.5223901 107.193761 32.5223901 107.041115 31.8406219 98.6636015 31.5838752 94.8042048 19.2725275"></polygon>
                        <path d="M90.9212582,26.6654086 C90.9890843,27.1586508 90.7800852,27.6190103 90.4545591,27.6939525 C90.1290331,27.7686399 89.8102108,27.4293606 89.7423847,26.9361183 C89.6745585,26.4431309 89.8835577,25.9825166 90.2090837,25.9078293 C90.5346098,25.832887 90.853432,26.1721663 90.9212582,26.6654086" id="Fill-60" fill="#FFFFFF"></path>
                        <path d="M101.18759,30.2942804 L100.354058,29.8746232 C100.354058,29.8746232 99.8170487,29.6995531 98.9415506,29.1968334 C98.7141322,29.0662337 98.5085761,28.8978085 98.330662,28.7017811 C98.1150543,28.4643502 97.8406445,28.1379785 97.7408819,27.9171601 C97.6177493,27.6439485 97.2423204,27.6334698 97.1928161,27.8870021 C97.1433118,28.1405343 97.4652156,28.8998531 98.1763693,29.5651197 C98.8870204,30.2306418 97.4277732,30.0719286 96.8960414,30.0236245 C96.3643095,29.9755761 94.7188556,29.9040146 94.589692,30.056594 C94.4007211,30.2802237 94.623365,30.5496017 95.1545943,30.5851269 C95.6923572,30.6211632 97.2815219,30.8412149 97.2689573,31.1220938 C97.2563927,31.3991392 94.5487316,31.1162156 94.5487316,31.1162156 C94.5487316,31.1162156 93.9707621,30.9618472 93.945633,31.2851519 C93.899898,31.8683783 96.7806988,31.9560411 97.0543547,31.9578302 C97.2445821,31.9588525 97.2418179,32.2655447 97.0365131,32.2535326 C96.8254286,32.2410093 94.3361393,31.9085038 94.2838708,32.5011865 C94.2439155,32.9561133 96.6550532,32.59575 97.1601483,32.9517685 C97.664992,33.3080427 95.2867734,33.0343198 95.2664188,33.4718674 C95.2586288,33.6349254 95.2757166,33.759647 96.6457555,33.7192658 C98.0487135,33.6778624 101.773852,32.9366895 101.773852,32.9366895 L101.146378,30.2556883" id="Fill-62" fill="#EEA886"></path>
                        <path d="M117.461005,15.0673101 C117.461005,15.0673101 111.932547,25.7456791 110.362445,26.4435734 C108.792342,27.1414678 99.4953283,29.40077 99.4953283,29.40077 L99.3650036,33.1246566 C99.3650036,33.1246566 111.48029,32.0290211 113.794588,29.6614293 C116.592173,26.800292 119.113077,21.5922015 120.128524,19.3387596 C120.557251,18.38785 120.560096,17.2832966 120.054829,16.3695875 C119.517239,15.3980392 118.640909,14.9829717 117.461005,15.0673101" id="Fill-64" fill="#86D2DB"></path>
                        <path d="M111.370648,14.4543956 C111.436603,14.0028959 111.180801,12.122547 111.180801,12.122547 C111.180801,12.122547 109.359401,11.99544 109.19128,10.2912741 C109.023418,8.58686275 109.000398,4.64531959 109.000398,4.64531959 L112.254448,3.01133242 L115.979756,5.5142111 L116.829156,7.38302718 L115.713348,11.8290722 L115.717745,14.069394 L111.370648,14.4543956 Z" id="Fill-66" fill="#EEA886"></path>
                        <path d="M112.011459,12.2463068 C112.011459,12.2463068 113.249556,12.2232224 114.420307,11.4430632 C114.420307,11.4430632 113.911652,12.6625331 112.065863,12.6474575 L112.011459,12.2463068 Z" id="Fill-68" fill="#FF957E"></path>
                        <path d="M117.742344,8.71608378 C117.244956,9.78766594 116.938017,11.3475512 116.938017,11.3475512 C116.663832,11.8348412 116.572173,10.2990165 116.572173,10.2990165 C116.572173,10.2990165 116.337611,8.82271013 116.550249,8.24728242 C116.550249,8.24728242 117.487442,8.5380355 117.698496,6.92597679 C117.802834,6.12944503 116.548136,5.74751501 116.206594,6.71145774 L115.423663,6.78085351 C115.423663,6.78085351 115.360003,3.76998878 113.555616,4.32490169 C113.555616,4.32490169 112.247296,5.09939903 111.46727,4.62527901 C110.687509,4.15141226 110.743508,3.98754706 110.743508,3.98754706 C110.743508,3.98754706 110.368155,4.77951998 109.36202,4.25930496 C108.356148,3.7393432 108.223546,2.81187125 108.57222,2.36839681 C108.774029,2.11208833 108.969497,1.8266539 109.299153,1.76966832 C109.628544,1.71268274 109.985935,1.83881082 110.198044,2.08701468 C109.951595,1.74054236 110.125668,1.22235349 110.49204,0.99289156 C110.858148,0.763429628 111.346555,0.781158475 111.753606,0.935146173 C112.160656,1.08913387 112.504575,1.36190484 112.840834,1.63011697 C113.071434,0.994664445 113.781461,0.551696543 114.480922,0.606909238 C115.180648,0.662121932 115.805091,1.21044984 115.924485,1.87350871 C116.302215,1.42268946 117.027299,1.31960888 117.571705,1.56958562 C118.115584,1.81930909 118.474031,2.36358469 118.577841,2.93344048 C118.681915,3.503043 118.556973,4.09392014 118.32875,4.62933132 C118.749272,4.39708342 119.332773,4.56373458 119.615938,4.94135902 C119.89884,5.31923673 119.901481,5.84907598 119.694654,6.26975619 C119.487827,6.69068966 119.098739,7.00980891 118.667123,7.22280834 C118.987004,7.47126546 119.084475,7.94715837 118.886629,8.29312415 C118.688518,8.6393432 118.217544,8.81612513 117.827135,8.69101013" id="Fill-70" fill="#3E322C"></path>
                        <path d="M116.228337,7.70349791 C116.234158,7.69953313 116.249679,7.72192248 116.286325,7.74291251 C116.32211,7.76343608 116.384409,7.7802281 116.452529,7.75760552 C116.590493,7.71282681 116.717248,7.48846679 116.737296,7.23961842 C116.747643,7.11391151 116.729966,6.9924026 116.694397,6.89048439 C116.660984,6.78670039 116.604505,6.71230242 116.537248,6.69457751 C116.470421,6.67335427 116.419978,6.7141682 116.402086,6.75195024 C116.3829,6.78973228 116.389367,6.81771898 116.382469,6.81958476 C116.378589,6.82284987 116.356385,6.79486317 116.369751,6.73819011 C116.376649,6.71113631 116.393463,6.67941805 116.424936,6.65492969 C116.457272,6.62997489 116.502972,6.61924666 116.550182,6.62787589 C116.648266,6.64163601 116.731475,6.74565323 116.770709,6.85760002 C116.815331,6.97001325 116.837751,7.10691484 116.82611,7.24778121 C116.802397,7.52601561 116.656026,7.7781291 116.46805,7.8238407 C116.376649,7.84319817 116.303355,7.80914769 116.266493,7.77393109 C116.228769,7.73708194 116.22381,7.70583013 116.228337,7.70349791" id="Fill-72" fill="#FF957E"></path>
                        <path d="M119.837276,20.4781386 C119.886185,20.5143207 119.319354,21.3762296 118.554827,22.8612458 C118.166128,23.6006526 117.722085,24.4935747 117.172243,25.4629962 C116.61854,26.4275072 115.952604,27.4749786 115.057052,28.423983 C114.165876,29.379707 113.09837,30.0736277 112.076426,30.5300388 C111.053196,30.9954955 110.081706,31.2681534 109.26621,31.4635366 C108.448656,31.6573692 107.780917,31.7721181 107.318597,31.8434485 C106.855762,31.9140036 106.597316,31.9364882 106.591549,31.9083178 C106.585732,31.8788553 106.833367,31.8013222 107.284876,31.681146 C107.735869,31.5599361 108.391767,31.4004764 109.190273,31.171754 C109.986719,30.9417393 110.930408,30.643754 111.910907,30.1739037 C112.893466,29.710773 113.894559,29.045798 114.749182,28.1303912 C115.608953,27.2198949 116.270256,26.2055043 116.83477,25.2645116 C117.395938,24.3186085 117.86804,23.4393838 118.292262,22.7149668 C119.130153,21.2565703 119.792743,20.4432487 119.837276,20.4781386" id="Fill-74" fill="#58A9AE"></path>
                        <path d="M115.617422,18.0688787 C115.664199,18.0910893 115.485555,18.6715929 115.107346,19.5701116 C114.728902,20.4683779 114.146663,21.6808734 113.385074,22.9494 C113.003339,23.5841681 112.596688,24.1644194 112.184631,24.6545664 C111.771164,25.1434514 111.350409,25.5394559 110.966559,25.8251646 C110.193923,26.4001156 109.614034,26.5356506 109.603456,26.492239 C109.57854,26.4281312 110.106716,26.1982013 110.801548,25.5899344 C111.148494,25.2868106 111.531404,24.8867679 111.916195,24.4016687 C112.29934,23.9148028 112.685305,23.3456569 113.059988,22.7224988 C114.561071,20.2220425 115.512351,18.0173906 115.617422,18.0688787" id="Fill-76" fill="#58A9AE"></path>
                        <polygon id="Fill-78" fill="#B79380" points="74.0720936 46.453331 81.0977043 69.8629121 81.9008514 69.8629121 76.5100537 46.3745192"></polygon>
                        <polygon id="Fill-80" fill="#B79380" points="61.7728233 46.3817303 56.6079414 69.8629121 57.5242109 69.8629121 64.4366993 46.3745192"></polygon>
                        <polygon id="Fill-82" fill="#B79380" points="67.44776 46.3745192 68.2580854 69.8629121 69.3690399 69.8629121 69.8566086 46.464789"></polygon>
                        <polygon id="Fill-84" fill="#B79380" points="61.3913467 55.9291152 76.9800468 55.4085165 77.0831543 57.1285938 60.2212143 57.8175824"></polygon>
                        <polygon id="Fill-86" fill="#000C38" points="61.6738399 46.3824531 61.4256386 47.5790522 64.1024824 47.5790522 64.4366993 46.3745192"></polygon>
                        <polygon id="Fill-88" fill="#000C38" points="67.44776 46.566225 67.4871027 47.5790522 69.8279957 47.5790522 69.8566086 46.3745192"></polygon>
                        <polyline id="Fill-90" fill="#000C38" points="67.8502473 56.010783 67.8935337 57.8175824 67.13887 57.8175824 66.8455479 56.0553887 68.0499721 56.010783"></polyline>
                        <polygon id="Fill-92" fill="#000C38" points="69.8566086 55.4409183 69.8566086 57.2153159 70.7899754 57.1842421 71.0610329 55.4085165"></polygon>
                        <polygon id="Fill-94" fill="#000C38" points="74.0720936 45.8759391 74.3006619 46.9767857 76.4809422 46.9767857 76.2897674 45.7722527"></polygon>
                        <path d="M59.7218619,46.3745192 L79.0769208,46.3745192 C80.3011609,46.3745192 82.9288046,43.0092089 68.6722974,43.3938081 C55.284797,43.7547231 59.7218619,46.3745192 59.7218619,46.3745192" id="Fill-96" fill="#053142"></path>
                        <path d="M64.8403227,10.1867946 C64.206268,10.2609789 63.5523125,10.2776378 62.9424411,10.0842381 C62.3323177,9.89057822 61.7675379,9.4590081 61.5307436,8.84679283 C61.2942011,8.23431727 61.4602091,7.4440598 61.9955155,7.08537246 C62.2494397,6.91539943 62.588761,6.82091212 62.7069062,6.53302518 C62.8386546,6.2118204 62.6116847,5.8679699 62.4640661,5.55431369 C62.0710882,4.71928539 62.2675771,3.63020856 62.9250594,2.99716965 C63.5827935,2.36465132 64.6478643,2.23970943 65.4260109,2.7038165 C65.5444081,1.26308031 66.8253649,0.0256349939 68.2244669,0.000386320029 C69.6235689,-0.0246020583 70.9453349,1.16599005 71.1120986,2.60178062 C71.1612209,3.02450069 71.127717,3.47897682 71.3352899,3.84703481 C71.5720843,4.26585044 72.0565051,4.45690741 72.3842386,4.80440205 C73.0238353,5.48195152 72.9381863,6.58924903 72.64572,7.48622769 C72.3532538,8.38320636 71.8932681,9.25936137 71.9202224,10.2052756" id="Fill-98" fill="#000C38"></path>
                        <path d="M67.3230466,16.2611951 C67.3924432,15.7621191 67.1527095,13.6805945 67.1527095,13.6805945 C67.1527095,13.6805945 65.3365086,13.5252074 65.1831567,11.6391288 C65.0295622,9.75305014 65.0390253,5.39378971 65.0390253,5.39378971 L68.2994517,3.6135989 L71.5897234,6.41694654 L71.663245,15.8713238 L67.3230466,16.2611951 Z" id="Fill-100" fill="#EEA886"></path>
                        <path d="M66.8455479,13.4446107 C66.8455479,13.4446107 68.0803025,13.4300175 69.2543964,12.6475962 C69.2543964,12.6475962 68.7364284,13.8799379 66.8963048,13.8516494 L66.8455479,13.4446107 Z" id="Fill-102" fill="#FF957E"></path>
                        <path d="M63.8344871,5.42215787 C64.4586358,5.98411895 65.4361825,6.06254421 66.2355543,5.77636994 C67.0351944,5.49019567 67.6778583,4.89499474 68.198966,4.24214346 C68.8837585,4.90278533 69.9305358,5.18947897 70.8715888,4.97419905 L71.3014625,10.228691 C71.5622847,10.2710199 72.0240903,10.1694826 72.2647874,10.0632709 C72.4974344,8.85079568 72.5417097,7.70454049 72.7743567,6.4920653 C72.8588824,6.05189707 72.9401881,5.58134555 72.7582566,5.1700025 C72.5634449,4.72957458 72.1139827,4.45794275 71.7149677,4.1751444 C71.2185468,3.82352919 70.7653279,3.41634112 70.2608569,3.07589242 C69.756386,2.73518403 69.1842944,2.45835847 68.5703425,2.41525055 C67.9461939,2.37110388 67.3341203,2.57106231 66.7419036,2.7679045 C66.0681129,2.99227344 65.378222,3.22495234 64.8294756,3.66486088 C64.280461,4.10476942 63.8945943,4.80280611 64.0378855,5.4782501" id="Fill-104" fill="#000C38"></path>
                        <path d="M71.663245,7.97306149 C71.8551302,7.904473 72.0517812,7.83497606 72.2579638,7.82975244 C72.4638955,7.8243017 72.6851279,7.89606978 72.7942391,8.05459548 C72.8750065,8.17269486 72.8832839,8.32259022 72.8474152,8.45772317 C72.7894733,8.67529856 72.6186579,8.86584736 72.395168,8.96191666 C72.171929,9.05821308 71.9007814,9.05798596 71.6777932,8.96146243" id="Fill-106" fill="#EEA886"></path>
                        <path d="M72.9837006,9.14288663 C72.988735,9.13553469 73.0899028,9.1985163 73.2744981,9.30438422 C73.4578947,9.41245772 73.7287943,9.5545952 74.0442844,9.76437052 L74.0720936,9.78299543 L74.0589082,9.81607915 C73.9666106,10.046685 73.8455448,10.2978762 73.7091361,10.5647516 C73.6405721,10.6983118 73.5698506,10.8360381 73.4972111,10.9779305 C73.4250512,11.1193328 73.3461786,11.2712729 73.2464492,11.4075288 L73.2203182,11.4430632 L73.1822005,11.4261537 C73.1273014,11.4016473 73.0683268,11.3754254 73.0088727,11.3487133 C72.5162191,11.1440843 72.0856565,10.8757386 71.7051985,10.6794418 L71.663245,10.6576311 L71.6838621,10.6152349 C71.9087328,10.1540233 72.0604845,9.74819625 72.1796323,9.46833245 C72.2966226,9.18724333 72.3740567,9.02991184 72.3829269,9.03407794 C72.3925162,9.03824404 72.3328224,9.2026824 72.2309354,9.48916294 C72.1273703,9.77441817 71.9876053,10.1863718 71.7680088,10.657386 L71.7466725,10.5934241 C72.1371994,10.7865351 72.5627275,11.0472838 73.0510659,11.2499523 C73.1102802,11.2764192 73.1692548,11.3026412 73.2241539,11.3273927 L73.1599052,11.3460176 C73.2584359,11.2119672 73.3317946,11.0710551 73.4058724,10.9289176 C73.4799503,10.7877604 73.5521102,10.6505242 73.6221126,10.5174541 C73.7613981,10.2532744 73.8855804,10.0072296 73.982433,9.78275036 L73.9972965,9.834459 C73.6930739,9.62051758 73.4264896,9.46612687 73.2498055,9.34531001 C73.0719228,9.22669873 72.9789059,9.14950338 72.9837006,9.14288663" id="Fill-108" fill="#BC8131"></path>
                        <path d="M68.184286,36.847481 C68.184286,36.847481 54.9510968,35.9987292 53.2859238,39.033164 C51.6210014,42.0678545 52.7933373,68.8624815 52.7933373,68.8624815 L58.4192467,69.2606456 L58.9807352,43.8602322 L69.2543964,44.1305337 L68.184286,36.847481 Z" id="Fill-110" fill="#FFA28C"></path>
                        <path d="M62.0278507,37.4637351 L62.1727784,43.9654533 L64.1860397,43.9654533 L66.8455479,37.6633974 C66.8455479,37.6633974 62.8654797,37.0978502 62.0278507,37.4637351" id="Fill-112" fill="#000C38"></path>
                        <path d="M78.264527,37.2090746 C78.264527,37.2090746 64.4549713,35.5221825 62.7738409,38.5344717 C61.0927106,41.5467609 62.7783948,68.6583791 62.7783948,68.6583791 L67.875926,68.6583791 L68.5612807,44.3638326 L71.688259,44.240965 C75.4532825,44.3381929 78.4957615,41.1839966 78.2764176,37.4111463 L78.264527,37.2090746 Z" id="Fill-114" fill="#EEA886"></path>
                        <path d="M74.9025071,22.2932614 L79.4920029,21.3543658 C79.4920029,21.3543658 77.9710002,14.4543956 72.6859487,14.4543956 C67.6196751,14.4543956 67.3163405,14.6746621 67.3163405,14.6746621 C67.3163405,14.6746621 61.5675004,14.9974798 59.01679,20.085199 L63.4486333,23.3534707 L64.5330991,22.6924141 C64.5330991,22.6924141 64.8866074,29.8895 64.2779007,31.8477386 C63.588967,34.0637686 62.4703729,36.7447486 62.4703729,36.7447486 L78.980842,37.340522 L74.9025071,22.2932614 C76.4889649,22.1961077 77.9378906,21.8817717 79.4013336,21.256441" id="Fill-116" fill="#FFE8CE"></path>
                        <path d="M64.6059929,22.8861264 C64.6570178,23.3672449 64.3490538,23.796135 64.035647,24.1251995 C63.722467,24.454264 63.3637048,24.7841004 63.261428,25.254413 C63.1927144,25.5700988 63.2528105,25.9063672 63.3650654,26.2053296 C63.6553409,26.9794931 64.308007,27.5640392 65.0389114,27.7042582" id="Fill-118" fill="#00BBDE"></path>
                        <path d="M58.868333,20.4770604 C58.868333,20.4770604 51.8897894,27.5227958 50.5581467,29.0999765 C49.4226869,30.4448633 50.1634818,32.9838902 51.1145092,33.0932201 C52.0655366,33.2025501 67.44776,32.9916076 67.44776,32.9916076 L67.2439137,29.8233548 C67.2439137,29.8233548 57.2817547,29.8681157 56.9892684,29.6834125 C56.6965267,29.498452 62.7513756,23.334559 62.7513756,23.334559 L58.868333,20.4770604 Z" id="Fill-120" fill="#EEA886"></path>
                        <path d="M67.44776,29.5110577 C67.44776,29.5110577 70.5453314,29.7603709 71.0610329,33.1246566 L67.6394366,33.0652139 L67.44776,29.5110577 Z" id="Fill-122" fill="#EEA886"></path>
                        <path d="M79.3864993,21.6815934 C79.3864993,21.6815934 81.6602065,28.0571323 81.9203472,28.808787 C82.1804879,29.5606946 83.5140648,32.7399943 80.9804758,33.0062212 C78.4468867,33.2727009 64.8463179,33.0062212 64.8463179,33.0062212 L63.8344871,29.792537 C63.8344871,29.792537 76.9800039,29.7599223 76.9132216,29.0740026 C76.846698,28.3883357 74.9164801,22.6436002 74.9164801,22.6436002 L79.3864993,21.6815934 Z" id="Fill-124" fill="#EEA886"></path>
                        <polygon id="Fill-126" fill="#002665" points="51.7902443 19.4820761 56.6266027 33.1246566 78.8897907 33.1152621 78.7350109 32.4485165 70.2802886 31.8188269 66.2695936 19.2725275"></polygon>
                        <path d="M61.4128633,27.2676725 C61.4806889,27.7609131 61.2716912,28.2212711 60.9461675,28.2962131 C60.6206437,28.3709001 60.3018236,28.0318769 60.233998,27.5383813 C60.1661723,27.0453956 60.3749728,26.5847828 60.7006938,26.5100957 C61.0262175,26.4351537 61.3450376,26.7744319 61.4128633,27.2676725" id="Fill-128" fill="#FFFFFF"></path>
                        <path d="M66.8847692,14.7134749 C66.8847692,14.7134749 66.448051,20.5287657 68.4891591,20.4767131 C70.5302672,20.4243948 71.663245,14.6006056 71.663245,14.6006056 C70.0895764,14.3706179 68.4963097,14.4147033 66.8847692,14.7134749" id="Fill-130" fill="#EEA886"></path>
                        <path d="M74.6540012,24.0904571 C74.5754243,24.1040387 74.3082629,23.4318815 73.9866216,22.6036689 C73.6688218,21.7738584 73.4082958,21.1014349 73.4826819,21.0798641 C73.5567188,21.058027 73.9422693,21.7046187 74.2628629,22.5416195 C74.5872981,23.3770224 74.7308319,24.0774081 74.6540012,24.0904571" id="Fill-132" fill="#D1A98A"></path>
                        <path d="M71.6603531,14.4544717 C71.6728835,14.457987 71.6450661,14.6456522 71.5696333,14.978528 C71.4934487,15.3111334 71.372656,15.790572 71.1862042,16.3706033 C71.0022585,16.9511755 70.7526537,17.6320702 70.4298716,18.3659654 C70.2632177,18.7307497 70.0993206,19.1155444 69.8742753,19.497635 C69.7599984,19.6863818 69.6321887,19.874047 69.4715495,20.039268 C69.3124139,20.2042187 69.1191957,20.3515926 68.8901407,20.4246036 C68.664093,20.5030227 68.4142375,20.4903134 68.1979635,20.4078381 C67.9804364,20.3259036 67.7939846,20.1836675 67.6433697,20.0157423 C67.3381301,19.6728613 67.1952839,19.2410151 67.1020581,18.8448631 C66.9271342,18.0466101 66.8642318,17.3146078 66.8486941,16.6988822 C66.8341589,16.0831565 66.8725018,15.5861413 66.9120978,15.2454236 C66.9526961,14.9049762 66.9930439,14.7197448 67.0060755,14.7216377 C67.043416,14.7254234 66.93365,15.4782474 66.9947982,16.6923923 C67.0283795,17.2967607 67.1063184,18.0203802 67.2862544,18.7937554 C67.3799815,19.1731419 67.5208227,19.5684827 67.7882207,19.8632305 C68.0498546,20.1582488 68.4523298,20.3440211 68.8309974,20.210979 C69.2096649,20.0868604 69.4888414,19.729918 69.7043636,19.3783838 C69.9196352,19.0198189 70.0897975,18.6336722 70.2584562,18.2764594 C70.5875035,17.5547327 70.8488869,16.8862769 71.049122,16.3167916 C71.2511115,15.7483878 71.3927046,15.2786841 71.4921956,14.9547319 C71.5914361,14.6305092 71.6450661,14.4501451 71.6603531,14.4544717" id="Fill-134" fill="#D1A98A"></path>
                        <path d="M78.889168,20.4820359 C78.916168,20.5263214 78.062353,21.1256342 76.8667751,21.4457097 C75.6726183,21.7748014 74.6686455,21.6801312 74.6743057,21.6268294 C74.6736192,21.559473 75.6562762,21.5546998 76.8208278,21.2330332 C77.9868004,20.9217087 78.8624049,20.4218394 78.889168,20.4820359" id="Fill-136" fill="#D1A98A"></path>
                        <path d="M74.0708794,24.8611938 C74.0876867,24.876301 73.9305752,25.124642 73.5639818,25.3928609 C73.2039651,25.6600197 72.6103518,25.9218777 71.9273432,25.8956388 C71.244091,25.8678098 70.6692336,25.5598352 70.3282165,25.2648474 C69.9806226,24.9682694 69.8403184,24.7082667 69.8581,24.6947497 C69.8831891,24.6706312 70.0595437,24.8892879 70.4105477,25.1389541 C70.7569237,25.3886203 71.3010896,25.6515384 71.9344071,25.6772472 C72.5679682,25.7013657 73.1284542,25.4824439 73.4901759,25.2606068 C73.8570129,25.0395647 74.0477389,24.8352201 74.0708794,24.8611938" id="Fill-138" fill="#D1A98A"></path>
                        <path d="M61.7534578,58.3288206 L69.1048103,58.4198489 L69.4305255,44.803231 C69.4305255,44.803231 79.1277814,45.3809303 78.8853186,36.5572846 C78.8853186,36.5572846 64.3586757,35.6093695 63.2844446,36.5572846 C60.3708663,39.1284536 61.7534578,58.114726 61.7534578,58.114726" id="Fill-140" fill="#74E789"></path>
                        <path d="M51.1880321,58.4198489 L58.9094813,58.4198489 L59.3752698,44.7119564 L64.1561537,45.2965083 L69.2543964,37.5494409 C69.2543964,37.5494409 57.7140009,35.0986845 52.8402188,38.7167901 C52.452278,39.0048047 52.138552,40.0222559 52.1141597,40.494259 L51.1880321,58.4198489 Z" id="Fill-142" fill="#74E789"></path>
                        <path d="M67.4476328,36.5253662 C67.4422148,36.7117603 67.2592346,36.8818449 66.9420362,37.0340668 C66.6263154,37.1881008 66.1751449,37.32013 65.6720111,37.4767529 C65.1656757,37.6333757 64.6226458,37.8213231 64.1374898,38.1138584 C63.8966357,38.2609026 63.6703116,38.4276218 63.4902868,38.6163459 C63.3077992,38.8053288 63.171857,39.0005249 63.0465045,39.2596645 C62.7977697,39.7727661 62.6687231,40.4670843 62.603461,41.1502706 C62.5958266,41.2375134 62.5879459,41.3234618 62.5800652,41.4086335 C62.572677,41.5041605 62.5655351,41.598652 62.558147,41.6915902 C62.5406616,41.8792787 62.5236689,42.0617896 62.5069224,42.2386052 C62.4687502,42.5937896 62.421466,42.9295579 62.3645771,43.2358138 C62.137268,44.4667917 61.7592403,45.1937288 61.4092877,45.169394 C61.052932,45.1450592 60.787697,44.3992238 60.5507833,43.244098 C60.491678,42.9538927 60.4342966,42.636246 60.3806093,42.2906402 C60.3554895,42.1161546 60.3301235,41.9359736 60.3035261,41.7508739 C60.2919513,41.6569002 60.2803765,41.5618909 60.2688017,41.4655873 C60.2584583,41.3622939 60.2471298,41.2507163 60.2399879,41.1396564 C60.2099427,40.6936049 60.2109278,40.2079447 60.2803765,39.6855233 C60.3503178,39.1651731 60.488969,38.6021074 60.7561742,38.045255 C61.0177151,37.4902147 61.4169222,36.9755598 61.8567641,36.6089846 C62.2953746,36.2361964 62.764523,35.9936251 63.2110142,35.8282003 C63.6589831,35.6658821 64.0899593,35.5827814 64.4874424,35.5499035 C64.8809852,35.5193556 65.2370946,35.5346296 65.5518303,35.5742383 C66.1813017,35.6547502 66.6497112,35.8170685 66.968141,35.9848232 C67.2853395,36.1554256 67.4530507,36.3394898 67.4476328,36.5253662" id="Fill-144" fill="#17134B"></path>
                        <path d="M58.8355402,42.8145415 C59.4933932,42.6456292 60.1075773,42.8890691 60.2073587,43.3581552 C60.3073749,43.827757 59.855189,44.3453248 59.1975707,44.514237 C58.5401871,44.6828914 57.9262379,44.4394514 57.8262217,43.9698496 C57.7262055,43.5007636 58.1783914,42.9831958 58.8355402,42.8145415" id="Fill-146" fill="#17134B"></path>
                        <path d="M59.5528348,42.1718693 C59.8814731,42.1218553 60.1999355,42.2147031 60.4381463,42.4350618 C60.6763571,42.6531921 60.8299221,42.9995762 60.8232152,43.3855754 C60.8162771,43.7720697 60.6502233,44.1115212 60.4046118,44.3197478 C60.1583065,44.5302027 59.8368375,44.6101756 59.5100493,44.5462964 C59.1825673,44.4826647 58.9087405,44.3001879 58.7156279,44.0828003 C58.5229778,43.8631843 58.4096542,43.6086576 58.4147422,43.3360566 C58.4193677,43.0639507 58.5417109,42.8138807 58.741993,42.6024354 C58.9427376,42.393466 59.22304,42.2221309 59.5528348,42.1718693" id="Fill-148" fill="#17134B"></path>
                        <path d="M68.975454,43.4107721 C69.6223922,43.226298 70.2718883,43.594487 70.4258326,44.2331873 C70.5797769,44.8723936 70.1802658,45.5399417 69.5328626,45.7246688 C68.8861571,45.9091429 68.2368935,45.5409539 68.0829492,44.9020006 C67.9290049,44.2630473 68.3287485,43.5952461 68.975454,43.4107721" id="Fill-150" fill="#17134B"></path>
                        <path d="M69.8392663,43.3690129 C70.1700925,43.3358849 70.4828736,43.4448449 70.7109818,43.6751879 C70.9386272,43.9029428 71.0778981,44.2520807 71.0593903,44.6346054 C71.0406512,45.0166124 70.8682977,45.3471158 70.6195997,45.5458837 C70.3706704,45.7469809 70.0490981,45.817119 69.7235928,45.7441339 C69.3971623,45.67089 69.1250982,45.4793689 68.9358564,45.2539433 C68.7470772,45.0261885 68.6395009,44.7637527 68.6533817,44.4875999 C68.6665685,44.2119648 68.7988989,43.9640225 69.0084993,43.760596 C69.2185624,43.55924 69.5075148,43.4021409 69.8392663,43.3690129" id="Fill-152" fill="#17134B"></path>
                        <path d="M63.3355628,68.8131054 C63.3355628,68.8131054 60.0400235,69.4448072 60.9980962,69.7667658 C61.9559066,70.0887243 68.6521843,69.4989032 68.6521843,69.4989032 L68.6521843,68.6583791 L63.3355628,68.8131054 Z" id="Fill-154" fill="#4039B3"></path>
                        <path d="M52.214012,68.6583791 C52.214012,68.6583791 48.5644016,69.2491433 49.5504358,69.6594167 C50.5364699,70.0704314 58.4145779,69.7316871 58.4145779,69.7316871 L58.4143104,68.6606028 L52.214012,68.6583791 Z" id="Fill-156" fill="#4039B3"></path>
                        <polygon id="Fill-158" fill="#B79380" points="21.6162234 34.931456 121.044641 34.931456 121.044641 32.5223901 21.077425 32.5223901"></polygon>
                        <path d="M16.7226139,13.1457091 C18.5122125,13.4055622 20.3696826,13.176464 22.0438481,12.4889088 C22.6937699,12.2222791 23.3935669,11.7818059 23.4778922,11.0801764 C23.5586182,10.4082593 23.0313281,9.81010191 22.9624282,9.13688162 C22.9086965,8.61170203 23.1377631,8.10528816 23.2657935,7.59314032 C23.3935669,7.08099248 23.3861113,6.45677158 22.9811957,6.12159493 C22.5456864,5.76139731 21.8901087,5.91725706 21.3584481,5.72907857 C20.534734,5.4376886 20.2362533,4.45509453 19.8724719,3.65572688 C18.8631394,1.43980783 16.4740086,-0.0606680501 14.0545412,0.00188435773 C11.6350739,0.0646974006 9.32564074,1.68688984 8.43097,3.95206891 L16.7226139,13.1457091 Z" id="Fill-160" fill="#000C38"></path>
                        <g id="Group-164" transform="translate(0.000000, 48.181319)">
                            <mask id="mask-6" fill="white">
                                <use xlink:href="#path-5"></use>
                            </mask>
                            <g id="Clip-163"></g>
                            <polygon id="Fill-162" fill="#B79380" mask="url(#mask-6)" points="7.69501237 0.288808968 0.789290316 24.090634 -0.000151524346 24.090634 5.29865484 0.208422241"></polygon>
                        </g>
                        <polygon id="Fill-165" fill="#B79380" points="20.7303253 48.1885298 25.8951221 71.6697115 24.9790733 71.6697115 18.0663643 48.1813187"></polygon>
                        <polygon id="Fill-167" fill="#B79380" points="13.8508793 48.1813187 13.0405539 71.6697115 11.9295994 71.6697115 11.4420307 48.2715884"></polygon>
                        <polygon id="Fill-169" fill="#B79380" points="20.5095047 57.7356486 4.92080461 57.2153159 4.81769714 58.9351272 21.6796371 59.6243819"></polygon>
                        <polygon id="Fill-171" fill="#000C38" points="20.2270115 48.1892526 20.4752129 49.3858516 17.7981099 49.3858516 17.4641521 48.1813187"></polygon>
                        <polygon id="Fill-173" fill="#000C38" points="13.8508793 48.3730245 13.8115365 49.3858516 11.4706436 49.3858516 11.4420307 48.1813187"></polygon>
                        <polyline id="Fill-175" fill="#000C38" points="14.0506041 57.8175824 14.0073178 59.6243819 14.7619815 59.6243819 15.0553036 57.8621881 13.8508793 57.8175824"></polyline>
                        <polygon id="Fill-177" fill="#000C38" points="12.0442429 57.8499842 12.0442429 59.6243819 11.110876 59.5935736 10.8398186 57.8175824"></polygon>
                        <polygon id="Fill-179" fill="#000C38" points="7.82875786 48.2853331 7.60018952 49.3858516 5.41990929 49.3858516 5.61108403 48.1813187"></polygon>
                        <path d="M25.9839611,46.3013108 C22.9152642,44.512196 13.8508884,46.0739718 13.8508884,46.0739718 C13.8508884,46.0739718 17.3472826,14.3192243 14.0017954,14.0622878 C10.6568188,13.8053513 3.16866741,11.4245426 1.71270891,16.252244 C0.256750402,21.0796903 2.19887955,48.357313 4.13513584,48.357313 C8.54820684,48.357313 21.9893952,49.3148926 26.0485625,48.3596094 C27.0946976,48.1136444 25.9839611,46.3013108 25.9839611,46.3013108" id="Fill-181" fill="#053142"></path>
                        <path d="M4.62870671,16.2616894 C4.61367577,16.2537242 4.54603655,16.3421123 4.43008361,16.5199165 C4.36942305,16.6075338 4.30661521,16.7221301 4.23307098,16.8580526 C4.15576902,16.9926904 4.08115116,17.1540502 3.99767578,17.3367362 C3.66592153,18.0661955 3.32343091,19.1882628 3.16748494,20.6040151 C3.00348669,22.0205383 2.99328712,23.7071079 3.02603309,25.5737941 C3.05931588,27.4420219 3.17795291,29.4929357 3.35268755,31.6402029 C3.53091151,33.7877271 3.74563918,35.8281063 3.94855682,37.6822023 C4.14879037,39.5352705 4.34526619,41.2107916 4.61823873,42.60419 C4.88503786,43.9986161 5.21706051,45.1055238 5.49674329,45.8514274 C5.77911017,46.5968172 5.9898117,46.9871126 6.01665265,46.9767857 C6.05315636,46.9627031 5.9031154,46.5505675 5.68006704,45.7956709 C5.45889754,45.0397465 5.18243567,43.9356652 4.96233982,42.5486904 C4.73607054,41.1627434 4.57663525,39.4962153 4.40109538,37.6395499 C4.22313983,35.7836553 4.02236946,33.7445608 3.84468232,31.6029463 C3.6704845,29.4621026 3.53869539,27.4209526 3.48071892,25.5627455 C3.42301086,23.7045385 3.39778036,22.0279896 3.51480694,20.6361329 C3.62404964,19.2417068 3.90641652,18.1386533 4.17670497,17.4027704 C4.44753024,16.6661166 4.66574723,16.281217 4.62870671,16.2616894" id="Fill-183" fill="#004B61"></path>
                        <path d="M37.2411121,28.6256042 L38.0669308,28.1761564 C38.0669308,28.1761564 38.6019539,27.9825441 39.4672539,27.4482463 C39.691994,27.3094009 39.8934502,27.1332729 40.0663078,26.9304043 C40.2756096,26.6843393 40.5416027,26.3472534 40.6347383,26.1220153 C40.7498922,25.8432959 41.1277492,25.8204121 41.1857058,26.0736765 C41.2434094,26.3269408 40.9437559,27.1011327 40.2492887,27.7935601 C39.5550747,28.4859874 41.0186693,28.2784906 41.552427,28.2124105 C42.0864378,28.1465875 43.7403529,28.020341 43.8749945,28.1694712 C44.0724013,28.3882814 43.8570254,28.6662294 43.3232676,28.7197106 C42.7831828,28.773706 41.1902614,29.0470258 41.2120267,29.3290878 C41.2332859,29.6072929 43.9501609,29.2336958 43.9501609,29.2336958 C43.9501609,29.2336958 44.5266901,29.0593677 44.5626283,29.3838546 C44.6274182,29.9688053 41.7300932,30.1518756 41.4547359,30.1624175 C41.2634031,30.1696169 41.2758043,30.4781624 41.4820692,30.4591354 C41.6944081,30.4395942 44.1890738,30.023315 44.260444,30.6177792 C44.3153636,31.073655 41.8768829,30.7905646 41.3800756,31.1654473 C40.8830153,31.5400728 43.268348,31.1865312 43.3027677,31.6259513 C43.3156751,31.7897375 43.3025146,31.9157269 41.9221852,31.9201236 C40.5084485,31.9247261 36.7349407,31.3019786 36.7349407,31.3019786 L37.2813527,28.5854933" id="Fill-185" fill="#EEA886"></path>
                        <path d="M19.4229298,16.8634615 C19.4229298,16.8634615 26.67261,26.388601 28.3358661,26.8136231 C29.9988641,27.2388976 39.5025208,27.7969284 39.5025208,27.7969284 L40.3482136,31.8227763 C40.3482136,31.8227763 28.182573,32.4507188 25.5038146,30.5169186 C21.2941897,27.4774047 16.8711415,20.4862451 16.8711415,20.4862451 C16.7599136,18.1804244 17.659801,17.0290284 19.4229298,16.8634615" id="Fill-187" fill="#ED7122"></path>
                        <path d="M38.6445174,66.2493132 L38.5193198,69.7133576 C38.5193198,69.7133576 43.025638,70.6123345 42.0041634,70.9303282 C40.9829541,71.2485675 33.72388,70.9131394 33.72388,70.9131394 C33.72388,70.9131394 33.7848873,66.6787889 33.7321027,66.6834544 C33.6795834,66.6878744 38.6445174,66.2493132 38.6445174,66.2493132" id="Fill-189" fill="#695347"></path>
                        <path d="M27.0995464,63.2847673 L25.2759756,66.5465586 C25.2759756,66.5465586 27.82275,69.5524772 26.8723659,69.2375169 C25.9217368,68.9228169 21.077425,64.5917224 21.077425,64.5917224 C21.077425,64.5917224 23.2119905,60.8554083 23.1700834,60.8291182 C23.1279312,60.8030884 27.0995464,63.2847673 27.0995464,63.2847673" id="Fill-191" fill="#695347"></path>
                        <polygon id="Fill-193" fill="#00326F" points="32.2356175 42.5635155 22.8840614 62.093404 27.09579 64.4425137 38.5415771 47.916405 37.929492 42.1586538"></polygon>
                        <path d="M10.038974,34.3291896 C10.038974,34.3291896 6.07254647,42.8486956 13.893125,45.7722527 L18.0663643,36.656929 L10.038974,34.3291896 Z" id="Fill-195" fill="#4039B3"></path>
                        <path d="M15.1673157,36.7363451 C15.1673157,36.7363451 37.4652296,30.5777257 40.0066596,35.880795 C42.5480897,41.1838642 39.1518706,67.4538462 39.1518706,67.4538462 L33.835307,67.4538462 C33.835307,67.4538462 33.7489106,43.7316802 32.5811577,42.874582 C31.8744403,42.3557305 26.1704947,43.5998387 20.8337974,44.7858954 C17.3669831,45.5568194 14.3222112,46.0403239 13.6549967,46.006525 C9.54186596,45.7967656 6.58552937,37.9027933 15.1673157,36.7363451" id="Fill-197" fill="#4039B3"></path>
                        <path d="M14.6451544,13.9279561 C17.6096012,13.9906834 19.8527061,16.034233 19.953329,18.7944861 C20.0425463,21.2436218 20.3768576,24.7190669 20.3887702,27.5843693 C20.3953601,29.1414674 22.2818493,34.8710646 22.2818493,34.8710646 L19.8527061,35.7258185 C16.7546868,36.2402327 14.7665608,36.3639239 11.7349476,35.5479652 L9.45635856,34.9347995 C9.45635856,34.9347995 8.14293828,28.1227156 7.39878507,21.727806 C6.77705216,16.3836417 7.80254394,14.3093582 11.0627765,13.8521291 L14.6451544,13.9279561 Z" id="Fill-199" fill="#ED7122"></path>
                        <path d="M15.890021,14.4543956 C15.7889637,13.9331952 15.9566269,11.7326279 15.9566269,11.7326279 C15.9566269,11.7326279 17.96782,11.4787554 18.0484617,9.48788677 C18.1291033,7.49701817 17.9111667,2.91411077 17.9111667,2.91411077 L14.2029258,1.20453297 L10.2280059,4.33122738 L9.03318214,7.50742695 L10.7843314,9.13119582 L11.1964715,14.1136986 L15.890021,14.4543956 Z" id="Fill-201" fill="#EEA886"></path>
                        <path d="M16.2597279,12.1985915 C16.2597279,12.1985915 15.044239,12.2371834 13.8508793,11.4430632 C13.8508793,11.4430632 14.420474,12.7528906 16.2295308,12.6407903 L16.2597279,12.1985915 Z" id="Fill-203" fill="#FF957E"></path>
                        <path d="M30.8436056,29.1648521 L31.6325598,28.595929 C31.6325598,28.595929 32.1583527,28.3245566 32.9758999,27.6649168 C33.1876996,27.4938511 33.3709065,27.2885722 33.5196958,27.0607438 C33.7005198,26.7849651 33.9266161,26.4096573 33.9898913,26.1714613 C34.068522,25.8762433 34.4561155,25.7984862 34.5532787,26.0426436 C34.6504418,26.286801 34.453468,27.1029919 33.8363365,27.8953371 C33.2189401,28.6876824 34.7039213,28.2667571 35.2471877,28.1229064 C35.7901894,27.9790557 37.4840581,27.6117828 37.6452906,27.7408596 C37.8819769,27.9303279 37.6995643,28.2392829 37.1549742,28.3704333 C36.6037652,28.5031388 34.9948812,29.0085603 35.0584211,29.2869308 C35.1211668,29.5611543 37.8793294,28.791877 37.8793294,28.791877 C37.8793294,28.791877 38.450924,28.5337233 38.5359087,28.8520092 C38.6884045,29.4263753 35.7157947,30.0318443 35.431983,30.0826456 C35.2350092,30.1178955 35.2932541,30.4239994 35.5039949,30.3747533 C35.7208249,30.3244703 38.2428307,29.5445662 38.4043281,30.1272264 C38.5277014,30.5743299 35.9614824,30.64794 35.5018769,31.0945252 C35.0422714,31.5408512 37.4602306,30.839741 37.5605707,31.2731075 C37.5979004,31.4345831 37.6029307,31.562364 36.1743412,31.7681613 C34.7110695,31.9791423 30.7128193,31.9089017 30.7128193,31.9089017 L30.8793469,29.1189754" id="Fill-205" fill="#EEA886"></path>
                        <path d="M18.5271656,2.94197671 C17.7687114,4.03152987 16.6449058,4.76026066 15.455945,4.93287717 C14.3169365,5.09840762 13.0828497,4.79058901 12.0681186,5.42039835 C11.9247773,4.31128766 12.4414335,3.17014796 13.2266737,2.53183535 C14.0119139,1.89323928 15.0201295,1.71240294 15.9677749,1.85015602 C16.9154203,1.9879091 17.8145614,2.42044242 18.6685764,2.92270262" id="Fill-207" fill="#000C38"></path>
                        <path d="M23.4872489,62.0334478 C23.4933223,62.0361786 23.5305217,61.9720881 23.5947982,61.8477526 C23.6608461,61.7159826 23.7524528,61.5331966 23.8688591,61.3009327 C23.9910857,61.0620035 24.1388711,60.77334 24.3101908,60.4390441 C24.4855594,60.1037228 24.6842093,59.7227691 24.9038629,59.3028483 C25.7996853,57.6188072 27.0310614,55.3038595 28.3914968,52.7466498 C29.7549688,50.1855947 30.9764757,47.8598798 31.8292783,46.1594315 C32.0393158,45.7338708 32.2296148,45.3480462 32.3973917,45.0081103 C32.5570708,44.6676618 32.6949869,44.3733583 32.8091157,44.1300709 C32.9179303,43.8867835 32.9966311,43.6952812 33.0497731,43.5655621 C33.1024089,43.4355866 33.1272086,43.3661126 33.1206291,43.3631868 C33.1145557,43.3602162 33.0776093,43.4243067 33.0133328,43.5486422 C32.9472849,43.6804122 32.8556782,43.8634546 32.739525,44.0957184 C32.6170453,44.3343913 32.4690069,44.6230548 32.2976872,44.9573507 C32.1225716,45.292672 31.9239217,45.6736258 31.7042681,46.0935465 C30.8086988,47.7773313 29.5768165,50.0927917 28.2161281,52.6507705 C26.8531622,55.2110565 25.6316553,57.5362586 24.7788527,59.2369633 C24.5685622,59.662524 24.3782632,60.0480923 24.2107393,60.3882845 C24.0510603,60.728733 23.9131441,61.0230365 23.7987623,61.2665802 C23.6902007,61.5096113 23.6115,61.7011136 23.5581049,61.8308327 C23.505469,61.9610646 23.4809225,62.0305386 23.4872489,62.0334478" id="Fill-209" fill="#4039B3"></path>
                        <path d="M21.077425,32.5223901 C21.077425,32.5223901 14.378259,32.1082287 12.3687711,29.6957126 C10.3592832,27.2831966 7.7492797,22.9237107 7.7492797,22.9237107 L7.22654571,19.874794 L21.077425,32.5223901 Z" id="Fill-211" fill="#C45A18"></path>
                        <path d="M33.1256738,43.3574061 C33.1728377,43.4138882 33.6247713,43.0500877 34.1345292,42.5452576 C34.197199,42.4814083 34.2585767,42.419664 34.3189853,42.3582705 L34.1435743,42.1660211 C33.7643248,42.6273495 33.5097689,43.0051827 33.5546716,43.0507894 C33.5995742,43.096396 33.9290754,42.7943399 34.3260921,42.3509033 L34.1510042,42.1586538 C34.0893035,42.2182933 34.0269567,42.2786343 33.9629947,42.3410803 C33.4532369,42.8459104 33.0785099,43.3009241 33.1256738,43.3574061" id="Fill-213" fill="#00326F"></path>
                        <path d="M32.5554058,43.362927 C32.6342003,43.3747758 32.8169444,42.9798167 32.9634356,42.4808516 C33.1095569,41.9818865 33.1643062,41.5682326 33.0858816,41.5566471 C33.0070871,41.5447984 32.8247129,41.9397575 32.6778517,42.4384593 C32.5317304,42.9374244 32.4766112,43.3510783 32.5554058,43.362927" id="Fill-215" fill="#00326F"></path>
                        <path d="M9.95979128,16.2611951 C9.95979128,16.2611951 18.019049,26.5713826 19.8540428,27.0213811 C21.6887793,27.4713796 32.1579938,28.0069028 32.1579938,28.0069028 L33.1216679,32.3813361 C33.1216679,32.3813361 19.7303036,33.1565269 16.7651923,31.0723624 C13.1816421,28.5533651 9.44065243,23.4927462 7.90355893,21.2889964 C7.25476399,20.3589166 7.03661248,19.18718 7.40577217,18.1238409 C7.7988565,16.9931264 8.66631746,16.3902278 9.95979128,16.2611951" id="Fill-217" fill="#FF8932"></path>
                        <path d="M6.02236959,46.9393913 C6.04791128,47.1002606 8.05195153,46.7051754 10.5373544,46.4555506 C13.0230028,46.1951395 15.0511112,46.1766488 15.0553036,46.0123895 C15.0621629,45.8641555 13.0173542,45.6274742 10.5002698,45.8906589 C7.98367663,46.1439819 5.99658231,46.7942391 6.02236959,46.9393913" id="Fill-219" fill="#004B61"></path>
                        <path d="M6.88640845,26.0240924 C6.9033552,26.0411136 6.96494214,26.015189 6.99304894,25.8819002 C7.01908906,25.7493971 6.96721549,25.5425245 6.81800147,25.4060933 C6.74422114,25.3390561 6.63964733,25.2824935 6.50986007,25.2976816 C6.44289977,25.3089418 6.38337949,25.3351282 6.33109259,25.3741459 C6.27673901,25.4123781 6.22713878,25.4652746 6.18601193,25.5265508 C6.02295119,25.7761072 5.97831098,26.1228151 6.06676472,26.4540731 C6.15893847,26.7740709 6.36105939,27.0191757 6.61133387,27.0869984 C6.67312748,27.1024484 6.7361611,27.1069001 6.79609471,27.0959018 C6.85561498,27.0890933 6.92236862,27.0592408 6.97300218,27.0238892 C7.07592265,26.9474249 7.13957627,26.84137 7.17801645,26.739243 C7.25510346,26.5336798 7.23154336,26.3268072 7.1687164,26.2236328 C7.10630279,26.119149 7.04533584,26.1154829 7.03210912,26.1382651 C7.0137157,26.1649752 7.03231578,26.2210141 7.03210912,26.2951217 C7.03396912,26.3666105 7.01102902,26.4708324 6.9473754,26.5645797 C6.91616859,26.6104059 6.8740084,26.6491618 6.83329488,26.666183 C6.81097478,26.671944 6.79754138,26.6763957 6.77088126,26.673777 C6.74546114,26.673777 6.71983436,26.6664448 6.69379424,26.6557084 C6.59025377,26.6151195 6.4732799,26.4695231 6.42491968,26.2927649 C6.37614613,26.1246482 6.3992929,25.9141095 6.46005318,25.8028173 C6.52784015,25.6857641 6.58632709,25.659054 6.68118752,25.6991192 C6.77026126,25.7412793 6.82461484,25.8211478 6.84507493,25.8813765 C6.86739503,25.943962 6.86284834,26.0055001 6.88640845,26.0240924" id="Fill-221" fill="#004B61"></path>
                        <path d="M11.2665707,10.1947934 C11.5494999,10.1274853 11.1811532,8.79608651 11.1888485,8.51209147 C10.5078174,8.64545654 9.80626566,7.95611174 9.94785855,7.2927894 C10.0894514,6.62946705 11.015192,6.27090767 11.5846417,6.65874231 C11.6731372,5.81301257 11.8224254,4.86119129 12.5342375,4.37076813 C12.9818455,4.06275236 13.5556558,4.01170832 14.096633,3.92763578 C15.5069188,3.70869686 16.8689809,3.197756 18.0663643,2.43835075 C17.0675187,1.25332825 15.4738291,0.622784187 13.9011733,0.602266484 C13.9011733,0.602266484 9.29093934,1.01186991 8.14896185,3.82779963 C7.00724087,6.64397957 9.12369555,10.7047334 11.2665707,10.1947934" id="Fill-223" fill="#000C38"></path>
                        <path d="M17.461979,2.40963336 C17.4738457,2.41580768 17.4372357,2.52828769 17.3491193,2.7213023 C17.2612553,2.91404846 17.1145628,3.18410785 16.90071,3.494703 C16.4788114,4.11535639 15.7430768,4.88687794 14.7384482,5.40256789 C13.733567,5.91906319 12.7077298,6.05194529 11.9881541,6.01758386 C11.6265989,6.00255073 11.3364963,5.956646 11.1398123,5.90993593 C10.9428758,5.86376276 10.837338,5.82403235 10.8398186,5.81007302 C10.8464274,5.77222175 11.28196,5.87101087 11.989669,5.86107827 C12.6930858,5.8546355 13.6787783,5.70108284 14.6478069,5.20337896 C15.616583,4.70594352 16.3424707,3.98059514 16.7845679,3.39886681 C17.2317148,2.81552779 17.4299137,2.39137885 17.461979,2.40963336" id="Fill-225" fill="#000C38"></path>
                        <path d="M7.22654571,18.0679945 C7.22654571,18.0679945 7.69795738,14.6813926 11.5377728,14.4795614 C15.3775882,14.2777302 19.0602664,15.2805941 19.8730007,17.8255066 L7.22654571,18.0679945 Z" id="Fill-227" fill="#EEA886"></path>
                        <path d="M7.53823689,17.6743354 C7.34406291,18.2449301 7.14711141,18.849551 7.25922226,19.4434407 C7.37108062,20.0373303 7.91698977,20.5882944 8.48713911,20.4576858 C9.17596435,20.2998562 9.52037697,19.2911076 10.2258673,19.3002685 C10.7523338,19.3070738 11.0770513,19.8789772 11.5083246,20.192019 C12.0128234,20.5579325 12.7428065,20.5485099 13.2384678,20.1692476 C13.670751,19.8386691 13.9474932,19.2570813 14.4684046,19.1214996 C15.4862399,18.8563563 16.2384431,20.4982556 17.2749635,20.3268155 C18.0923122,20.1917573 18.5713083,18.9670726 19.385122,19.1264727 C19.9492113,19.2369273 20.2519611,19.9907404 20.822868,20.0538199 C21.2596963,20.102242 21.6520843,19.6677524 21.6778395,19.2131089 C21.7040997,18.7584653 21.4394777,18.3281636 21.0922875,18.049148 C20.7448449,17.7701324 20.3221567,17.6157054 19.9070435,17.465728 L7.53823689,17.6743354 Z" id="Fill-229" fill="#FF8932"></path>
                        <path d="M20.0201204,20.4770604 C20.0543156,20.4765518 20.0570413,20.8555863 20.038457,21.4548119 C20.0362268,21.6044911 20.0339967,21.7686799 20.0426694,21.9410146 C20.0476252,22.0265455 20.0543156,22.1158948 20.0719088,22.198371 C20.0810771,22.2375727 20.0937145,22.2788109 20.1073431,22.2989208 C20.1259275,22.3289585 20.1596271,22.3666328 20.1898577,22.3976887 C20.4393841,22.6680275 20.8581523,22.794542 21.2362826,23.0941549 C21.4246043,23.2435795 21.575014,23.4602069 21.6337406,23.6905804 C21.696432,23.9199357 21.689246,24.1510729 21.6461302,24.3572635 C21.5598987,24.7760087 21.3254876,25.0883494 21.1175903,25.3044677 C20.9057283,25.5244044 20.7099728,25.6679742 20.575174,25.7652147 C20.4388885,25.8611825 20.3590996,25.9070026 20.3504268,25.8958022 C20.3415063,25.8843471 20.4054366,25.8163806 20.5253679,25.7015756 C20.6440601,25.5857525 20.8229658,25.4258911 21.0112876,25.203918 C21.1983704,24.982963 21.3958605,24.6902232 21.4612775,24.3190801 C21.5346239,23.9535371 21.4501269,23.5157002 21.108422,23.2580892 C20.7803456,22.990805 20.3444798,22.85309 20.0540678,22.5318399 C20.0173946,22.4911109 19.9856773,22.455473 19.9539599,22.403798 C19.917039,22.3411772 19.9073751,22.2877203 19.8959767,22.2355363 C19.8776401,22.1324409 19.8751621,22.0382551 19.8731798,21.9468694 C19.8714453,21.7648616 19.8825959,21.5988908 19.8942421,21.4474298 C19.9502431,20.8433676 19.9978191,20.4783337 20.0201204,20.4770604" id="Fill-231" fill="#D26119"></path>
                        <path d="M13.2445404,19.99737 C13.2533376,19.9964505 13.2599356,20.1070223 13.1321311,20.2472484 C13.0062815,20.3821873 12.7306342,20.5132183 12.3831428,20.4679322 C12.0322302,20.418968 11.7018445,20.1785146 11.3805004,19.9256478 C11.2179956,19.8001339 11.0447386,19.6771487 10.848511,19.589105 C10.6530165,19.5022108 10.4338183,19.4608326 10.2217068,19.5173828 C9.79039704,19.6314028 9.46978606,20.0074847 9.03163403,20.1484005 C8.59226015,20.2934541 8.16314974,20.1941464 7.87357352,20.0435757 C7.57642188,19.8913958 7.39949937,19.6826658 7.31372616,19.5295664 C7.22966353,19.372789 7.22013317,19.2748606 7.22941916,19.2727916 C7.24652493,19.2670447 7.28171393,19.3555481 7.38068302,19.4909467 C7.48111832,19.623357 7.65975141,19.8003638 7.9380867,19.9242685 C8.20982405,20.0477135 8.59739188,20.1175967 8.96760958,19.9844968 C9.15186314,19.9217399 9.32707508,19.7994443 9.51401669,19.6723212 C9.70120267,19.5468073 9.90598316,19.401294 10.1701451,19.3339394 C10.4355289,19.262677 10.7158191,19.3196869 10.9333067,19.4215233 C11.1542155,19.5233597 11.3372472,19.6601376 11.4992633,19.7913985 C11.8174306,20.0555294 12.1116498,20.2794315 12.4075796,20.3359817 C12.7017988,20.3906929 12.953498,20.2969023 13.0769039,20.194836 C13.204464,20.0893216 13.2271902,19.9913932 13.2445404,19.99737" id="Fill-233" fill="#D26119"></path>
                        <path d="M19.2618297,26.5036016 C19.301886,26.5409918 19.203876,26.8395245 19.0425856,27.1698535 C18.8812953,27.5004769 18.7178743,27.7377721 18.677605,27.7003819 C18.6373357,27.6629917 18.7355587,27.3644591 18.8968491,27.03413 C19.0581394,26.7035066 19.2215604,26.4662115 19.2618297,26.5036016" id="Fill-235" fill="#D26119"></path>
                        <path d="M19.4085473,28.3063875 C19.2718451,28.2996161 19.2351102,28.0243325 19.3248398,27.6917523 C19.4157738,27.3591722 19.5988463,27.0953478 19.7355485,27.1021192 C19.8716484,27.1091511 19.9089856,27.3841743 19.8186538,27.7167544 C19.7277197,28.0493346 19.5446472,28.3134193 19.4085473,28.3063875" id="Fill-237" fill="#D26119"></path>
                    </g>
                </g>
            </g>
        </g>
    </g>
</svg>