<?xml version="1.0" encoding="UTF-8"?>
<svg width="239px" height="80px" viewBox="0 0 239 80" version="1.1" xmlns="http://www.w3.org/2000/svg" xmlns:xlink="http://www.w3.org/1999/xlink">
    <!-- Generator: Sketch 61.2 (89653) - https://sketch.com -->
    <title>LOGO</title>
    <desc>Created with Sketch.</desc>
    <defs>
        <polygon id="path-1" points="0 0 77 0 77 78 38.04762 78 0 78"></polygon>
    </defs>
    <g id="Page-1" stroke="none" stroke-width="1" fill="none" fill-rule="evenodd">
        <g id="Desktop-Copy" transform="translate(-42.000000, -47.000000)">
            <g id="LOGO" transform="translate(42.000000, 46.000000)">
                <g id="Group-23" transform="translate(0.000000, 3.000000)">
                    <g id="Group-7">
                        <mask id="mask-2" fill="white">
                            <use xlink:href="#path-1"></use>
                        </mask>
                        <g id="Clip-2"></g>
                        <path d="M28.9611011,70.5903422 L49.0388989,70.5903422 L49.0388989,66.7301626 L28.9611011,66.7301626 L28.9611011,70.5903422 Z M47.5692699,38.6092505 L47.692699,36.5400771 C47.774985,35.1443611 47.8803112,33.7941929 48.0103232,32.5302403 C48.1321065,31.3378629 48.2736385,30.2609817 48.4349192,29.3435181 C49.3812089,23.9168181 54.4450928,23.4710999 56.4133752,27.8176654 C56.7787253,28.6261396 56.9976062,29.5875244 56.9976062,30.6790459 C56.9976062,32.3675694 56.4874327,33.7405115 55.5888689,34.8580603 C54.733094,35.9251812 53.5399461,36.7125082 52.1163974,37.2932432 C51.72307,37.4542873 51.3149312,37.6006911 50.8936266,37.7357079 C50.4575105,37.8739781 50.0246858,37.997608 49.6000898,38.1033441 L47.5692699,38.6092505 Z M30.4323758,38.6092505 L28.401556,38.1033441 C27.9769599,37.997608 27.5441352,37.8739781 27.1080192,37.7357079 C26.6867145,37.6006911 26.2785757,37.4542873 25.8836026,37.2932432 C24.4600539,36.7125082 23.2685518,35.9251812 22.4111311,34.8580603 C21.5125673,33.7405115 21.0040395,32.3675694 21.0040395,30.6790459 C21.0040395,29.5875244 21.2212747,28.6261396 21.5882705,27.8176654 C23.4133752,23.7899348 28.5743567,23.6532913 29.5667265,29.3435181 C29.7263615,30.2609817 29.8662478,31.3378629 29.9896768,32.5302403 C30.1196888,33.7941929 30.2266607,35.1443611 30.3089467,36.5400771 L30.4323758,38.6092505 Z M34.627319,51.7611897 C34.6355476,49.5569996 34.627319,47.1039229 34.5845302,44.5939115 L34.556553,42.9737097 L36.190754,43.0534184 L37.5748055,43.1103532 L38.9440455,43.1477675 L38.9440455,43.1412607 L39.0543088,43.1412607 L39.0543088,43.1477675 L40.4251945,43.1103532 L41.809246,43.0534184 L43.443447,42.9737097 L43.4171155,44.5939115 C43.372681,47.1039229 43.3644524,49.5569996 43.372681,51.7611897 C43.3825554,53.9556197 43.4072412,55.9239371 43.4352184,57.4644302 L43.4631957,59.0098034 L41.9014063,59.0098034 L36.1002394,59.0098034 L34.5400958,59.0098034 L34.5647816,57.4644302 C34.5927588,55.9239371 34.6190904,53.9556197 34.627319,51.7611897 L34.627319,51.7611897 Z M30.5821364,43.787064 C30.6347995,46.4288388 30.6479653,49.0592267 30.6397367,51.4325946 C30.6331538,53.8124693 30.6035308,55.9158036 30.5739078,57.5116048 L30.5475763,59.0098034 L29.0400958,59.0098034 L21.6228306,59.0098034 L21.6228306,62.869983 L56.3771694,62.869983 L56.3771694,59.0098034 L48.9599042,59.0098034 L47.4540694,59.0098034 L47.4277379,57.5116048 C47.3981149,55.9158036 47.3684919,53.814096 47.3602633,51.4325946 C47.3536804,49.0592267 47.3652005,46.4288388 47.4195093,43.787064 L47.4441951,42.5507655 L48.6751945,42.324653 C49.5754039,42.1619821 50.4476361,41.9651504 51.2869539,41.732531 C52.1081688,41.5064185 52.8931777,41.2445184 53.6337522,40.9419506 C55.9032017,40.0163534 57.766158,38.7702946 59.0415919,37.0980381 C60.2923399,35.4566891 61,33.3566083 61,30.6790459 C61,28.8148378 60.5885697,27.1848757 59.8940754,25.8233206 C59.1403351,24.3430157 58.0525135,23.1685321 56.8017654,22.348671 C56.2537403,21.9891683 55.6678636,21.6979875 55.0638839,21.4783818 C54.4599042,21.2604029 53.8394674,21.1139991 53.2173848,21.0440506 C52.5706164,20.9757289 51.9123279,20.9854891 51.2622681,21.0830916 C50.7603232,21.1579202 50.271544,21.2815501 49.8025135,21.4556079 L49.4256433,21.6199055 C48.2209755,22.1485858 47.119988,23.0139948 46.2461101,24.2389064 C45.426541,25.3906161 44.8110413,26.8611607 44.4917714,28.6781942 C44.2827648,29.8835853 44.1116098,31.2565274 43.975015,32.7368323 C43.8367744,34.2366576 43.7265111,35.8991539 43.6392879,37.6462389 L43.5701676,39.0159276 L42.1894075,39.0907562 L40.6193896,39.1623314 L39.0246858,39.2029991 L38.9753142,39.2029991 L37.3806104,39.1623314 L35.8122382,39.0907562 L34.4298324,39.0159276 L34.3623579,37.6462389 C34.2734889,35.8991539 34.1632256,34.2366576 34.0266308,32.7368323 C33.8900359,31.2565274 33.7172352,29.8835853 33.5082286,28.6781942 C33.1906044,26.8611607 32.5718133,25.3906161 31.7538899,24.2389064 C30.8849491,23.0188749 29.782316,22.1550926 28.5743567,21.6264123 L28.1135548,21.4247005 C27.6708558,21.2669097 27.2116996,21.1546668 26.7393776,21.0830916 C26.0876721,20.9854891 25.4310293,20.9757289 24.7842609,21.0440506 C24.1605326,21.1139991 23.5400958,21.2604029 22.9377618,21.4783818 C22.3337822,21.6979875 21.7479054,21.9891683 21.1998803,22.348671 C19.9474865,23.1685321 18.8596649,24.3430157 18.1059246,25.8233206 C17.4114303,27.1848757 17,28.8148378 17,30.6790459 C17,33.3566083 17.7093058,35.4566891 18.9584081,37.0980381 C20.233842,38.7702946 22.0967983,40.0163534 24.3662478,40.9419506 C25.1068223,41.2445184 25.893477,41.5064185 26.7146918,41.732531 L26.719629,41.732531 C27.5655296,41.9667771 28.4361161,42.1636088 29.3248055,42.324653 L30.5574506,42.5507655 L30.5821364,43.787064 Z M31.4313285,78 L46.5670257,78 L46.5670257,74.1398204 L31.4313285,74.1398204 L31.4313285,78 Z" id="Fill-1" fill="#F1F1FC" mask="url(#mask-2)"></path>
                        <polygon id="Fill-3" fill="#F1F1FC" mask="url(#mask-2)" points="22 4 56 4 56 0 22 0"></polygon>
                        <path d="M0,29.5621664 C0.732376663,29.5572687 1.89043679,29.4560508 2.80381272,28.9173102 C3.61830942,28.4406064 4.29035299,27.5051568 4.29035299,25.7207826 L4.29035299,7.71705105 C4.29035299,4.25931588 5.8321986,2.30515678 7.70587619,1.2048199 C9.45888761,0.176315108 11.4331204,0 12.6163193,0 L16,0 L16,3.87729982 L12.6163193,3.87729982 C11.8872944,3.87729982 10.69404,3.97035501 9.75720122,4.5188909 C8.93935268,5.00049236 8.26898502,5.93430941 8.26898502,7.71705105 L8.26898502,25.7207826 C8.26898502,28.514071 7.26343354,30.327831 5.88917985,31.5 C7.26343354,32.6738015 8.26898502,34.485929 8.26898502,37.2792174 L8.26898502,55.2845815 C8.26898502,57.0656906 8.93935268,58.0011402 9.75720122,58.4811091 C10.69404,59.0312775 11.8872944,59.1259653 12.6163193,59.1259653 L16,59.1259653 L16,63 L12.6163193,63 C11.4331204,63 9.45888761,62.8253174 7.70587619,61.7968126 C5.8321986,60.6964758 4.29035299,58.7423167 4.29035299,55.2845815 L4.29035299,37.2792174 C4.29035299,35.4964758 3.61830942,34.5610262 2.80381272,34.0826898 C1.89043679,33.5472143 0.732376663,33.4443638 0,33.4394662 L0,29.5621664 Z" id="Fill-4" fill="#74E789" mask="url(#mask-2)"></path>
                        <path d="M68.7302053,25.7214491 L68.7302053,7.71561844 C68.7302053,5.93446319 68.0599078,4.99898935 67.2438207,4.51900801 C66.30708,3.96882531 65.1139506,3.87576771 64.3850021,3.87576771 L61,3.87576771 L61,0 L64.3850021,0 C65.5680771,0 67.5437788,0.176319677 69.2949309,1.20485112 C71.170088,2.30358392 72.7100964,4.25942626 72.7100964,7.71561844 L72.7100964,25.7214491 C72.7100964,27.504237 73.3803938,28.4397108 74.1964809,28.9180596 C75.1097612,29.4551815 76.2677,29.5580347 77,29.5629324 L77,33.4387001 C76.2677,33.4435979 75.1097612,33.5464511 74.1964809,34.0819404 C73.3803938,34.5619218 72.7100964,35.4973956 72.7100964,37.2801835 L72.7100964,55.2843816 C72.7100964,58.7422063 71.170088,60.6964161 69.2949309,61.7967815 C67.5437788,62.8269455 65.5680771,63 64.3850021,63 L61,63 L61,59.1258649 L64.3850021,59.1258649 C65.1139506,59.1258649 66.30708,59.0311747 67.2438207,58.480992 C68.0599078,58.0026432 68.7302053,57.0671694 68.7302053,55.2843816 L68.7302053,37.2801835 C68.7302053,34.4868227 69.7373272,32.6746482 71.1097612,31.5008163 C69.7373272,30.3269844 68.7302053,28.5148099 68.7302053,25.7214491" id="Fill-5" fill="#74E789" mask="url(#mask-2)"></path>
                    </g>
                    <text id="Festival-2020" font-family="Raleway-Bold, Raleway" font-size="29" font-weight="bold" line-spacing="25">
                        <tspan x="90" y="54" fill="#FFFFFF">Festival </tspan>
                        <tspan x="90" y="79" fill="#74E789">2020</tspan>
                    </text>
                </g>
                <text id="ThinkCode" font-family="Raleway-Bold, Raleway" font-size="29" font-weight="bold" line-spacing="25" fill="#FFFFFF">
                    <tspan x="90" y="27">ThinkCode</tspan>
                </text>
            </g>
        </g>
    </g>
</svg>