<?xml version="1.0" encoding="UTF-8"?>
<svg width="26px" height="26px" viewBox="0 0 26 26" version="1.1" xmlns="http://www.w3.org/2000/svg" xmlns:xlink="http://www.w3.org/1999/xlink">
    <!-- Generator: Sketch 61.2 (89653) - https://sketch.com -->
    <title>message</title>
    <desc>Created with Sketch.</desc>
    <g id="Page-1" stroke="none" stroke-width="1" fill="none" fill-rule="evenodd">
        <g id="Desktop-Copy" transform="translate(-900.000000, -115.000000)" fill="#74E789" fill-rule="nonzero">
            <g id="MENU" transform="translate(315.000000, 105.000000)">
                <g id="message" transform="translate(585.000000, 10.000000)">
                    <path d="M13,0 C5.81524658,0 0,5.81425477 0,13 C0,15.2801972 0.59469607,17.5072326 1.72398378,19.4714355 L0.0489959844,24.6729431 C-0.0678406016,25.035553 0.02816775,25.433075 0.297546387,25.7024536 C0.564346301,25.9692535 0.960876465,26.0688324 1.32705686,25.951004 L6.52856445,24.2760162 C8.49276736,25.4053039 10.7198028,26 13,26 C20.1847534,26 26,20.1857452 26,13 C26,5.81524658 20.1857452,0 13,0 Z M13,23.96875 C10.9403839,23.96875 8.93273926,23.3940888 7.19407655,22.3068543 C6.94393923,22.1505432 6.63330078,22.1082916 6.34428407,22.2013244 L2.58944705,23.410553 L3.79867556,19.6557159 C3.89031982,19.3708649 3.85163878,19.0598297 3.69294738,18.8059234 C2.60591124,17.0672607 2.03125,15.0596161 2.03125,13 C2.03125,6.9518738 6.9518738,2.03125 13,2.03125 C19.0481262,2.03125 23.96875,6.9518738 23.96875,13 C23.96875,19.0481262 19.0481262,23.96875 13,23.96875 Z M14.2695312,13 C14.2695312,13.7010193 13.7012177,14.2695312 13,14.2695312 C12.2987823,14.2695312 11.7304688,13.7010193 11.7304688,13 C11.7304688,12.2987823 12.2987823,11.7304688 13,11.7304688 C13.7012177,11.7304688 14.2695312,12.2987823 14.2695312,13 Z M19.3476562,13 C19.3476562,13.7010193 18.7793427,14.2695312 18.078125,14.2695312 C17.3769073,14.2695312 16.8085938,13.7010193 16.8085938,13 C16.8085938,12.2987823 17.3769073,11.7304688 18.078125,11.7304688 C18.7793427,11.7304688 19.3476562,12.2987823 19.3476562,13 Z M9.19140625,13 C9.19140625,13.7010193 8.62309266,14.2695312 7.921875,14.2695312 C7.22085569,14.2695312 6.65234375,13.7010193 6.65234375,13 C6.65234375,12.2987823 7.22085569,11.7304688 7.921875,11.7304688 C8.62309266,11.7304688 9.19140625,12.2987823 9.19140625,13 Z" id="Shape"></path>
                </g>
            </g>
        </g>
    </g>
</svg>