<?xml version="1.0" encoding="UTF-8"?>
<svg width="13px" height="13px" viewBox="0 0 13 13" version="1.1" xmlns="http://www.w3.org/2000/svg" xmlns:xlink="http://www.w3.org/1999/xlink">
    <!-- Generator: Sketch 61.2 (89653) - https://sketch.com -->
    <title>message copy</title>
    <desc>Created with Sketch.</desc>
    <g id="Page-1" stroke="none" stroke-width="1" fill="none" fill-rule="evenodd">
        <g id="Desktop-Copy-2" transform="translate(-1364.000000, -593.000000)" fill="#1A1A1A" fill-rule="nonzero">
            <g id="CAFETERIA" transform="translate(1080.000000, 211.000000)">
                <g id="Chat-Copy" transform="translate(22.000000, 358.000000)">
                    <g id="SEGUIDORES" transform="translate(225.000000, 18.000000)">
                        <g id="message-copy" transform="translate(37.000000, 6.000000)">
                            <path d="M6.5,0 C2.90762329,0 0,2.90712739 0,6.5 C0,7.64009858 0.297348035,8.75361632 0.861991889,9.73571777 L0.0244979922,12.3364716 C-0.0339203008,12.5177765 0.014083875,12.7165375 0.148773193,12.8512268 C0.28217315,12.9846268 0.480438232,13.0344162 0.66352843,12.975502 L3.26428223,12.1380081 C4.24638368,12.702652 5.35990142,13 6.5,13 C10.0923767,13 13,10.0928726 13,6.5 C13,2.90762329 10.0928726,0 6.5,0 Z M6.5,11.984375 C5.47019195,11.984375 4.46636963,11.6970444 3.59703828,11.1534271 C3.47196962,11.0752716 3.31665039,11.0541458 3.17214204,11.1006622 L1.29472352,11.7052765 L1.89933778,9.82785796 C1.94515991,9.68543243 1.92581939,9.52991485 1.84647369,9.40296172 C1.30295562,8.53363037 1.015625,7.52980805 1.015625,6.5 C1.015625,3.4759369 3.4759369,1.015625 6.5,1.015625 C9.5240631,1.015625 11.984375,3.4759369 11.984375,6.5 C11.984375,9.5240631 9.5240631,11.984375 6.5,11.984375 Z" id="Shape"></path>
                        </g>
                    </g>
                </g>
            </g>
        </g>
    </g>
</svg>