<?xml version="1.0" encoding="UTF-8"?>
<svg width="30px" height="33px" viewBox="0 0 30 33" version="1.1" xmlns="http://www.w3.org/2000/svg" xmlns:xlink="http://www.w3.org/1999/xlink">
    <!-- Generator: Sketch 61.2 (89653) - https://sketch.com -->
    <title>NOTIFICACIONES</title>
    <desc>Created with Sketch.</desc>
    <defs>
        <polygon id="path-1" points="0.01649769 4.90421456e-06 7.96719167 4.90421456e-06 7.96719167 4.70804598 0.01649769 4.70804598"></polygon>
    </defs>
    <g id="Page-1" stroke="none" stroke-width="1" fill="none" fill-rule="evenodd">
        <g id="Desktop-Copy" transform="translate(-1104.000000, -25.000000)">
            <g id="MENU-CABECERA" transform="translate(339.000000, 23.000000)">
                <g id="NOTIFICACIONES" transform="translate(765.000000, 2.000000)">
                    <text id="3" font-family="Raleway-SemiBold, Raleway" font-size="10" font-weight="500">
                        <tspan x="18.9268182" y="10" fill="#EEEDFF">3</tspan>
                        <tspan x="24.4368182" y="10" fill="#2E2891"></tspan>
                    </text>
                    <g id="Group-8" transform="translate(0.000000, 10.000000)">
                        <g id="Group-3" transform="translate(6.815143, 17.891954)">
                            <mask id="mask-2" fill="white">
                                <use xlink:href="#path-1"></use>
                            </mask>
                            <g id="Clip-2"></g>
                            <path d="M3.99184468,4.70805088 C1.8007328,4.70805088 0.01649769,2.94827157 0.01649769,0.784679234 C0.01649769,0.351539004 0.37268878,4.90421456e-06 0.811567088,4.90421456e-06 C1.2504454,4.90421456e-06 1.60663649,0.351539004 1.60663649,0.784679234 C1.60663649,2.08316812 2.67734651,3.13870222 3.99184468,3.13870222 C5.30634286,3.13870222 6.37705288,2.08316812 6.37705288,0.784679234 C6.37705288,0.351539004 6.73324397,4.90421456e-06 7.17212228,4.90421456e-06 C7.61100058,4.90421456e-06 7.96719167,0.351539004 7.96719167,0.784679234 C7.96719167,2.94827157 6.18315533,4.70805088 3.99184468,4.70805088" id="Fill-1" fill="#EEEDFF" mask="url(#mask-2)"></path>
                        </g>
                        <path d="M19.7378596,19.3632184 L1.89261036,19.3632184 C0.848967455,19.3632184 0,18.5291264 0,17.5037701 C0,16.9595632 0.241215046,16.4443448 0.661845822,16.0904559 C0.688968573,16.0670958 0.718068496,16.0458774 0.748385141,16.0266513 C2.33600397,14.6654866 3.24459078,12.7071686 3.24459078,10.6393716 L3.24459078,7.67477395 C3.24459078,3.57334866 6.64167732,0.236781609 10.815235,0.236781609 C10.9883136,0.236781609 11.1754353,0.23991954 11.3485646,0.268708812 C11.7907415,0.340881226 12.0893959,0.752199234 12.0157336,1.18568199 C11.9422233,1.61916475 11.5160666,1.91258621 11.0824068,1.84016475 C10.9958674,1.82636782 10.9008111,1.83065134 10.815235,1.83065134 C7.53617044,1.83065134 4.86688617,4.45201916 4.86688617,7.67477395 L4.86688617,10.6393716 C4.86688617,13.2066475 3.72144423,15.6357548 1.72723762,17.3027931 C1.71101467,17.3156437 1.69697167,17.3272989 1.679532,17.338954 C1.65043207,17.3751648 1.62229539,17.4304023 1.62229539,17.5037701 C1.62229539,17.6481149 1.74569123,17.7693487 1.89261036,17.7693487 L19.7378596,17.7693487 C19.8849815,17.7693487 20.0083774,17.6481149 20.0083774,17.5037701 C20.0083774,17.4292567 19.9802407,17.3751648 19.9499748,17.338954 C19.9337011,17.3272989 19.9196581,17.3156437 19.9034352,17.3027931 C17.9080118,15.6346092 16.7637866,13.2066475 16.7637866,10.6393716 L16.7637866,9.48132567 C16.7637866,9.04141762 17.1271808,8.6843908 17.5749343,8.6843908 C18.0226878,8.6843908 18.386082,9.04141762 18.386082,9.48132567 L18.386082,10.6393716 C18.386082,12.708364 19.295632,14.6676284 20.8854815,16.0299387 C20.9145815,16.0490153 20.9427181,16.0692375 20.9686242,16.0916015 C21.3894577,16.4443448 21.6306728,16.9595632 21.6306728,17.5037701 C21.6306728,18.5291264 20.7817053,19.3632184 19.7378596,19.3632184" id="Fill-4" fill="#EEEDFF"></path>
                    </g>
                    <circle id="Oval" stroke="#74E789" stroke-width="2" cx="21.6818182" cy="8" r="7"></circle>
                </g>
            </g>
        </g>
    </g>
</svg>