<?xml version="1.0" encoding="UTF-8"?>
<svg width="20px" height="20px" viewBox="0 0 20 20" version="1.1" xmlns="http://www.w3.org/2000/svg" xmlns:xlink="http://www.w3.org/1999/xlink">
    <!-- Generator: Sketch 61.2 (89653) - https://sketch.com -->
    <title>search (1)</title>
    <desc>Created with Sketch.</desc>
    <g id="Page-1" stroke="none" stroke-width="1" fill="none" fill-rule="evenodd">
        <g id="Desktop-Copy" transform="translate(-352.000000, -33.000000)" fill="#74E789" fill-rule="nonzero">
            <g id="MENU-CABECERA" transform="translate(339.000000, 23.000000)">
                <g id="BÚSQUEDA" transform="translate(0.000000, 2.000000)">
                    <g id="search-(1)" transform="translate(13.000000, 8.000000)">
                        <path d="M19.7556033,18.5775 L14.0681658,12.89 C15.1698333,11.5291797 15.8331464,9.8 15.8331464,7.91667969 C15.8331464,3.55167969 12.2815057,0 7.91655365,0 C3.55160161,0 0,3.55164063 0,7.91664062 C0,12.2816406 3.55164067,15.8333203 7.91659271,15.8333203 C9.79989234,15.8333203 11.529053,15.17 12.8898584,14.0683203 L18.5772959,19.7558203 C18.7397941,19.9183203 18.9531121,20 19.1664691,20 C19.3798261,20 19.5931441,19.9183203 19.7556423,19.7558203 C20.0814591,19.43 20.0814591,18.9033203 19.7556033,18.5775 Z M7.91659271,14.1666406 C4.46995089,14.1666406 1.66666138,11.3633203 1.66666138,7.91664063 C1.66666138,4.46996094 4.46995089,1.66664063 7.91659271,1.66664063 C11.3632345,1.66664063 14.166524,4.46996094 14.166524,7.91664063 C14.166524,11.3633203 11.3631955,14.1666406 7.91659271,14.1666406 Z" id="Shape"></path>
                    </g>
                </g>
            </g>
        </g>
    </g>
</svg>