<?xml version="1.0" encoding="UTF-8"?>
<svg width="23px" height="26px" viewBox="0 0 23 26" version="1.1" xmlns="http://www.w3.org/2000/svg" xmlns:xlink="http://www.w3.org/1999/xlink">
    <!-- Generator: Sketch 61.2 (89653) - https://sketch.com -->
    <title>speaker (1)</title>
    <desc>Created with Sketch.</desc>
    <g id="Page-1" stroke="none" stroke-width="1" fill="none" fill-rule="evenodd">
        <g id="Desktop-Copy" transform="translate(-711.000000, -115.000000)" fill="#74E789" fill-rule="nonzero">
            <g id="MENU" transform="translate(315.000000, 105.000000)">
                <g id="speaker-(1)" transform="translate(396.000000, 10.000000)">
                    <path d="M21.2178562,10.1627069 L12.5846637,1.62335343 C11.6921925,0.740532633 10.2398341,0.740482301 9.34726106,1.62335343 C8.54490708,2.41693584 8.47580531,3.62726604 9.06830973,4.49151438 L9.05630088,4.55095631 C8.43387611,7.62950442 6.91857301,10.4301704 4.6740885,12.650208 L0.714272124,16.5669829 C-0.180387168,17.4519679 -0.180539823,18.8842113 0.714272124,19.7691963 L2.87250664,21.9039718 C3.76711504,22.7889065 5.21519912,22.7889569 6.10990929,21.9039718 L6.64949336,21.3702528 L10.4264801,25.1061853 C11.3211394,25.9911704 12.7691217,25.9912207 13.6638319,25.1061853 C14.5564049,24.2233645 14.5564049,22.7868429 13.6638319,21.9040221 L12.0451305,20.3029154 L12.5847146,19.7691963 C13.4793739,18.8843119 13.4794757,17.4520686 12.5847146,16.5670332 L12.2180376,16.2042915 C14.0218584,14.9551051 16.0704358,14.0854209 18.2581327,13.6526173 L18.3189912,13.6405879 C19.2121748,14.2370708 20.4329558,14.1411886 21.2178562,13.3648197 L21.2179071,13.3648197 C22.1103274,12.4820492 22.1103274,11.045578 21.2178562,10.1627069 Z M5.03079204,20.8365841 C4.73260619,21.1314784 4.24980973,21.1315288 3.95162389,20.8365337 L1.79338938,18.7017583 C1.49515265,18.4067129 1.49515265,17.9293656 1.79338938,17.6343706 L5.57032522,13.8984381 L8.80772788,17.1006515 C8.43820133,17.4661615 5.40942699,20.4620144 5.03079204,20.8365841 Z M12.5846637,22.9713595 C12.8821372,23.2655996 12.8821372,23.7444569 12.5846637,24.0387472 C12.2871903,24.3329873 11.8030199,24.3329873 11.5055465,24.0387472 L7.72855973,20.3028147 L8.80772788,19.235427 L12.5846637,22.9713595 Z M9.88684513,18.1680393 C10.1162345,17.9411433 10.4596062,17.5936018 11.001531,17.1357832 L11.5055465,17.6343706 C11.8037832,17.9293656 11.8037832,18.4067129 11.5055465,18.7017583 L10.9659624,19.2354773 L9.88684513,18.1680393 Z M9.91925885,16.0653756 L6.61692699,12.7989386 C8.38665487,10.7776615 9.65399558,8.39167976 10.3320376,5.79958905 L16.9955243,12.3906466 C14.3749491,13.0612683 11.9627987,14.3148335 9.91925885,16.0653756 Z M20.1385863,12.2973816 C19.8403496,12.5923263 19.3577058,12.5923263 19.059469,12.2973816 L10.4263783,3.75812887 C10.1281416,3.46308352 10.1281416,2.98573617 10.4263783,2.69074115 C10.724615,2.39574613 11.2073097,2.39574613 11.5055465,2.69074115 L20.1385863,11.2299436 C20.4360597,11.524234 20.4360597,12.0030409 20.1385863,12.2973816 Z" id="Shape"></path>
                    <path d="M6.10985841,16.5669325 C5.81192699,16.2721892 5.32872345,16.2721892 5.03074115,16.5669325 L3.95162389,17.6343202 C3.65364159,17.9290636 3.65364159,18.4069646 3.95162389,18.701708 C4.24955531,18.9964513 4.73280973,18.9964513 5.03074115,18.701708 L6.10985841,17.6343202 C6.40784071,17.3395769 6.40784071,16.8616759 6.10985841,16.5669325 Z" id="Path"></path>
                    <path d="M16.0893142,0 C15.667885,0 15.3262434,0.337928097 15.3262434,0.754776549 L15.3262434,2.26432965 C15.3262434,2.6811781 15.667885,3.01910619 16.0893142,3.01910619 C16.5107434,3.01910619 16.852385,2.6811781 16.852385,2.26432965 L16.852385,0.754776549 C16.852385,0.337928097 16.5107434,0 16.0893142,0 Z" id="Path"></path>
                    <path d="M22.1938296,6.03811173 L20.6676881,6.03811173 C20.2462588,6.03811173 19.9046173,6.37603982 19.9046173,6.79288827 C19.9046173,7.20973673 20.2462588,7.54766482 20.6676881,7.54766482 L22.1938296,7.54766482 C22.6152588,7.54766482 22.9569004,7.20973673 22.9569004,6.79288827 C22.9569004,6.37603982 22.615208,6.03811173 22.1938296,6.03811173 Z" id="Path"></path>
                    <path d="M21.2072721,1.73056029 C20.9093407,1.43581692 20.4261372,1.43581692 20.1281549,1.73056029 L18.6020133,3.24011338 C18.304031,3.53485675 18.304031,4.01275774 18.6020133,4.30750111 C18.8999447,4.60224447 19.3831482,4.6022948 19.6811305,4.30750111 L21.2072721,2.79794801 C21.5052544,2.50320465 21.5052544,2.02535398 21.2072721,1.73056029 Z" id="Path"></path>
                </g>
            </g>
        </g>
    </g>
</svg>