<?xml version="1.0" encoding="UTF-8"?>
<svg width="51px" height="51px" viewBox="0 0 51 51" version="1.1" xmlns="http://www.w3.org/2000/svg" xmlns:xlink="http://www.w3.org/1999/xlink">
    <!-- Generator: Sketch 61.2 (89653) - https://sketch.com -->
    <title>Group 42</title>
    <desc>Created with Sketch.</desc>
    <defs>
        <polygon id="path-1" points="0.000365907408 0.386 50.614 0.386 50.614 51 0.000365907408 51"></polygon>
    </defs>
    <g id="Page-1" stroke="none" stroke-width="1" fill="none" fill-rule="evenodd">
        <g id="modal2" transform="translate(-441.000000, -631.000000)">
            <g id="Group-42" transform="translate(441.000000, 630.000000)">
                <g id="Group-3" transform="translate(0.000000, 0.614200)">
                    <mask id="mask-2" fill="white">
                        <use xlink:href="#path-1"></use>
                    </mask>
                    <g id="Clip-2"></g>
                    <path d="M50.6142235,25.8389 C50.5328,39.8159 39.1378,51.0799 25.1618,51.0003235 C11.1848,50.9189 -0.0802,39.5239 0.000365907408,25.5469 C0.0808,11.5699 11.4758,0.3059 25.4528,0.38547649 C39.4288,0.4669 50.6938,11.8619 50.6142235,25.8389" id="Fill-1" fill="#364FCC" mask="url(#mask-2)"></path>
                </g>
                <path d="M42.4663,36.7871 C42.4643,37.0811 42.2243,37.3191 41.9293,37.3181 C41.9293,37.3181 37.8133,38.7881 33.7463,38.7651 C27.4473,38.7281 8.5503,38.6201 8.5503,38.6201 C8.2553,38.6181 8.0183,38.3771 8.01929685,38.0821 L8.0303,36.1531 C8.0323,35.8591 8.2733,35.6211 8.5683,35.6221 C8.5683,35.6221 27.4033,35.7311 33.6803,35.7671 C37.3743,35.7881 41.4483,34.3181 41.4483,34.3181 C41.7433,34.3201 41.9813,34.5611 41.9803,34.8551 L42.4663,36.7871 Z" id="Fill-4" fill="#D8C191"></path>
                <path d="M34.3686,31.5468 C26.0256,29.8688 22.7146,23.5658 21.4776,18.1958 L21.4766,18.2028 C21.4756,18.1928 21.4746,18.1848 21.4726,18.1758 C21.1886,16.9358 21.0136,15.7478 20.9146,14.6778 C20.6026,13.9798 19.9596,13.7508 18.3406,13.9128 C17.3126,13.9748 18.3216,17.0468 19.0006,18.1888 C15.9886,17.8708 12.4586,18.7228 10.4546,17.1538 C9.3716,16.3068 9.1146,16.5238 9.1086,16.9448 C9.1406,17.1548 9.1746,17.3698 9.2096,17.5888 C9.2496,17.7498 9.2886,17.8848 9.2936,17.9428 C9.2946,17.9578 9.2866,17.9658 9.2686,17.9698 C9.7696,21.1548 10.3536,25.0458 9.2466,26.9208 C7.4856,29.8988 8.5716,34.8758 8.5716,34.8758 C8.5716,34.8758 23.7056,34.9628 33.6846,35.0198 C38.2176,35.0468 40.9476,33.5678 41.4526,33.5708 C42.4126,32.3228 37.5266,30.9008 34.3686,31.5468" id="Fill-6" fill="#9FB1D5"></path>
                <path d="M34.3686,31.5468 C26.0256,29.8688 22.7146,23.5658 21.4776,18.1958 L21.4766,18.2028 C21.4756,18.1928 21.4746,18.1848 21.4726,18.1758 C21.1886,16.9358 21.0136,15.7478 20.9146,14.6778 C20.6026,13.9798 19.9596,13.7508 18.3406,13.9128 C17.3126,13.9748 18.3216,17.0468 19.0006,18.1888 C15.9886,17.8708 12.4586,18.7228 10.4546,17.1538 C9.3716,16.3068 9.1146,16.5238 9.1086,16.9448 C9.1406,17.1548 9.1746,17.3698 9.2096,17.5888 C9.2496,17.7498 9.2886,17.8848 9.2936,17.9428 C9.2946,17.9578 9.2866,17.9658 9.2686,17.9698 C9.7696,21.1548 10.3536,25.0458 9.2466,26.9208 C7.4856,29.8988 8.5716,34.8758 8.5716,34.8758 C8.5716,34.8758 23.7056,34.9628 33.6846,35.0198 C35.0356,35.0278 36.2226,34.9008 37.2406,34.7198 C37.2356,34.6948 36.6816,32.1698 34.3686,31.5468" id="Fill-8" fill="#FF6B00"></path>
                <path d="M42.4712,36.04 C42.4692,36.334 42.2282,36.572 41.9342,36.571 C41.9342,36.571 37.8182,38.041 33.7502,38.018 C27.4512,37.981 8.5552,37.873 8.5552,37.873 C8.2602,37.871 8.0222,37.63 8.02418749,37.335 L8.0342,35.406 C8.0362,35.112 8.2772,34.873 8.5722,34.875 C8.5722,34.875 27.4072,34.984 33.6852,35.02 C37.3782,35.041 41.4522,33.571 41.4522,33.571 C41.7472,33.573 41.9862,33.814 41.9842,34.108 L42.4712,36.04 Z" id="Fill-10" fill="#FFFFFF"></path>
                <path d="M31.7056,32.6474 C31.8096,32.2604 31.5786,31.8624 31.1906,31.7604 C30.8036,31.6574 30.4056,31.8884 30.3036,32.2764 C30.2006,32.6624 30.4316,33.0604 30.8186,33.1624 C31.2056,33.2654 31.6026,33.0344 31.7056,32.6474" id="Fill-12" fill="#FFFFFF"></path>
                <path d="M31.395,32.5649 C31.452,32.3499 31.324,32.1299 31.108,32.0719 C30.892,32.0149 30.671,32.1439 30.615,32.3579 C30.557,32.5739 30.686,32.7939 30.901,32.8519 C31.116,32.9079 31.337,32.7809 31.395,32.5649" id="Fill-14" fill="#590600"></path>
                <path d="M31.9624,30.4243 C32.0194,30.2093 31.8914,29.9883 31.6754,29.9303 C31.4604,29.8743 31.2394,30.0023 31.1834,30.2173 L30.7184,31.9683 C30.6614,32.1833 30.7894,32.4043 31.0044,32.4613 C31.2204,32.5183 31.4414,32.3903 31.4974,32.1753 L31.9624,30.4243 Z" id="Fill-16" fill="#FFFFFF"></path>
                <path d="M28.5991,31.414 C28.8021,31.067 28.6871,30.623 28.3421,30.42 C27.9961,30.216 27.5511,30.331 27.3481,30.676 C27.1451,31.022 27.2601,31.467 27.6051,31.67 C27.9511,31.874 28.3951,31.757 28.5991,31.414" id="Fill-18" fill="#FFFFFF"></path>
                <path d="M28.3208,31.25 C28.4338,31.057 28.3708,30.81 28.1778,30.698 C27.9858,30.585 27.7388,30.649 27.6258,30.84 C27.5118,31.033 27.5768,31.28 27.7688,31.392 C27.9618,31.505 28.2078,31.441 28.3208,31.25" id="Fill-20" fill="#590600"></path>
                <path d="M29.4448,29.3413 C29.5578,29.1493 29.4938,28.9013 29.3018,28.7883 C29.1098,28.6753 28.8628,28.7393 28.7498,28.9313 L27.8308,30.4923 C27.7168,30.6843 27.7818,30.9313 27.9728,31.0453 C28.1658,31.1573 28.4128,31.0943 28.5258,30.9023 L29.4448,29.3413 Z" id="Fill-22" fill="#FFFFFF"></path>
                <path d="M25.6089,29.5425 C25.8999,29.2685 25.9149,28.8095 25.6399,28.5175 C25.3649,28.2245 24.9059,28.2115 24.6139,28.4855 C24.3219,28.7605 24.3079,29.2195 24.5829,29.5115 C24.8569,29.8035 25.3159,29.8175 25.6089,29.5425" id="Fill-24" fill="#FFFFFF"></path>
                <path d="M25.3872,29.3076 C25.5502,29.1556 25.5572,28.8996 25.4052,28.7376 C25.2522,28.5756 24.9962,28.5686 24.8342,28.7216 C24.6722,28.8736 24.6642,29.1286 24.8172,29.2906 C24.9702,29.4526 25.2252,29.4616 25.3872,29.3076" id="Fill-26" fill="#590600"></path>
                <path d="M27.0005,27.7905 C27.1625,27.6375 27.1705,27.3815 27.0175,27.2195 C26.8645,27.0575 26.6095,27.0485 26.4475,27.2025 L25.1285,28.4445 C24.9655,28.5975 24.9585,28.8525 25.1105,29.0145 C25.2645,29.1765 25.5195,29.1845 25.6815,29.0325 L27.0005,27.7905 Z" id="Fill-28" fill="#FFFFFF"></path>
                <path d="M23.1831,26.8047 C23.5271,26.5987 23.6401,26.1547 23.4351,25.8097 C23.2291,25.4657 22.7851,25.3527 22.4401,25.5577 C22.0951,25.7627 21.9831,26.2077 22.1881,26.5527 C22.3931,26.8967 22.8381,27.0097 23.1831,26.8047" id="Fill-30" fill="#FFFFFF"></path>
                <path d="M23.0181,26.5278 C23.2081,26.4128 23.2721,26.1668 23.1581,25.9748 C23.0431,25.7828 22.7961,25.7198 22.6051,25.8358 C22.4141,25.9488 22.3511,26.1958 22.4651,26.3878 C22.5791,26.5788 22.8261,26.6408 23.0181,26.5278" id="Fill-32" fill="#590600"></path>
                <path d="M24.9204,25.394 C25.1114,25.281 25.1744,25.033 25.0614,24.841 C24.9464,24.65 24.6984,24.587 24.5084,24.701 L22.9514,25.628 C22.7594,25.742 22.6964,25.99 22.8114,26.182 C22.9254,26.372 23.1724,26.436 23.3634,26.321 L24.9204,25.394 Z" id="Fill-34" fill="#FFFFFF"></path>
                <path d="M21.3276,23.3799 C21.6976,23.2259 21.8716,22.8009 21.7176,22.4309 C21.5626,22.0619 21.1386,21.8869 20.7676,22.0409 C20.3986,22.1949 20.2236,22.6199 20.3786,22.9899 C20.5326,23.3589 20.9576,23.5339 21.3276,23.3799" id="Fill-36" fill="#FFFFFF"></path>
                <path d="M21.2036,23.082 C21.4086,22.998 21.5066,22.76 21.4196,22.555 C21.3336,22.35 21.0986,22.252 20.8916,22.338 C20.6866,22.424 20.5906,22.659 20.6756,22.865 C20.7626,23.072 20.9976,23.168 21.2036,23.082" id="Fill-38" fill="#590600"></path>
                <path d="M23.2475,22.2295 C23.4525,22.1445 23.5505,21.9085 23.4645,21.7025 C23.3785,21.4975 23.1435,21.3995 22.9355,21.4845 L21.2655,22.1835 C21.0595,22.2695 20.9625,22.5045 21.0475,22.7095 C21.1335,22.9155 21.3695,23.0135 21.5745,22.9275 L23.2475,22.2295 Z" id="Fill-40" fill="#FFFFFF"></path>
            </g>
        </g>
    </g>
</svg>