<?xml version="1.0" encoding="UTF-8"?>
<svg width="25px" height="25px" viewBox="0 0 25 25" version="1.1" xmlns="http://www.w3.org/2000/svg" xmlns:xlink="http://www.w3.org/1999/xlink">
    <!-- Generator: Sketch 61.2 (89653) - https://sketch.com -->
    <title>Group 12</title>
    <desc>Created with Sketch.</desc>
    <defs>
        <polygon id="path-1" points="0.000228385962 0.189215686 24.8107843 0.189215686 24.8107843 25 0.000228385962 25"></polygon>
    </defs>
    <g id="Page-1" stroke="none" stroke-width="1" fill="none" fill-rule="evenodd">
        <g id="Desktop-Copy-2" transform="translate(-1112.000000, -694.000000)">
            <g id="CAFETERIA" transform="translate(1080.000000, 211.000000)">
                <g id="Chat-Copy" transform="translate(22.000000, 358.000000)">
                    <g id="Group-4" transform="translate(10.000000, 123.000000)">
                        <g id="Group-11">
                            <g id="Group-12" transform="translate(0.000000, 2.000000)">
                                <g id="Group-3">
                                    <mask id="mask-2" fill="white">
                                        <use xlink:href="#path-1"></use>
                                    </mask>
                                    <g id="Clip-2"></g>
                                    <path d="M24.8109429,12.6660784 C24.7710294,19.517549 19.1847549,25.0391176 12.3337745,25.0001096 C5.48279412,24.9601961 -0.0392647059,19.3744118 0.000228385962,12.5229412 C0.0396568627,5.67196078 5.62544118,0.149901961 12.4769118,0.188910062 C19.3278922,0.228823529 24.849951,5.81460784 24.8109429,12.6660784" id="Fill-1" fill="#E87E1F" mask="url(#mask-2)"></path>
                                </g>
                                <path d="M8.15595665,12.4073728 L4,13.1920889 C4,13.1920889 4.13827582,16.0659781 4.52861695,17.0009279 C4.91943819,17.9353916 5.83359502,19.0735704 7.65326643,18.9962656 C9.47437821,18.9179885 11.3679888,17.1793609 13.2841652,14.0108386 C15.1984211,10.8428025 16.2124438,8.84406146 17.2533535,8.39579115 C18.2952234,7.94606227 20.1792314,7.83132063 20.2690147,7.8405583 C20.5796552,8.05594197 20.8009925,7.95627233 20.9426292,7.75596065 C21.0828255,7.55662136 20.9392683,7.17495955 20.7985919,7.0684832 C20.6579154,6.96297924 20.4159328,6.96832736 20.2152408,7.16280472 C20.0567997,7.23865089 17.915445,7.20364496 16.8802968,7.58822393 C15.8461089,7.97183052 12.8400501,10.5583793 11.4140807,12.7608354 C9.98667092,14.9632914 9.2280744,14.9982974 8.73930778,13.8367814 C8.25006103,12.6762377 8.15595665,12.4073728 8.15595665,12.4073728" id="Fill-4" fill="#954E00"></path>
                                <path d="M20.9383572,6.79968772 C21.088993,6.58884522 20.934746,6.18515897 20.7835943,6.07202397 C20.6324425,5.96094597 20.3724408,5.96660272 20.1568045,6.17230272 C19.9865654,6.25252572 17.685757,6.21549972 16.5735277,6.62227147 C15.5304258,7.00384497 12.6198516,9.43727598 11,11.6619215 L12.9629094,13 C14.8577231,9.89135874 15.9028885,7.93000923 16.9743636,7.47592648 C18.0938152,7.00075947 20.1181138,6.87939647 20.2145827,6.88916722 C20.5483547,7.11697997 20.7861736,7.01155872 20.9383572,6.79968772" id="Fill-6" fill="#470500"></path>
                                <path d="M13.6037935,13 C13.7412013,12.734522 13.8735511,12.4769688 14,12.2293214 L12.4712329,11 C12.3034773,11.2382368 12.1449947,11.4754829 12,11.7112432 L13.6037935,13 Z" id="Fill-8" fill="#FFBA32"></path>
                                <path d="M4.55096812,15.4924609 C4.32540137,14.6683112 4.32126598,13.9164293 4.12878236,14.0075065 C3.93629873,14.0990787 3.96261485,14.8410609 4.18742971,15.6652106 C4.4133724,16.4878753 4.75209847,17.0818571 4.94533399,16.9907799 C5.13819356,16.8992077 4.77615893,16.3166106 4.55096812,15.4924609" id="Fill-10" fill="#FFFFFF"></path>
                            </g>
                        </g>
                    </g>
                </g>
            </g>
        </g>
    </g>
</svg>