<?xml version="1.0" encoding="UTF-8"?>
<svg width="51px" height="51px" viewBox="0 0 51 51" version="1.1" xmlns="http://www.w3.org/2000/svg" xmlns:xlink="http://www.w3.org/1999/xlink">
    <!-- Generator: Sketch 61.2 (89653) - https://sketch.com -->
    <title>Group 26</title>
    <desc>Created with Sketch.</desc>
    <defs>
        <polygon id="path-1" points="0 0.386 50.6138341 0.386 50.6138341 51 0 51"></polygon>
    </defs>
    <g id="Page-1" stroke="none" stroke-width="1" fill="none" fill-rule="evenodd">
        <g id="modal2" transform="translate(-441.000000, -541.000000)">
            <g id="Group-26" transform="translate(441.000000, 540.000000)">
                <g id="Group-3" transform="translate(0.000000, 0.614200)">
                    <mask id="mask-2" fill="white">
                        <use xlink:href="#path-1"></use>
                    </mask>
                    <g id="Clip-2"></g>
                    <path d="M50.6138341,25.8389 C50.5334,39.8159 39.1374,51.0799 25.1614,51.0003235 C11.1844,50.9189 -0.0796,39.5239 -2.35103265e-05,25.5469 C0.0814,11.5709 11.4764,0.3059 25.4534,0.385476527 C39.4294,0.4669 50.6944,11.8619 50.6138341,25.8389" id="Fill-1" fill="#33CCBD" mask="url(#mask-2)"></path>
                </g>
                <path d="M40.6974,25.7997 C40.2294,22.7727 38.4364,17.6217 36.4644,15.6257 C33.7604,12.8917 29.2094,17.7307 25.3644,17.7077 C21.5194,17.6857 17.0234,12.7957 14.2894,15.4977 C12.2944,17.4707 10.6554,21.8397 9.9384,25.6227 C9.4174,28.3797 7.9014,34.8497 9.8744,36.8447 C10.8824,37.8647 13.3324,38.4057 14.8834,36.7247 C17.1144,34.3027 20.1074,31.1807 25.2874,31.2107 C30.4664,31.2407 33.4234,34.3967 35.6274,36.8437 C37.1574,38.5437 39.6144,38.0297 40.6334,37.0227 C42.6294,35.0497 41.1274,28.5727 40.6974,25.7997" id="Fill-4" fill="#262626"></path>
                <path d="M32.4445,16.371 C31.5865,19.042 32.1485,23.673 33.2585,27.361 C34.0685,30.047 35.7095,36.486 38.3815,37.346 C38.8925,37.511 39.5535,37.522 40.2125,37.355 C40.3685,37.253 40.5115,37.142 40.6325,37.022 C42.6295,35.049 41.1275,28.573 40.6975,25.8 C40.2295,22.773 38.4365,17.621 36.4645,15.626 C35.6465,14.798 34.6575,14.671 33.5725,14.886 C33.0565,15.22 32.6635,15.693 32.4445,16.371" id="Fill-6" fill="#404040"></path>
                <path d="M14.2892,15.498 C12.2942,17.471 10.6552,21.839 9.9382,25.623 C9.4172,28.38 7.9012,34.85 9.8742,36.845 C9.9952,36.967 10.1392,37.081 10.2962,37.187 C10.9452,37.356 11.5992,37.352 12.1072,37.194 C14.7882,36.365 16.5042,29.946 17.3442,27.269 C18.4972,23.595 19.1122,18.97 18.2842,16.29 C18.0732,15.607 17.6842,15.129 17.1702,14.788 C16.0952,14.566 15.1112,14.686 14.2892,15.498" id="Fill-8" fill="#404040"></path>
                <path d="M36.4552,19.4237785 C35.7682,19.4198 35.2092,19.9738 35.2051784,20.6588 C35.2012,21.3468 35.7542,21.9068 36.4402,21.9108216 C37.1292,21.9148 37.6882,21.3618 37.6922215,20.6738 C37.6962,19.9888 37.1422,19.4278 36.4552,19.4237785 M31.6022,19.3957785 C30.9162,19.3918 30.3562,19.9458 30.3521878,20.6318 C30.3492,21.3198 30.9012,21.8788 31.5882,21.8828216 C32.2752,21.8868 32.8352,21.3338 32.8392216,20.6458 C32.8432,19.9608 32.2902,19.3998 31.6022,19.3957785 M35.2512215,23.0858 C35.2552,22.3998 34.7012,21.8398 34.0162,21.8357784 C33.3282,21.8318 32.7682,22.3848 32.7651784,23.0718 C32.7612,23.7588 33.3132,24.3188 34.0012,24.3228216 C34.6862,24.3268 35.2472,23.7738 35.2512215,23.0858 M34.0292,19.4698216 C33.3422,19.4658 32.7882,18.9068 32.7932,18.2188 C32.7972,17.5318 33.3552,16.9788 34.0442,16.9838 C34.7282,16.9868 35.2832,17.5468 35.2792215,18.2338 C35.2752,18.9208 34.7152,19.4738 34.0292,19.4698216" id="Fill-10" fill="#E62E2E"></path>
                <path d="M27.1261337,21.686 C27.1321,20.696 26.3351,19.889 25.3451,19.8829664 C24.3541,19.877 23.5461,20.675 23.5410663,21.665 C23.5351,22.656 24.3321,23.463 25.3231,23.4690336 C26.3141,23.475 27.1211,22.677 27.1261337,21.686" id="Fill-12" fill="#666666"></path>
                <path d="M23.3996497,27.0356 C23.4086,25.5296 22.1946,24.3016 20.6886,24.2925607 C19.1816,24.2846 17.9546,25.4986 17.9455607,27.0046 C17.9376,28.5106 19.1506,29.7386 20.6576,29.7476497 C22.1636,29.7566 23.3906,28.5416 23.3996497,27.0356" id="Fill-14" fill="#666666"></path>
                <polygon id="Fill-16" fill="#C7E62E" points="23.0724 26.2265 21.4864 26.2175 21.4954 24.6315 19.8804 24.6225 19.8714 26.2075 18.2844 26.1995 18.2744 27.8145 19.8614 27.8235 19.8524 29.4095 21.4684 29.4195 21.4764 27.8325 23.0624 27.8415"></polygon>
                <path d="M32.6584497,27.4228 C32.6674,25.9168 31.4534,24.6888 29.9464,24.6797607 C28.4404,24.6718 27.2134,25.8848 27.2043503,27.3908 C27.1954,28.8968 28.4094,30.1248 29.9154,30.1338497 C31.4224,30.1428 32.6494,28.9278 32.6584497,27.4228" id="Fill-18" fill="#666666"></path>
                <path d="M32.0002396,27.4189 C32.0072,26.2759 31.0862,25.3439 29.9422,25.3368708 C28.8002,25.3309 27.8682,26.2519 27.8611604,27.3949 C27.8542,28.5379 28.7752,29.4699 29.9192,29.4759396 C31.0632,29.4829 31.9932,28.5619 32.0002396,27.4189" id="Fill-20" fill="#C7E62E"></path>
                <path d="M19.7580497,19.8505 C19.767,18.3445 18.553,17.1165 17.047,17.1074607 C15.54,17.0995 14.313,18.3125 14.3039503,19.8195 C14.295,21.3255 15.509,22.5535 17.016,22.5615497 C18.522,22.5705 19.749,21.3565 19.7580497,19.8505" id="Fill-22" fill="#666666"></path>
                <path d="M19.1008292,19.8466 C19.1068,18.7036 18.1858,17.7716 17.0428,17.7655604 C15.8998,17.7586 14.9678,18.6796 14.9607708,19.8226 C14.9548,20.9656 15.8758,21.8976 17.0198,21.9046292 C18.1628,21.9106 19.0938,20.9896 19.1008292,19.8466" id="Fill-24" fill="#E62E2E"></path>
            </g>
        </g>
    </g>
</svg>