<?xml version="1.0" encoding="UTF-8"?>
<svg width="51px" height="51px" viewBox="0 0 51 51" version="1.1" xmlns="http://www.w3.org/2000/svg" xmlns:xlink="http://www.w3.org/1999/xlink">
    <!-- Generator: Sketch 61.2 (89653) - https://sketch.com -->
    <title>Group 22</title>
    <desc>Created with Sketch.</desc>
    <defs>
        <polygon id="path-1" points="0.00048881421 0.386 50.614 0.386 50.614 51 0.00048881421 51"></polygon>
    </defs>
    <g id="Page-1" stroke="none" stroke-width="1" fill="none" fill-rule="evenodd">
        <g id="modal2" transform="translate(-441.000000, -807.000000)">
            <g id="Group-22" transform="translate(441.000000, 806.000000)">
                <g id="Group-3" transform="translate(0.000000, 0.614100)">
                    <mask id="mask-2" fill="white">
                        <use xlink:href="#path-1"></use>
                    </mask>
                    <g id="Clip-2"></g>
                    <path d="M50.6145095,25.7155 C50.6015,39.6925 39.2615,51.0125 25.2845,51.0005095 C11.3075,50.9875 -0.0125,39.6475 0.00048881421,25.6705 C0.0115,11.6945 11.3525,0.3735 25.3295,0.385490469 C39.3055,0.3985 50.6265,11.7385 50.6145095,25.7155" id="Fill-1" fill="#C9003E" mask="url(#mask-2)"></path>
                </g>
                <path d="M37.6594,24.1098 C36.1484,24.5918 34.7134,25.0038 33.4534,25.3968 L33.4474,31.1758 C35.0014,31.3888 36.8474,31.2758 38.8314,30.6438 C43.9104,29.0228 47.1634,22.1408 47.0634,21.8318 C46.7894,20.9708 42.7374,22.4898 37.6594,24.1098" id="Fill-4" fill="#A0C000"></path>
                <path d="M43.9211,23.1738 C38.7271,24.3768 34.9281,28.9788 35.0011,29.2948 C35.1321,29.8608 36.9471,29.5818 39.5121,29.0588 C43.7861,28.1878 46.2761,23.8368 46.9201,22.2968 C45.9811,22.5548 44.9751,22.9298 43.9211,23.1738" id="Fill-6" fill="#809900"></path>
                <path d="M12.9592,24.0883 C14.4682,24.5723 15.9032,24.9863 17.1622,25.3823 L17.1572,31.1613 C15.6042,31.3713 13.7572,31.2553 11.7742,30.6193 C6.6982,28.9903 3.4582,22.1023 3.5582,21.7933 C3.8342,20.9323 7.8832,22.4593 12.9592,24.0883" id="Fill-8" fill="#A0C000"></path>
                <path d="M6.6984,23.1411 C11.8904,24.3531 15.6804,28.9611 15.6074,29.2771 C15.4754,29.8431 13.6604,29.5611 11.0964,29.0341 C6.8254,28.1551 4.3424,23.8001 3.7014,22.2591 C4.6394,22.5181 5.6444,22.8951 6.6984,23.1411" id="Fill-10" fill="#809900"></path>
                <path d="M34.8273007,30.4863 C34.8293,28.4483 30.5733,19.1503 25.3123,19.146298 C20.0533,19.1413 15.7813,28.4313 15.7792993,30.4693 C15.7773,32.5073 20.0443,29.5123 25.3043,29.5163 C30.5643,29.5213 34.8253,32.5253 34.8273007,30.4863" id="Fill-12" fill="#607300"></path>
                <path d="M15.7805,29.5083 C15.7795,30.9183 16.0875,31.5913 16.6365,32.7963 L18.2025,33.4623 C18.0745,32.8023 17.9925,32.1243 17.9935,31.4303 C17.9945,29.9023 17.4475,27.9803 18.5125,27.1133 C20.0945,25.8243 23.0515,26.9873 25.3055,26.9893 C27.5605,26.9913 30.5195,25.8343 32.0995,27.1253 C33.1635,27.9943 32.6135,29.9153 32.6115,31.4433 C32.6115,32.1363 32.5275,32.8153 32.3995,33.4743 L33.9665,32.8113 C34.5175,31.6083 34.8265,30.9353 34.8285,29.5253 C34.8285,28.7483 34.7585,27.3483 34.8165,27.2873 C36.3615,25.6623 30.4045,19.1503 25.3125,19.1462971 C20.2215,19.1413 14.2535,25.6423 15.7955,27.2703 C15.8535,27.3313 15.7815,28.7313 15.7805,29.5083" id="Fill-14" fill="#C7E62E"></path>
                <path d="M16.1125,29.5088 C16.1115,30.9188 16.0875,31.5918 16.6365,32.7958 L18.2025,33.4618 C18.0745,32.8018 17.9925,32.1238 17.9935,31.4298 C17.9945,29.9018 17.4475,27.9808 18.5125,27.1128 C20.0945,25.8248 23.0525,26.2338 25.3065,26.2358 C27.5605,26.2378 30.5195,25.8338 32.0995,27.1248 C33.1635,27.9938 32.6135,29.9148 32.6115,31.4438 C32.6115,32.1368 32.5275,32.8148 32.3995,33.4748 L33.9665,32.8107968 C34.5175,31.6078 34.4945,30.9348 34.4965,29.5248 C34.4965,28.7478 34.4255,27.3478 34.4845,27.2868 C36.0295,25.6618 30.4035,19.8148 25.3125,19.8107968 C20.2215,19.8058 14.5855,25.6428 16.1285,27.2708 C16.1855,27.3318 16.1135,28.7318 16.1125,29.5088" id="Fill-16" fill="#A0C000"></path>
                <path d="M17.258,24.0439 C16.946,24.2209 16.65,24.3909 16.369,24.5559 C16.1,24.9529 15.89,25.3339 15.75,25.6849 C16.305,25.3319 16.978,24.9379 17.734,24.5099 C20.481,22.9519 23.271,23.4319 24.599,24.4479 C23.595,23.1459 20.4,22.2629 17.258,24.0439" id="Fill-18" fill="#C7E62E"></path>
                <path d="M33.3234,24.0581 C33.6344,24.2351 33.9304,24.4061 34.2124,24.5721 C34.4794,24.9691 34.6894,25.3501 34.8284,25.7021 C34.2744,25.3471 33.6014,24.9531 32.8464,24.5231 C30.1024,22.9601 27.3114,23.4351 25.9814,24.4501 C26.9884,23.1491 30.1844,22.2711 33.3234,24.0581" id="Fill-20" fill="#C7E62E"></path>
            </g>
        </g>
    </g>
</svg>