<?xml version="1.0" encoding="UTF-8"?>
<svg width="51px" height="51px" viewBox="0 0 51 51" version="1.1" xmlns="http://www.w3.org/2000/svg" xmlns:xlink="http://www.w3.org/1999/xlink">
    <!-- Generator: Sketch 61.2 (89653) - https://sketch.com -->
    <title>Group 14</title>
    <desc>Created with Sketch.</desc>
    <defs>
        <polygon id="path-1" points="0.000665869167 0.386 50.614 0.386 50.614 51 0.000665869167 51"></polygon>
    </defs>
    <g id="Page-1" stroke="none" stroke-width="1" fill="none" fill-rule="evenodd">
        <g id="modal2" transform="translate(-441.000000, -450.000000)">
            <g id="Group-14" transform="translate(441.000000, 449.000000)">
                <g id="Group-3" transform="translate(0.000000, 0.614200)">
                    <mask id="mask-2" fill="white">
                        <use xlink:href="#path-1"></use>
                    </mask>
                    <g id="Clip-2"></g>
                    <path d="M50.6145235,25.8389 C50.5331,39.8159 39.1371,51.0799 25.1611,51.0003235 C11.1841,50.9189 -0.0799,39.5239 0.000665869167,25.5469 C0.0811,11.5709 11.4761,0.3059 25.4531,0.385476527 C39.4291,0.4669 50.6941,11.8619 50.6145235,25.8389" id="Fill-1" fill="#AF37CC" mask="url(#mask-2)"></path>
                </g>
                <path d="M26.3309,18.8149 C27.0419,19.8439 27.1129,21.2169 26.5959,22.3399 C26.3079,22.9619 26.4209,23.6949 27.0379,24.0679 C27.1549,24.1389 28.0959,24.3539 28.1719,23.9509 C28.5209,22.1189 30.4039,21.0249 31.8489,20.0849 C33.4289,19.0599 35.2959,18.1619 36.4489,16.6279 C37.3809,15.3899 37.7629,13.7489 37.6569,12.2159 C37.5649,10.8989 37.3139,9.1659 36.0069,8.4869 C35.8739,8.4189 35.7629,8.5819 35.8549,8.6889 C36.6699,9.6299 37.3079,12.0779 37.0169,12.2659 C36.5929,11.7319 35.9209,11.0739 35.2379,10.9129 C35.1649,10.8949 35.1069,10.9729 35.1439,11.0389 C35.4609,11.5799 36.0589,11.9229 36.4049,12.4569 C36.5999,12.7569 36.8479,13.7169 36.8569,13.8429 C36.9799,15.4189 35.7589,16.5849 34.5769,17.5439 C34.3849,17.6999 33.9069,17.5579 33.9759,17.2859 C34.0769,16.8819 34.0889,16.4589 34.1729,16.0509 C34.2749,15.5669 34.2909,15.0219 34.2409,14.5469 C34.1809,13.9629 34.0999,13.3969 33.8129,12.8759 C33.7829,12.8199 33.6999,12.8489 33.6999,12.9079 C33.6979,13.1489 33.7149,13.3879 33.7359,13.6279 C33.4359,12.8479 32.9589,12.1039 32.1719,12.0139 C32.1179,12.0069 32.0879,12.0899 32.1299,12.1229 C33.0339,12.8529 33.5529,14.0499 33.6279,15.2039 C33.6469,15.5299 33.6429,15.8549 33.6139,16.1759 C33.4609,16.0259 33.2739,15.8819 33.0739,15.8129 C32.8649,15.7379 32.7139,15.7539 32.5009,15.7499 C32.3939,15.7489 32.3729,15.8879 32.4529,15.9399 C32.5649,16.0129 32.6529,16.1239 32.7649,16.2019 C32.8839,16.2859 33.0169,16.3599 33.1249,16.4589 C33.3999,16.7099 33.3799,16.8999 33.3639,17.2479 C33.3629,17.2669 33.3479,17.3799 33.3339,17.4189 C33.1449,17.9189 32.9269,18.2969 32.5879,18.7129 C32.1589,19.2409 31.4439,19.4479 30.8859,19.8339 C30.6549,19.9909 30.2709,19.8639 30.2619,19.6579 C30.2509,19.4119 30.1939,19.1959 30.0889,19.0509 C30.0589,19.0099 30.0059,19.0119 29.9769,19.0539 C29.8009,19.3009 29.8729,19.8359 29.7309,20.1209 C29.4959,20.5939 29.0419,20.9169 28.6579,21.2819 C28.4129,21.5139 28.1739,21.7929 27.8609,21.9359 C27.6279,22.0429 27.4309,21.2719 27.4579,21.0629 C27.5379,20.4419 27.6259,19.7989 27.5029,19.1819 C27.4779,19.0559 27.2809,19.0649 27.2559,19.1849 C27.2239,19.3349 27.3259,19.6549 27.1719,19.6399 C27.0669,19.6309 26.7899,18.8759 26.3989,18.7239 C26.3489,18.7039 26.3029,18.7729 26.3309,18.8149" id="Fill-4" fill="#FF9500"></path>
                <path d="M24.37,18.8037 C23.646,19.8237 23.558,21.1967 24.065,22.3257 C24.345,22.9507 24.223,23.6827 23.603,24.0487 C23.485,24.1177 22.541,24.3217 22.471,23.9187 C22.141,22.0817 20.27,20.9667 18.837,20.0107 C17.27,18.9667 15.414,18.0477 14.278,16.5007 C13.36,15.2507 12.996,13.6067 13.121,12.0747 C13.227,10.7597 13.498,9.0287 14.814,8.3647 C14.947,8.2977 15.056,8.4617 14.964,8.5687 C14.138,9.4997 13.472,11.9397 13.76,12.1327 C14.19,11.6027 14.87,10.9527 15.554,10.7987 C15.628,10.7817 15.685,10.8617 15.647,10.9267 C15.323,11.4637 14.723,11.8007 14.368,12.3297 C14.171,12.6277 13.913,13.5847 13.901,13.7107 C13.761,15.2847 14.969,16.4657 16.14,17.4377 C16.329,17.5957 16.808,17.4597 16.742,17.1867 C16.645,16.7817 16.641,16.3577 16.559,15.9497 C16.463,15.4647 16.454,14.9187 16.51,14.4457 C16.577,13.8617 16.665,13.2967 16.956,12.7787 C16.987,12.7237 17.069,12.7537 17.069,12.8117 C17.068,13.0537 17.049,13.2927 17.024,13.5327 C17.334,12.7557 17.82,12.0167 18.607,11.9357 C18.661,11.9297 18.691,12.0127 18.649,12.0447 C17.736,12.7647 17.203,13.9567 17.115,15.1087 C17.091,15.4347 17.091,15.7597 17.118,16.0807 C17.271,15.9327 17.461,15.7907 17.662,15.7237 C17.871,15.6517 18.022,15.6697 18.235,15.6677 C18.342,15.6677 18.362,15.8067 18.281,15.8577 C18.169,15.9297 18.08,16.0397 17.968,16.1157 C17.847,16.1987 17.713,16.2717 17.603,16.3697 C17.325,16.6167 17.344,16.8067 17.354,17.1557 C17.355,17.1747 17.37,17.2877 17.384,17.3267 C17.566,17.8297 17.781,18.2097 18.114,18.6307 C18.537,19.1617 19.249,19.3777 19.804,19.7697 C20.032,19.9297 20.417,19.8067 20.43,19.6017 C20.443,19.3547 20.501,19.1397 20.609,18.9967 C20.641,18.9557 20.692,18.9587 20.723,19.0007 C20.894,19.2497 20.815,19.7837 20.954,20.0707 C21.184,20.5457 21.636,20.8737 22.015,21.2427 C22.257,21.4777 22.493,21.7597 22.803,21.9067 C23.036,22.0157 23.242,21.2477 23.217,21.0387 C23.144,20.4167 23.064,19.7727 23.192,19.1567 C23.22,19.0307 23.417,19.0417 23.44,19.1627 C23.472,19.3137 23.365,19.6317 23.519,19.6187 C23.625,19.6117 23.91,18.8587 24.303,18.7117 C24.353,18.6927 24.398,18.7617 24.37,18.8037" id="Fill-6" fill="#FF9500"></path>
                <path d="M22.9022,26.3715 C22.9062,26.2725 22.9732,26.2155 23.0502,26.2115 C23.1262,26.2065 23.1852,26.3025 23.1822,26.3895 C23.1772,26.4865 23.1122,26.5455 23.0352,26.5505 C22.9592,26.5545 22.9002,26.4585 22.9022,26.3715 M22.4882,26.9235 C22.5222,26.9405 22.5582,26.9545 22.5962,26.9655 C22.6002,26.9675 22.6042,26.9725 22.6082,26.9745 C22.6432,26.9965 22.6822,27.0125 22.7272,27.0245 C22.7312,27.0275 22.7342,27.0315 22.7382,27.0335 C22.8862,27.1035 23.0192,27.0775 23.1492,26.9605 C23.2132,26.9035 23.2762,26.8375 23.3102,26.7455 C23.5312,26.1405 22.6292,25.7765 22.3592,26.2265 C22.2222,26.4555 22.2552,26.8045 22.4882,26.9235" id="Fill-8" fill="#FF9500"></path>
                <path d="M28.0292,26.5795 C27.9522,26.5735 27.8862,26.5135 27.8842,26.4165 C27.8822,26.3295 27.9422,26.2345 28.0182,26.2405 C28.0942,26.2445 28.1622,26.3035 28.1642,26.4015 C28.1662,26.4895 28.1062,26.5835 28.0292,26.5795 M28.2572,26.2605 C27.9922,25.8075 27.0852,26.1605 27.3002,26.7685 C27.3322,26.8615 27.3942,26.9275 27.4572,26.9855 C27.5862,27.1035 27.7182,27.1315 27.8682,27.0625 C27.8722,27.0605 27.8752,27.0575 27.8782,27.0545 C27.9222,27.0425 27.9642,27.0275 27.9972,27.0055 C28.0032,27.0035 28.0062,26.9985 28.0092,26.9965 C28.0492,26.9855 28.0852,26.9725 28.1182,26.9555 C28.3542,26.8395 28.3892,26.4915 28.2572,26.2605" id="Fill-10" fill="#FF9500"></path>
                <path d="M34.4237,22.3188 C33.7827,22.1978 33.3677,22.8638 32.8417,23.1178 C32.5647,23.2508 32.2957,23.3388 32.0007,23.3828 C31.4437,23.4678 30.7077,23.5068 30.3487,24.1168 C30.1857,24.3938 29.8197,24.0848 29.9917,23.8218 C30.5557,22.9688 31.3467,23.1468 32.1517,23.0428 C32.9557,22.9388 33.5987,22.0458 34.4247,22.2978 C34.4367,22.3018 34.4347,22.3218 34.4237,22.3188 M28.8357,26.2338 C28.6107,27.1438 27.7737,27.4118 27.1257,27.7168 C27.0527,27.7518 26.9657,27.6598 26.9707,27.5708 C26.9937,27.1238 27.0787,26.5498 27.4077,26.2728 C27.5997,26.1128 27.8117,26.0488 28.0397,26.0728 C28.1087,26.0808 28.1747,26.1078 28.2397,26.1258 C28.3957,26.1728 28.5097,26.1168 28.6377,26.0818 C28.6757,26.0308 28.7337,26.0298 28.7777,26.0628 C28.7857,26.0658 28.7927,26.0718 28.7967,26.0788 C28.8307,26.1158 28.8527,26.1698 28.8357,26.2338 M27.0927,32.9208 C26.9767,33.2488 26.5967,33.3478 26.2957,33.4038 C26.0007,33.5228 25.6467,33.6128 25.3347,33.5958 C25.1137,33.5858 24.9057,33.5298 24.6987,33.4648 C24.6037,33.4578 24.5087,33.4458 24.4217,33.4288 C24.1157,33.3658 23.5827,33.3018 23.4457,32.8998 C23.3827,32.7108 23.6227,32.5888 23.6877,32.7788 C23.7707,33.0148 24.2357,33.0608 24.4137,33.0978 C24.5917,33.1358 24.8657,33.1958 25.0837,33.1388 C25.0837,33.1268 25.0847,33.1138 25.0867,33.1008 C24.7807,32.9598 24.4487,32.8628 24.1927,32.6418 C24.0697,32.5368 24.1147,32.4038 24.2327,32.3418 C24.2597,32.3268 24.2747,32.3708 24.2597,32.3938 C24.1577,32.5568 24.5667,32.6378 24.6197,32.6528 C24.7807,32.7038 24.9447,32.7638 25.1057,32.8328 L25.1057,32.8438 C25.1157,32.8448 25.1277,32.8468 25.1397,32.8538 C25.1407,32.8538 25.1407,32.8548 25.1407,32.8548 C25.1637,32.7588 25.1857,32.6618 25.1897,32.5638 C25.1977,32.3808 25.2117,32.1998 25.2537,32.0248 C25.2587,32.0068 25.2797,32.0038 25.2827,32.0228 C25.3307,32.2598 25.4107,32.5518 25.4367,32.8338 C25.5967,32.7668 25.7607,32.7098 25.9217,32.6608 C25.9747,32.6458 26.3837,32.5688 26.2837,32.4048 C26.2707,32.3818 26.2857,32.3388 26.3137,32.3538 C26.4287,32.4168 26.4737,32.5508 26.3497,32.6538 C26.0887,32.8748 25.7497,32.9658 25.4407,33.1078 C25.4397,33.1168 25.4397,33.1278 25.4397,33.1368 C25.6557,33.2018 25.9397,33.1438 26.1217,33.1078 C26.2997,33.0728 26.7677,33.0318 26.8517,32.7968 C26.9187,32.6078 27.1577,32.7328 27.0927,32.9208 M26.2577,34.6278 C25.9437,34.6908 25.5997,34.7728 25.2577,34.8218 C24.9167,34.7688 24.5747,34.6828 24.2607,34.6158 C23.8937,34.5408 23.5307,34.3828 23.4947,33.8768 C23.4917,33.8328 23.5427,33.8318 23.5537,33.8668 C23.7007,34.3288 24.1667,34.3418 24.5087,34.3968 C24.7627,34.4388 25.0117,34.4468 25.2597,34.4458 C25.5087,34.4498 25.7577,34.4448 26.0127,34.4048 C26.3547,34.3548 26.8197,34.3468 26.9737,33.8868 C26.9857,33.8518 27.0357,33.8538 27.0307,33.8968 C26.9897,34.4028 26.6257,34.5568 26.2577,34.6278 M21.7787,26.1928 C21.7647,26.1288 21.7857,26.0748 21.8207,26.0388 C21.8237,26.0318 21.8307,26.0258 21.8397,26.0228 C21.8847,25.9908 21.9427,25.9918 21.9797,26.0438 C22.1087,26.0798 22.2227,26.1378 22.3767,26.0918 C22.4427,26.0748 22.5087,26.0478 22.5767,26.0418 C22.8067,26.0198 23.0177,26.0868 23.2057,26.2488 C23.5327,26.5288 23.6107,27.1038 23.6297,27.5518 C23.6327,27.6408 23.5447,27.7318 23.4727,27.6958 C22.8287,27.3828 21.9937,27.1058 21.7787,26.1928 M23.8617,30.4838 C23.9447,30.4138 24.0417,30.3688 24.1457,30.3348 C24.2777,30.3878 24.4107,30.4228 24.5267,30.4418 C24.6397,30.4578 24.7467,30.4618 24.8537,30.4598 C24.7217,30.4888 24.5887,30.5158 24.4557,30.5408 C24.3517,30.5638 24.2487,30.5878 24.1467,30.6138 C23.9797,30.6388 23.9627,30.7948 24.1007,31.0788 C24.3617,31.2328 24.8387,31.4378 24.7437,31.8938 C24.6847,32.1838 24.3307,32.0088 24.4427,31.7768 C24.5607,31.5278 23.9067,31.2768 23.7927,31.1108 C23.6847,30.9538 23.7257,30.6008 23.8617,30.4838 M24.8027,24.4228 C24.9127,25.0898 24.9017,25.7898 24.8927,26.4658 C24.8927,26.5148 24.8367,26.5208 24.8297,26.4718 C24.7367,25.8018 24.8037,25.1168 24.7267,24.4418 C24.7207,24.3838 24.7917,24.3658 24.8027,24.4228 M25.4307,24.8948 C25.4307,24.8848 25.4447,24.8838 25.4447,24.8948 C25.4757,25.8208 25.5077,26.7598 25.4637,27.6858 C25.4617,27.7508 25.3837,27.7538 25.3797,27.6878 C25.3487,26.7598 25.3907,25.8228 25.4307,24.8948 M26.3377,30.3208 C26.4717,30.3578 26.6007,30.4108 26.7027,30.5008 C26.8397,30.6188 26.8757,30.9718 26.7657,31.1288 C26.6497,31.2928 25.9927,31.5368 26.1097,31.7868 C26.2177,32.0198 25.8627,32.1908 25.8067,31.8998 C25.7167,31.4428 26.1947,31.2438 26.4587,31.0918 C26.5987,30.8098 26.5857,30.6538 26.4177,30.6268 C26.3157,30.5998 26.2137,30.5748 26.1097,30.5498 C25.9987,30.5278 25.8897,30.5058 25.7787,30.4808 C25.9717,30.4568 26.1727,30.4068 26.3377,30.3208 M26.0467,24.3328 C26.1817,25.0498 26.1157,25.8448 26.1127,26.5778 C26.1127,26.6308 26.0507,26.6298 26.0417,26.5828 C25.9177,25.8578 26.0127,25.0778 25.9717,24.3388 C25.9687,24.2848 26.0377,24.2828 26.0467,24.3328 M20.2917,24.0588 C19.9397,23.4448 19.2037,23.3978 18.6487,23.3068 C18.3527,23.2578 18.0847,23.1668 17.8107,23.0308 C17.2867,22.7718 16.8797,22.1008 16.2377,22.2138 C16.2267,22.2168 16.2247,22.1968 16.2367,22.1928 C17.0647,21.9498 17.6977,22.8508 18.5017,22.9648 C19.3047,23.0778 20.0967,22.9088 20.6507,23.7688 C20.8197,24.0318 20.4517,24.3378 20.2917,24.0588 M34.7517,22.0398 C33.3387,21.3228 31.8937,21.8208 30.6537,22.7818 C29.9127,23.3578 29.1967,23.9298 28.2757,23.6728 C27.3397,23.4138 26.4127,23.4158 25.4577,23.3988 C25.3247,23.3948 25.3227,23.3948 25.1907,23.3968 C24.2347,23.4028 23.3087,23.3908 22.3687,23.6388 C21.4447,23.8848 20.7357,23.3048 20.0007,22.7198 C18.7737,21.7448 17.3327,21.2308 15.9127,21.9318 C15.8357,21.9688 15.7697,22.0778 15.8067,22.1828 C16.2677,23.4508 16.7367,24.5568 17.8497,25.1388 C18.2717,25.3598 18.6867,25.4948 19.1497,25.3818 C19.4837,25.3028 19.8057,25.1658 20.1397,25.0848 C20.7707,24.9298 21.4137,25.3538 21.4257,26.2098 C21.4327,26.7808 21.3057,27.3188 21.1787,27.8598 C21.2117,28.1498 21.2687,28.4378 21.3977,28.7268 C21.6017,29.1838 22.0057,29.5208 22.2887,29.9018 C22.7357,30.5068 23.0287,31.3158 23.0537,32.1288 C23.0547,32.1668 23.0077,32.1768 22.9987,32.1398 C22.8247,31.3718 22.5697,30.7498 22.1257,30.1218 C21.8707,29.7598 21.5157,29.5138 21.2767,29.1328 C21.1797,28.9828 21.0927,28.8178 21.0147,28.6438 C20.9887,28.7888 20.9697,28.9358 20.9567,29.0848 C20.8877,29.9258 20.8657,30.7748 20.8607,31.6188 C20.8517,33.4378 21.1747,35.1108 21.3357,36.8948 C21.3537,37.0798 21.5367,37.0888 21.5907,36.9488 C21.5947,36.2098 21.6487,35.4748 21.8517,34.7748 C21.8807,34.6758 22.0017,34.7148 21.9957,34.8158 C21.9527,35.5198 21.8397,36.2118 21.7947,36.9178 C21.8807,37.4718 22.0077,38.0138 22.1967,38.5488 C22.4887,39.3808 23.0447,40.0148 23.2967,40.8788 C23.3577,41.0858 23.5697,41.0448 23.6247,40.8608 C23.6277,40.8498 23.6307,40.8398 23.6337,40.8318 C23.7047,40.1388 23.8487,39.4518 24.0047,38.7848 C24.0247,38.7038 24.1257,38.7308 24.1207,38.8118 C24.0717,39.6168 23.9417,40.3968 23.8577,41.1818 C24.0157,42.1748 24.3487,43.1188 24.9267,43.8518 L24.9207,43.9798 C24.9107,44.1668 25.0857,44.2628 25.2037,44.1638 C25.3217,44.2648 25.4977,44.1708 25.4897,43.9828 C25.4877,43.9408 25.4867,43.8978 25.4857,43.8558 C26.0717,43.1288 26.4157,42.1888 26.5847,41.1978 C26.5097,40.4118 26.3897,39.6308 26.3497,38.8248 C26.3457,38.7428 26.4457,38.7178 26.4657,38.7988 C26.6127,39.4668 26.7497,40.1558 26.8137,40.8498 C26.8167,40.8588 26.8187,40.8678 26.8207,40.8788 C26.8717,41.0638 27.0857,41.1068 27.1507,40.9008 C27.4117,40.0398 27.9747,39.4128 28.2767,38.5838 C28.4707,38.0508 28.6067,37.5098 28.6957,36.9568 C28.6597,36.2508 28.5547,35.5578 28.5197,34.8538 C28.5157,34.7518 28.6377,34.7148 28.6647,34.8138 C28.8617,35.5168 28.9047,36.2518 28.9007,36.9908 C28.9527,37.1308 29.1367,37.1248 29.1547,36.9398 C29.3377,35.1568 29.6807,33.4878 29.6917,31.6698 C29.6957,30.8248 29.6847,29.9768 29.6247,29.1348 C29.6137,28.9858 29.5957,28.8388 29.5717,28.6928 C29.4927,28.8658 29.4027,29.0298 29.3057,29.1798 C29.0627,29.5578 28.7027,29.7998 28.4447,30.1578 C27.9937,30.7808 27.7307,31.4008 27.5477,32.1658 C27.5387,32.2028 27.4917,32.1928 27.4927,32.1538 C27.5277,31.3408 27.8307,30.5358 28.2837,29.9368 C28.5707,29.5578 28.9807,29.2268 29.1887,28.7718 C29.3197,28.4848 29.3817,28.1958 29.4177,27.9068 C29.2967,27.3648 29.1757,26.8258 29.1897,26.2548 C29.2117,25.3988 29.8597,24.9828 30.4877,25.1448 C30.8207,25.2288 31.1417,25.3698 31.4757,25.4538 C31.9367,25.5708 32.3537,25.4418 32.7777,25.2248 C33.8987,24.6558 34.3797,23.5548 34.8547,22.2928 C34.8937,22.1888 34.8277,22.0778 34.7517,22.0398" id="Fill-12" fill="#FF9500"></path>
            </g>
        </g>
    </g>
</svg>