<?xml version="1.0" encoding="UTF-8"?>
<svg width="25px" height="25px" viewBox="0 0 25 25" version="1.1" xmlns="http://www.w3.org/2000/svg" xmlns:xlink="http://www.w3.org/1999/xlink">
    <!-- Generator: Sketch 61.2 (89653) - https://sketch.com -->
    <title>Group 42</title>
    <desc>Created with Sketch.</desc>
    <defs>
        <polygon id="path-1" points="0.000179366376 0.189215686 24.8107843 0.189215686 24.8107843 25 0.000179366376 25"></polygon>
    </defs>
    <g id="Page-1" stroke="none" stroke-width="1" fill="none" fill-rule="evenodd">
        <g id="Desktop-Copy-2" transform="translate(-1112.000000, -636.000000)">
            <g id="CAFETERIA" transform="translate(1080.000000, 211.000000)">
                <g id="Chat-Copy" transform="translate(22.000000, 358.000000)">
                    <g id="Group-2" transform="translate(10.000000, 67.000000)">
                        <g id="Group-42">
                            <g id="Group-3">
                                <mask id="mask-2" fill="white">
                                    <use xlink:href="#path-1"></use>
                                </mask>
                                <g id="Clip-2"></g>
                                <path d="M24.8108939,12.6661275 C24.7709804,19.517598 19.1851961,25.0391667 12.3342157,25.0001586 C5.4827451,24.9602451 -0.0393137255,19.3744608 0.000179366376,12.5229902 C0.0396078431,5.67151961 5.62539216,0.14995098 12.4768627,0.188959064 C19.3278431,0.228872549 24.849902,5.81465686 24.8108939,12.6661275" id="Fill-1" fill="#364FCC" mask="url(#mask-2)"></path>
                            </g>
                            <path d="M21,18.1103448 C20.999013,18.2425608 20.8805702,18.3495929 20.7349842,18.3491432 C20.7349842,18.3491432 18.7036899,19.0102233 16.6965777,18.9998799 C13.5879474,18.9832404 4.26205628,18.9346713 4.26205628,18.9346713 C4.11647032,18.9337719 3.99950804,18.8253907 4,18.692725 L4.00543019,17.8252259 C4.00641721,17.6930099 4.12535353,17.5859778 4.27093949,17.5864276 C4.27093949,17.5864276 13.5662329,17.6354464 16.664006,17.6516361 C18.4870383,17.6610801 20.4976051,17 20.4976051,17 C20.643191,17.0008994 20.7606468,17.1092806 20.7601533,17.2414966 L21,18.1103448 Z" id="Fill-4" fill="#D8C191"></path>
                            <path d="M16.5409089,15.3582928 C12.5364705,14.5651759 10.9472705,11.5860247 10.3535404,9.04786155 L10.3530604,9.05117014 C10.3525804,9.04644358 10.3521004,9.04266233 10.3511405,9.03840842 C10.2148273,8.45231489 10.1308316,7.89079947 10.083314,7.38505747 C9.93356149,7.05514353 9.62493702,6.94690529 8.84785613,7.02347557 C8.35444096,7.05278025 8.83873659,8.50477971 9.16464019,9.04455295 C7.71895295,8.89424832 6.02463822,9.2969513 5.06276663,8.55535391 C4.54295279,8.15501422 4.419599,8.25758059 4.41671914,8.45656879 C4.43207837,8.55582657 4.44839755,8.65744763 4.4651967,8.76095931 C4.48439574,8.83705694 4.5031148,8.90086551 4.50551467,8.92827956 C4.50599465,8.9353694 4.50215484,8.93915065 4.49351528,8.94104127 C4.73398318,10.4464509 5.01428907,12.2855557 4.48295581,13.1717858 C3.63771835,14.5793556 4.15897212,16.9317649 4.15897212,16.9317649 C4.15897212,16.9317649 11.4229265,16.972886 16.2126055,16.9998274 C18.388336,17.0125891 19.69867,16.3135307 19.9410578,16.3149487 C20.4018346,15.7250739 18.0566727,15.052957 16.5409089,15.3582928" id="Fill-6" fill="#9FB1D5"></path>
                            <path d="M16.6135272,15.3582958 C12.585901,14.5651786 10.9874987,11.5860263 10.3903306,9.04786228 L10.3898478,9.05117087 C10.3893651,9.04644431 10.3888823,9.04266306 10.3879168,9.03840915 C10.2508144,8.45231541 10.1663322,7.89079979 10.1185394,7.38505761 C9.96791984,7.05514355 9.65750828,6.94690527 8.87592769,7.02347558 C8.3796554,7.05278027 8.86675534,8.50478025 9.19454609,9.04455368 C7.74048758,8.894249 6.03636191,9.29695212 5.06892059,8.55535447 C4.54609676,8.15501463 4.42202869,8.25758103 4.41913216,8.45656931 C4.43458033,8.55582712 4.450994,8.65744822 4.46789043,8.76095993 C4.48720064,8.83705759 4.50602809,8.90086618 4.50844186,8.92828025 C4.50892462,8.93537009 4.50506258,8.93915134 4.49637298,8.94104196 C4.73823331,10.4464521 5.02016232,12.2855576 4.48575237,13.171788 C3.63562055,14.5793583 4.15989265,16.9317684 4.15989265,16.9317684 C4.15989265,16.9317684 11.4659091,16.9728895 16.2833227,16.9998309 C16.9355249,17.0036122 17.5085553,16.9435848 18,16.8580341 C17.9975862,16.8462177 17.7301399,15.6527606 16.6135272,15.3582958" id="Fill-8" fill="#FF6B00"></path>
                            <path d="M21,17.1103448 C20.999013,17.2425608 20.8800767,17.3495929 20.7349843,17.3491432 C20.7349843,17.3491432 18.7036906,18.0102233 16.6960854,17.9998799 C13.5874559,17.9832404 4.26206083,17.9346713 4.26206083,17.9346713 C4.11647491,17.9337719 3.99901915,17.8253907 4,17.692725 L4.00494129,16.8252259 C4.00592831,16.6930099 4.12486461,16.5855281 4.27045053,16.5864276 C4.27045053,16.5864276 13.5657414,16.6354464 16.6640071,16.6516361 C18.4865455,16.6610801 20.4971117,16 20.4971117,16 C20.6426976,16.0008994 20.7606469,16.1092806 20.7596599,16.2414966 L21,17.1103448 Z" id="Fill-10" fill="#FFFFFF"></path>
                            <path d="M15.982827,15.628183 C16.0544798,15.3614766 15.895328,15.0871894 15.6280081,15.0168947 C15.3613772,14.9459109 15.0871676,15.1051077 15.0168928,15.3725033 C14.9459291,15.6385205 15.1050808,15.9128077 15.3717117,15.9831024 C15.6383427,16.0540863 15.9118633,15.8948894 15.982827,15.628183" id="Fill-12" fill="#FFFFFF"></path>
                            <path d="M15.191261,16.0495861 C15.2192022,15.9462207 15.1564571,15.8404515 15.0505747,15.8125669 C14.9446924,15.785163 14.836359,15.8471823 14.8089081,15.9500669 C14.7804767,16.053913 14.843712,16.1596823 14.9491041,16.1875669 C15.0544963,16.2144899 15.1628296,16.1534323 15.191261,16.0495861" id="Fill-14" fill="#590600"></path>
                            <path d="M15.9893402,14.1982823 C16.0341832,14.1142224 15.9334833,14.0278167 15.7635522,14.0051401 C15.5944078,13.9832454 15.4205431,14.0332904 15.3764869,14.1173503 L15.010663,14.8019495 C14.9658201,14.8860094 15.06652,14.9724151 15.2356644,14.9947008 C15.4055955,15.0169864 15.5794602,14.9669415 15.6235164,14.8828816 L15.9893402,14.1982823 Z" id="Fill-16" fill="#FFFFFF"></path>
                            <path d="M13.9309271,14.7543764 C14.0707803,14.515311 13.9915531,14.2094177 13.7538715,14.069561 C13.515501,13.9290154 13.2089261,14.0082445 13.0690729,14.245932 C12.9292197,14.4843083 13.0084469,14.7908907 13.2461285,14.9307473 C13.484499,15.0712929 13.7903849,14.9906859 13.9309271,14.7543764" id="Fill-18" fill="#FFFFFF"></path>
                            <path d="M14.1703971,15.0985577 C14.2257893,15.0057692 14.1949069,14.8870192 14.1002991,14.8331731 C14.0061814,14.7788462 13.885103,14.8096154 13.8297109,14.9014423 C13.7738285,14.9942308 13.8056913,15.1129808 13.8998089,15.1668269 C13.9944167,15.2211538 14.115005,15.1903846 14.1703971,15.0985577" id="Fill-20" fill="#590600"></path>
                            <path d="M14.9676639,14.2570809 C15.0331289,14.1760063 14.9960514,14.0712848 14.8848188,14.023569 C14.7735863,13.9758531 14.6304903,14.002878 14.5650253,14.0839527 L14.0326153,14.7431067 C13.966571,14.8241814 14.0042278,14.9284806 14.1148811,14.9766187 C14.2266929,15.0239123 14.369789,14.9973096 14.435254,14.916235 L14.9676639,14.2570809 Z" id="Fill-22" fill="#FFFFFF"></path>
                            <path d="M12.8428585,13.8639541 C13.0433324,13.6751733 13.0536661,13.3589312 12.8642148,13.1577489 C12.6747635,12.9558775 12.358552,12.9469208 12.1573891,13.1357015 C11.9562262,13.3251712 11.9465814,13.6414133 12.1360328,13.8425957 C12.3247952,14.043778 12.6410067,14.0534237 12.8428585,13.8639541" id="Fill-24" fill="#FFFFFF"></path>
                            <path d="M12.1354167,14.1408851 C12.2153186,14.0678082 12.21875,13.9447312 12.1442402,13.8668466 C12.0692402,13.788962 11.94375,13.7855966 11.8643382,13.8591543 C11.7849265,13.9322312 11.7810049,14.0548274 11.8560049,14.132712 C11.9310049,14.2105966 12.0560049,14.2149235 12.1354167,14.1408851" id="Fill-26" fill="#590600"></path>
                            <path d="M12.9403557,13.3407265 C13.0165508,13.2660615 13.0203135,13.1411318 12.9483515,13.0620747 C12.8763895,12.9830176 12.7564528,12.9786255 12.6802578,13.0537786 L12.0598794,13.6598829 C11.983214,13.7345479 11.9799217,13.8589896 12.0514133,13.9380467 C12.1238457,14.0171038 12.2437823,14.0210078 12.3199774,13.9468308 L12.9403557,13.3407265 Z" id="Fill-28" fill="#FFFFFF"></path>
                            <path d="M11.7559836,12.9295611 C11.9929458,12.7876372 12.0707851,12.4817428 11.9295722,12.2440546 C11.7876704,12.0070553 11.4818239,11.9292038 11.2441729,12.0704389 C11.0065218,12.2116739 10.9293714,12.5182572 11.0705843,12.7559454 C11.2117972,12.9929447 11.5183326,13.0707962 11.7559836,12.9295611" id="Fill-30" fill="#FFFFFF"></path>
                            <path d="M11.1012809,13.1667855 C11.1944182,13.1114971 11.2257907,12.9932278 11.1699084,12.9009202 C11.1135358,12.8086125 10.9924574,12.778324 10.89883,12.8340932 C10.8052025,12.8884202 10.7743201,13.0071702 10.8302025,13.0994778 C10.8860849,13.1913048 11.0071633,13.2211125 11.1012809,13.1667855" id="Fill-32" fill="#590600"></path>
                            <path d="M11.916604,12.4323918 C11.9974125,12.3672296 12.0240666,12.2242185 11.9762585,12.1135003 C11.9276041,12.0033588 11.8226799,11.9670294 11.7422945,12.0327683 L11.0835569,12.5673296 C11.0023253,12.6330686 10.9756712,12.7760796 11.0243255,12.8867978 C11.0725568,12.9963627 11.1770579,13.0332688 11.2578664,12.9669532 L11.916604,12.4323918 Z" id="Fill-34" fill="#FFFFFF"></path>
                            <path d="M10.6926993,10.9614487 C10.9475947,10.8553052 11.0674644,10.5623766 10.9613728,10.3073563 C10.8545923,10.0530254 10.562496,9.9324077 10.3069117,10.0385513 C10.0527053,10.1446948 9.93214664,10.4376234 10.0389271,10.6926437 C10.1450187,10.9469746 10.437804,11.0675923 10.6926993,10.9614487" id="Fill-36" fill="#FFFFFF"></path>
                            <path d="M10.0762645,11.1787797 C10.1767547,11.1383951 10.2247939,11.023972 10.1821468,10.9254144 C10.13999,10.8268567 10.0247939,10.7797413 9.9233233,10.8210874 C9.82283311,10.8624336 9.77577428,10.9754144 9.81744095,11.0744528 C9.86008801,11.173972 9.97528409,11.2201259 10.0762645,11.1787797" id="Fill-38" fill="#590600"></path>
                            <path d="M10.8998745,10.5154317 C10.9825697,10.4589471 11.022102,10.3021191 10.9874104,10.1652269 C10.9527187,10.0289992 10.8579219,9.96387574 10.7740165,10.0203604 L10.1003536,10.4848636 C10.0172551,10.5420128 9.97812616,10.6981762 10.0124144,10.8344039 C10.047106,10.9712961 10.1423063,11.0364196 10.2250014,10.9792704 L10.8998745,10.5154317 Z" id="Fill-40" fill="#FFFFFF"></path>
                        </g>
                    </g>
                </g>
            </g>
        </g>
    </g>
</svg>