<?xml version="1.0" encoding="UTF-8"?>
<svg width="51px" height="51px" viewBox="0 0 51 51" version="1.1" xmlns="http://www.w3.org/2000/svg" xmlns:xlink="http://www.w3.org/1999/xlink">
    <!-- Generator: Sketch 61.2 (89653) - https://sketch.com -->
    <title>Group 14</title>
    <desc>Created with Sketch.</desc>
    <defs>
        <polygon id="path-1" points="0.000765869167 0.386 50.614 0.386 50.614 51 0.000765869167 51"></polygon>
    </defs>
    <g id="Page-1" stroke="none" stroke-width="1" fill="none" fill-rule="evenodd">
        <g id="modal2" transform="translate(-441.000000, -719.000000)">
            <g id="Group-14" transform="translate(441.000000, 718.000000)">
                <g id="Group-3" transform="translate(0.000000, 0.614200)">
                    <mask id="mask-2" fill="white">
                        <use xlink:href="#path-1"></use>
                    </mask>
                    <g id="Clip-2"></g>
                    <path d="M50.6146235,25.8389 C50.5332,39.8159 39.1372,51.0799 25.1612,51.0003235 C11.1842,50.9189 -0.0798,39.5239 0.000765869167,25.5469 C0.0812,11.5699 11.4762,0.3059 25.4532,0.38547649 C39.4292,0.4669 50.6942,11.8619 50.6146235,25.8389" id="Fill-1" fill="#E8E821" mask="url(#mask-2)"></path>
                </g>
                <path d="M25.4081,8.77078425 C18.5511,8.731 12.9601,14.258 12.9201,21.116 L12.8011,41.772 C12.8011,41.772 17.4741,38.902 19.0261,38.911 C20.5781,38.92 23.6661,41.834 25.2171,41.843 C26.7681,41.853 29.8901,38.974 31.4421,38.982 C32.9941,38.991 37.6341,41.915 37.6341,41.915 L37.7533157,21.259 C37.7931,14.401 32.2651,8.811 25.4081,8.77078425" id="Fill-4" fill="#E62E2E"></path>
                <path d="M36.6737,22.4526 C36.6897,19.6986 34.7587,17.4516 32.3617,17.4375343 C29.9647,17.4236 28.0097,19.6476 27.9927,22.4026 C27.9777,25.1556 29.9067,27.4006 32.3047,27.4146658 C34.7007,27.4286 36.6567,25.2056 36.6737,22.4526" id="Fill-6" fill="#FFFFFF"></path>
                <path d="M35.9657,22.4487 C35.9757,20.8147 34.8307,19.4837 33.4107,19.4746638 C31.9887,19.4667 30.8287,20.7847 30.8197,22.4187 C30.8107,24.0507 31.9547,25.3827 33.3767,25.3907458 C34.7967,25.3997 35.9567,24.0797 35.9657,22.4487" id="Fill-8" fill="#262626"></path>
                <path d="M26.1308,22.3921 C26.1468,19.6371 24.2158,17.3911 21.8188,17.3770343 C19.4208,17.3631 17.4668,19.5871 17.4498,22.3421 C17.4348,25.0951 19.3638,27.3401 21.7608,27.3531658 C24.1578,27.3671 26.1138,25.1451 26.1308,22.3921" id="Fill-10" fill="#FFFFFF"></path>
                <path d="M25.4218,22.3877 C25.4318,20.7537 24.2878,19.4227 22.8668,19.4146638 C21.4448,19.4067 20.2858,20.7247 20.2758,22.3587 C20.2668,23.9897 21.4108,25.3227 22.8328,25.3297458 C24.2538,25.3387 25.4118,24.0187 25.4218,22.3877" id="Fill-12" fill="#262626"></path>
            </g>
        </g>
    </g>
</svg>