<?xml version="1.0" encoding="UTF-8"?>
<svg width="51px" height="51px" viewBox="0 0 51 51" version="1.1" xmlns="http://www.w3.org/2000/svg" xmlns:xlink="http://www.w3.org/1999/xlink">
    <!-- Generator: Sketch 61.2 (89653) - https://sketch.com -->
    <title>Group 18</title>
    <desc>Created with Sketch.</desc>
    <defs>
        <polygon id="path-1" points="0.000465907362 0.386 50.614 0.386 50.614 51 0.000465907362 51"></polygon>
    </defs>
    <g id="Page-1" stroke="none" stroke-width="1" fill="none" fill-rule="evenodd">
        <g id="modal2" transform="translate(-441.000000, -266.000000)">
            <g id="Group-18" transform="translate(441.000000, 265.000000)">
                <g id="Group-3" transform="translate(0.000000, 0.614200)">
                    <mask id="mask-2" fill="white">
                        <use xlink:href="#path-1"></use>
                    </mask>
                    <g id="Clip-2"></g>
                    <path d="M50.6143235,25.8389 C50.5329,39.8159 39.1369,51.0799 25.1609,51.0003235 C11.1849,50.9189 -0.0801,39.5239 0.000465907362,25.5469 C0.0809,11.5709 11.4759,0.3059 25.4529,0.385476527 C39.4289,0.4669 50.6939,11.8619 50.6143235,25.8389" id="Fill-1" fill="#87B23D" mask="url(#mask-2)"></path>
                </g>
                <polygon id="Fill-4" fill="#470500" points="34.6335 15.6616 16.1045 15.5556 18.3995 42.7536 32.0255 42.8326"></polygon>
                <path d="M30.2223863,27.6196 C30.2383,24.8756 28.0263,22.6386 25.2823,22.6215241 C22.5373,22.6066 20.3003,24.8176 20.2842138,27.5616 C20.2683,30.3066 22.4813,32.5436 25.2253,32.5596863 C27.9693,32.5756 30.2063,30.3636 30.2223863,27.6196" id="Fill-6" fill="#FF9500"></path>
                <path d="M29.1491619,27.6132 C29.1611,25.4622 27.4271,23.7082 25.2761,23.6961274 C23.1251,23.6832 21.3701,25.4172 21.3580274,27.5682 C21.3451,29.7192 23.0801,31.4732 25.2311,31.4862619 C27.3821,31.4982 29.1361,29.7642 29.1491619,27.6132" id="Fill-8" fill="#470500"></path>
                <path d="M28.4674521,27.6093 C28.4774,25.8343 27.0464,24.3863 25.2724,24.3762479 C23.4964,24.3663 22.0494,25.7973 22.0393479,27.5723 C22.0294,29.3463 23.4594,30.7943 25.2354,30.8043521 C27.0094,30.8143 28.4564,29.3833 28.4674521,27.6093" id="Fill-10" fill="#FF9500"></path>
                <polygon id="Fill-12" fill="#B99C62" points="34.9596 12.8037 15.8126 12.6937 14.9816 14.7787 35.7646 14.8977"></polygon>
                <polygon id="Fill-14" fill="#FFFFFF" points="31.5885 9.8564 19.2155 9.7854 16.7475 12.6984 34.0235 12.7984"></polygon>
                <polygon id="Fill-16" fill="#FFFFFF" points="35.7643 14.8979 14.9823 14.7779 14.9743 16.0249 35.7573 16.1449"></polygon>
            </g>
        </g>
    </g>
</svg>