<?xml version="1.0" encoding="UTF-8"?>
<svg width="51px" height="51px" viewBox="0 0 51 51" version="1.1" xmlns="http://www.w3.org/2000/svg" xmlns:xlink="http://www.w3.org/1999/xlink">
    <!-- Generator: Sketch 61.2 (89653) - https://sketch.com -->
    <title>Group 12</title>
    <desc>Created with Sketch.</desc>
    <defs>
        <polygon id="path-1" points="0.000465907362 0.386 50.614 0.386 50.614 51 0.000465907362 51"></polygon>
    </defs>
    <g id="Page-1" stroke="none" stroke-width="1" fill="none" fill-rule="evenodd">
        <g id="modal2" transform="translate(-441.000000, -359.000000)">
            <g id="Group-12" transform="translate(441.000000, 358.000000)">
                <g id="Group-3" transform="translate(0.000000, 0.614200)">
                    <mask id="mask-2" fill="white">
                        <use xlink:href="#path-1"></use>
                    </mask>
                    <g id="Clip-2"></g>
                    <path d="M50.6143235,25.8388 C50.5329,39.8158 39.1369,51.0798 25.1609,51.0002235 C11.1849,50.9188 -0.0801,39.5238 0.000465907362,25.5468 C0.0809,11.5708 11.4759,0.3058 25.4529,0.385376527 C39.4289,0.4668 50.6939,11.8618 50.6143235,25.8388" id="Fill-1" fill="#E87E1F" mask="url(#mask-2)"></path>
                </g>
                <path d="M16.2907,25.1068 L7.6347,26.7208 C7.6347,26.7208 7.9227,32.6318 8.7357,34.5548 C9.5497,36.4768 11.4537,38.8178 15.2437,38.6588 C19.0367,38.4978 22.9807,34.9218 26.9717,28.4048 C30.9587,21.8888 33.0707,17.7778 35.2387,16.8558 C37.4087,15.9308 41.3327,15.6948 41.5197,15.7138 C42.1667,16.1568 42.6277,15.9518 42.9227,15.5398 C43.2147,15.1298 42.9157,14.3448 42.6227,14.1258 C42.3297,13.9088 41.8257,13.9198 41.4077,14.3198 C41.0777,14.4758 36.6177,14.4038 34.4617,15.1948 C32.3077,15.9838 26.0467,21.3038 23.0767,25.8338 C20.1037,30.3638 18.5237,30.4358 17.5057,28.0468 C16.4867,25.6598 16.2907,25.1068 16.2907,25.1068" id="Fill-4" fill="#954E00"></path>
                <path d="M42.9225,15.5399 C43.2145,15.1299 42.9155,14.3449 42.6225,14.1249 C42.3295,13.9089 41.8255,13.9199 41.4075,14.3199 C41.0775,14.4759 36.6175,14.4039 34.4615,15.1949 C32.4395,15.9369 26.7975,20.6689 23.6575,24.9949 L27.4625,27.5969 C31.1355,21.5519 33.1615,17.7379 35.2385,16.8549 C37.4085,15.9309 41.3325,15.6949 41.5195,15.7139 C42.1665,16.1569 42.6275,15.9519 42.9225,15.5399" id="Fill-6" fill="#470500"></path>
                <path d="M27.4626,27.5965 C27.7886,27.0605 28.1026,26.5405 28.4026,26.0405 L24.7756,23.5585 C24.3776,24.0395 24.0016,24.5185 23.6576,24.9945 L27.4626,27.5965 Z" id="Fill-8" fill="#FFBA32"></path>
                <path d="M10.3307,33.0633 C9.7307,31.3983 9.7197,29.8793 9.2077,30.0633 C8.6957,30.2483 8.7657,31.7473 9.3637,33.4123 C9.9647,35.0743 10.8657,36.2743 11.3797,36.0903 C11.8927,35.9053 10.9297,34.7283 10.3307,33.0633" id="Fill-10" fill="#FFFFFF"></path>
            </g>
        </g>
    </g>
</svg>